<svg xmlns="http://www.w3.org/2000/svg">
  <symbol id="directive-route-campaign" viewBox="0 0 1254 1254">
    <title>Directive Campaign icon, dark variant</title>
      <defs>
        <linearGradient id="dark-campaign-main" x1="0" y1="0.5" x2="1" y2="0.5" gradientTransform="rotate(-127.7035 .5 .5)"><stop offset="0%" stop-color="#21252e"/><stop offset="20%" stop-color="#20242e"/><stop offset="40%" stop-color="#21252e"/><stop offset="60%" stop-color="#21252e"/><stop offset="80%" stop-color="#21252e"/><stop offset="100%" stop-color="#21252f"/></linearGradient>
        <linearGradient id="dark-campaign-accent" x1="0" y1="0.5" x2="1" y2="0.5" gradientTransform="rotate(4.7653 .5 .5)"><stop offset="0%" stop-color="#5d5c82"/><stop offset="20%" stop-color="#5d5c83"/><stop offset="40%" stop-color="#5d5d84"/><stop offset="60%" stop-color="#5f5f86"/><stop offset="80%" stop-color="#5f5f85"/><stop offset="100%" stop-color="#605f86"/></linearGradient>
      </defs>
      <path d="M 785.00 254.28 L 785.30 228.00 L 784.00 226.84 L 775.00 227.55 L 767.00 226.95 L 721.00 227.00 L 720.00 227.54 L 718.00 227.00 L 693.00 227.54 L 666.00 227.00 L 662.00 227.66 L 658.00 229.80 L 654.92 233.00 L 652.73 239.00 L 652.95 244.00 L 654.61 248.00 L 659.00 252.35 L 664.00 254.31 L 785.00 254.28 Z M 805.00 254.22 L 811.00 251.26 L 814.36 247.00 L 815.25 245.00 L 815.43 240.00 L 814.31 235.00 L 811.00 230.65 L 806.00 227.70 L 794.00 226.91 L 792.66 228.00 L 792.65 254.00 L 805.00 254.22 Z M 948.00 394.08 L 962.00 391.09 L 973.00 387.11 L 986.00 380.32 L 997.00 372.11 L 1007.20 362.00 L 1015.10 351.00 L 1020.10 341.00 L 1024.03 329.00 L 1025.42 320.00 L 1025.24 303.00 L 1023.25 293.00 L 1019.30 282.00 L 1012.07 269.00 L 1002.09 257.00 L 993.00 249.00 L 984.00 242.79 L 975.00 237.87 L 965.00 233.88 L 948.00 229.83 L 941.00 229.55 L 939.00 228.79 L 928.00 228.78 L 910.00 231.73 L 898.00 235.72 L 883.00 244.00 L 878.00 247.72 L 868.58 257.00 L 860.55 267.00 L 849.00 278.56 L 842.00 282.54 L 832.00 285.55 L 795.00 285.56 L 791.00 284.57 L 784.00 280.56 L 761.00 263.59 L 719.69 264.00 L 740.54 286.00 L 743.57 291.00 L 743.81 294.00 L 743.52 297.00 L 741.57 300.00 L 739.00 301.62 L 737.00 302.55 L 720.00 302.95 L 717.00 304.83 L 714.90 308.00 L 714.74 314.00 L 715.66 316.00 L 719.00 319.04 L 723.00 320.02 L 738.00 320.41 L 741.00 322.27 L 743.56 326.00 L 743.55 331.00 L 740.53 336.00 L 720.00 356.14 L 724.00 357.01 L 751.00 357.00 L 752.00 356.44 L 760.00 357.13 L 770.00 351.07 L 787.00 338.45 L 794.00 335.43 L 832.00 335.45 L 839.00 337.43 L 843.00 339.44 L 853.00 346.43 L 857.55 351.00 L 866.73 364.00 L 876.00 373.37 L 883.00 379.11 L 893.00 385.00 L 905.00 390.28 L 921.00 394.05 L 948.00 394.08 Z M 614.00 322.14 L 619.14 318.00 L 620.10 316.00 L 620.20 311.00 L 618.00 306.77 L 616.00 304.94 L 613.00 303.82 L 491.00 303.75 L 487.00 304.81 L 482.89 309.00 L 482.77 310.00 L 482.87 317.00 L 485.00 320.08 L 489.00 322.18 L 614.00 322.14 Z M 578.00 360.27 L 583.05 357.00 L 584.28 355.00 L 585.17 350.00 L 584.06 346.00 L 582.41 344.00 L 580.00 341.86 L 576.00 340.63 L 442.00 340.70 L 439.00 341.70 L 435.54 345.00 L 433.70 350.00 L 433.90 353.00 L 435.83 357.00 L 438.00 359.06 L 442.00 360.39 L 578.00 360.27 Z M 784.00 392.20 L 785.23 391.00 L 785.30 366.00 L 785.06 365.00 L 784.00 364.67 L 666.00 364.75 L 661.00 365.87 L 658.00 367.62 L 654.71 371.00 L 652.70 377.00 L 652.79 381.00 L 654.81 386.00 L 658.00 389.28 L 665.00 392.10 L 784.00 392.20 Z M 803.00 392.04 L 809.00 390.02 L 813.28 386.00 L 815.38 381.00 L 815.31 375.00 L 814.24 372.00 L 812.00 369.00 L 807.00 365.74 L 803.00 364.81 L 793.00 364.86 L 792.67 391.00 L 794.00 392.05 L 803.00 392.04 Z M 815.00 807.03 L 839.00 805.18 L 855.00 802.25 L 873.00 797.29 L 889.00 791.28 L 906.00 783.23 L 921.00 774.22 L 931.00 767.10 L 953.11 747.00 L 971.05 725.00 L 978.11 714.00 L 986.10 699.00 L 992.26 684.00 L 996.02 672.00 L 1000.14 654.00 L 1002.22 638.00 L 1002.08 605.00 L 1000.02 590.00 L 997.16 577.00 L 992.27 561.00 L 987.03 548.00 L 975.28 526.00 L 959.33 505.00 L 939.00 484.84 L 926.00 474.72 L 909.00 463.85 L 889.00 453.89 L 873.00 447.86 L 855.00 442.93 L 830.00 438.90 L 794.00 438.83 L 773.00 441.84 L 753.00 446.83 L 736.00 452.84 L 715.00 462.75 L 700.00 471.87 L 684.00 483.89 L 671.00 495.63 L 656.80 511.00 L 644.98 527.00 L 632.00 548.75 L 628.00 552.53 L 624.00 554.50 L 619.00 555.53 L 575.00 555.51 L 573.00 554.89 L 542.00 554.52 L 534.00 550.52 L 512.00 528.90 L 505.00 524.71 L 498.00 522.68 L 327.67 522.00 L 331.76 528.00 L 337.00 533.34 L 348.00 540.34 L 360.00 544.08 L 372.00 544.44 L 382.00 546.46 L 391.00 550.43 L 397.00 554.43 L 403.55 560.00 L 412.54 572.00 L 415.55 578.00 L 419.00 590.33 L 542.00 592.45 L 544.00 593.08 L 601.00 593.44 L 610.00 594.26 L 661.00 594.45 L 685.00 595.43 L 694.00 600.45 L 699.60 607.00 L 702.58 613.00 L 703.57 617.00 L 703.68 623.00 L 702.56 631.00 L 698.55 638.00 L 693.00 643.56 L 684.00 647.56 L 663.00 648.55 L 661.00 648.00 L 660.00 648.55 L 599.00 648.78 L 597.00 649.56 L 544.00 649.88 L 542.00 650.55 L 419.00 651.93 L 415.54 665.00 L 410.52 674.00 L 404.00 681.59 L 396.00 688.58 L 388.00 693.55 L 376.00 697.56 L 359.00 698.83 L 349.00 701.77 L 341.00 705.99 L 336.00 709.90 L 327.75 719.00 L 328.00 720.25 L 496.00 720.31 L 502.00 719.08 L 510.00 715.26 L 514.00 712.19 L 534.00 692.46 L 540.00 689.47 L 547.00 688.39 L 622.00 688.47 L 627.00 690.46 L 631.56 694.00 L 636.80 704.00 L 648.72 723.00 L 656.92 734.00 L 666.64 745.00 L 686.00 763.05 L 709.00 779.19 L 735.00 792.22 L 763.00 801.25 L 783.00 805.21 L 790.00 805.45 L 791.00 806.16 L 815.00 807.03 Z M 256.00 511.41 L 256.00 448.73 L 196.00 448.75 L 190.00 449.72 L 184.00 451.95 L 178.00 455.72 L 172.89 461.00 L 169.85 466.00 L 167.86 471.00 L 166.72 477.00 L 166.65 483.00 L 167.73 489.00 L 171.71 498.00 L 175.00 502.00 L 182.00 507.32 L 189.00 510.16 L 195.00 511.29 L 256.00 511.41 Z M 585.00 512.17 L 596.00 508.25 L 604.30 501.00 L 609.12 493.00 L 611.20 483.00 L 610.15 473.00 L 606.11 464.00 L 598.00 455.77 L 593.00 452.91 L 587.00 450.89 L 557.00 449.97 L 326.00 449.56 L 325.00 448.96 L 312.00 448.85 L 269.00 448.79 L 268.00 448.83 L 267.56 450.00 L 267.55 509.00 L 266.99 510.00 L 268.00 511.42 L 585.00 512.17 Z M 474.00 642.00 L 475.00 641.45 L 582.00 641.34 L 582.24 640.00 L 578.43 635.00 L 576.44 630.00 L 575.46 626.00 L 575.44 617.00 L 578.42 608.00 L 583.02 602.00 L 520.00 601.54 L 518.00 600.89 L 507.00 600.72 L 433.00 600.54 L 432.00 599.97 L 417.00 599.80 L 412.00 600.75 L 406.00 603.76 L 400.87 610.00 L 398.57 619.00 L 398.76 626.00 L 399.92 630.00 L 404.59 637.00 L 411.00 641.11 L 417.00 642.38 L 474.00 642.00 Z M 256.00 790.19 L 256.00 728.72 L 194.00 728.86 L 186.00 730.84 L 180.00 733.75 L 173.89 739.00 L 169.89 745.00 L 166.81 755.00 L 166.73 762.00 L 167.76 768.00 L 171.78 777.00 L 178.00 783.40 L 182.00 786.21 L 189.00 789.06 L 196.00 790.22 L 256.00 790.19 Z M 583.00 790.03 L 593.00 787.29 L 597.00 785.25 L 602.20 781.00 L 606.28 776.00 L 608.37 772.00 L 610.20 767.00 L 611.02 761.00 L 609.28 749.00 L 604.14 740.00 L 597.00 733.81 L 587.00 729.89 L 287.00 728.78 L 268.00 728.89 L 267.53 730.00 L 268.00 790.22 L 583.00 790.03 Z M 941.00 1007.04 L 954.00 1005.19 L 968.00 1001.18 L 983.00 994.15 L 992.00 988.07 L 1004.19 977.00 L 1012.21 967.00 L 1019.30 954.00 L 1023.26 943.00 L 1025.26 933.00 L 1025.33 915.00 L 1023.19 904.00 L 1020.30 895.00 L 1014.26 883.00 L 1008.13 874.00 L 995.00 860.70 L 984.00 852.81 L 968.00 844.95 L 958.00 841.92 L 947.00 839.79 L 923.00 839.69 L 908.00 842.80 L 893.00 848.79 L 879.00 857.84 L 867.72 869.00 L 859.00 880.65 L 849.00 890.56 L 840.00 895.56 L 834.00 897.57 L 793.00 897.58 L 788.00 895.58 L 761.00 876.55 L 719.69 877.00 L 742.00 900.17 L 743.75 905.00 L 743.50 909.00 L 739.00 913.56 L 737.00 914.55 L 720.00 914.97 L 716.94 917.00 L 715.00 920.00 L 714.72 926.00 L 715.63 928.00 L 719.00 931.18 L 723.00 932.16 L 738.00 932.45 L 741.00 934.35 L 743.54 938.00 L 743.55 943.00 L 742.58 945.00 L 720.00 969.29 L 761.00 969.31 L 783.00 953.46 L 789.00 949.45 L 792.00 948.42 L 835.00 948.45 L 849.00 955.45 L 860.54 967.00 L 865.86 975.00 L 873.00 983.07 L 880.00 989.11 L 889.00 995.22 L 901.00 1001.13 L 914.00 1005.10 L 928.00 1007.14 L 941.00 1007.04 Z M 785.00 868.14 L 785.21 842.00 L 785.05 841.00 L 784.00 840.66 L 665.00 840.81 L 661.00 841.92 L 657.00 844.65 L 653.81 849.00 L 652.77 853.00 L 652.86 857.00 L 654.76 862.00 L 659.00 866.19 L 665.00 868.28 L 785.00 868.14 Z M 804.00 868.13 L 809.00 866.31 L 814.13 861.00 L 815.28 858.00 L 815.23 851.00 L 813.36 847.00 L 810.00 843.65 L 807.00 841.92 L 803.00 840.82 L 793.00 840.88 L 792.79 868.00 L 804.00 868.13 Z M 614.00 898.11 L 619.14 894.00 L 620.23 889.00 L 619.17 884.00 L 614.00 879.79 L 489.00 879.79 L 485.00 881.85 L 482.77 886.00 L 482.90 893.00 L 485.00 896.10 L 489.00 898.18 L 614.00 898.11 Z M 577.00 936.14 L 580.00 935.10 L 583.35 932.00 L 585.18 926.00 L 583.08 920.00 L 580.00 917.62 L 577.00 916.63 L 442.00 916.65 L 438.00 917.94 L 435.72 920.00 L 433.74 925.00 L 434.65 931.00 L 439.00 935.24 L 443.00 936.29 L 577.00 936.14 Z M 785.00 1004.24 L 785.28 978.00 L 784.00 977.50 L 664.00 977.68 L 660.00 978.95 L 655.97 982.00 L 653.91 985.00 L 652.75 989.00 L 652.87 994.00 L 654.85 999.00 L 658.00 1002.25 L 662.00 1004.34 L 785.00 1004.24 Z M 806.00 1004.31 L 809.00 1003.06 L 812.38 1000.00 L 815.25 995.00 L 815.36 988.00 L 814.31 985.00 L 811.00 980.93 L 805.00 977.90 L 793.00 977.74 L 792.72 1004.00 L 806.00 1004.31 Z" fill="url(#dark-campaign-main)" fill-rule="evenodd"/>
      <path d="M 793.00 241.03 L 793.00 232.92 L 793.00 241.03 Z M 925.00 324.07 L 927.00 323.25 L 932.17 318.00 L 932.17 316.00 L 933.17 315.00 L 933.24 311.00 L 932.19 310.00 L 932.27 308.00 L 931.21 307.00 L 931.27 306.00 L 928.00 302.73 L 925.00 301.80 L 924.00 300.74 L 918.00 300.78 L 917.00 301.80 L 914.00 302.88 L 910.76 307.00 L 910.82 308.00 L 909.74 309.00 L 909.74 316.00 L 911.83 319.00 L 911.74 320.00 L 914.00 322.26 L 915.00 322.18 L 918.00 324.26 L 925.00 324.07 Z M 614.00 322.14 L 616.00 321.15 L 619.14 318.00 L 620.10 316.00 L 620.20 311.00 L 619.14 308.00 L 618.00 306.77 L 616.00 304.94 L 613.00 303.82 L 491.00 303.75 L 487.00 304.81 L 482.89 309.00 L 482.77 310.00 L 482.87 317.00 L 485.00 320.08 L 489.00 322.18 L 614.00 322.14 Z M 988.00 318.14 L 990.26 316.00 L 990.20 315.00 L 991.26 314.00 L 991.26 311.00 L 990.19 310.00 L 990.00 308.79 L 987.00 306.77 L 947.00 306.73 L 942.73 310.00 L 942.81 316.00 L 945.00 318.18 L 988.00 318.14 Z M 783.00 365.08 L 664.85 365.00 L 783.00 365.08 Z M 804.00 365.02 L 794.77 365.00 L 804.00 365.02 Z M 375.00 522.22 L 375.00 521.78 L 362.95 522.00 L 375.00 522.22 Z M 385.00 522.19 L 377.79 522.00 L 385.00 522.19 Z M 398.00 522.18 L 386.80 522.00 L 398.00 522.18 Z M 432.00 600.03 L 424.91 600.00 L 432.00 600.03 Z M 829.00 642.27 L 830.00 641.15 L 833.00 641.27 L 834.00 640.18 L 837.00 639.25 L 838.00 638.18 L 839.00 638.26 L 843.26 634.00 L 843.18 633.00 L 845.22 631.00 L 846.09 629.00 L 846.17 626.00 L 847.27 625.00 L 847.26 617.00 L 846.19 616.00 L 846.19 613.00 L 845.21 612.00 L 845.26 611.00 L 843.19 609.00 L 843.26 608.00 L 839.00 603.74 L 838.00 603.83 L 836.00 601.79 L 834.00 601.82 L 833.00 600.75 L 831.00 600.83 L 830.00 599.75 L 823.00 599.73 L 821.00 600.83 L 819.00 600.73 L 818.00 601.83 L 815.00 602.74 L 809.75 607.00 L 809.86 608.00 L 807.73 610.00 L 807.82 611.00 L 805.73 614.00 L 805.83 616.00 L 804.73 618.00 L 804.74 624.00 L 805.83 626.00 L 805.73 628.00 L 806.82 629.00 L 807.75 632.00 L 809.84 634.00 L 809.75 635.00 L 811.00 636.25 L 812.00 636.17 L 815.00 639.26 L 818.00 640.16 L 819.00 641.25 L 822.00 641.14 L 823.00 642.24 L 829.00 642.27 Z M 957.00 630.20 L 959.00 629.12 L 962.18 626.00 L 962.22 624.00 L 963.27 623.00 L 963.27 619.00 L 962.21 618.00 L 962.27 616.00 L 958.00 611.73 L 956.00 611.80 L 955.00 610.74 L 871.00 610.74 L 870.00 611.84 L 868.00 611.74 L 863.75 616.00 L 863.78 618.00 L 862.77 619.00 L 862.75 623.00 L 863.79 624.00 L 863.80 626.00 L 867.00 629.26 L 868.00 629.16 L 869.00 630.26 L 957.00 630.20 Z M 337.00 720.02 L 329.78 720.00 L 337.00 720.02 Z M 216.00 729.22 L 216.00 728.78 L 208.79 729.00 L 216.00 729.22 Z M 229.00 729.22 L 229.00 728.78 L 221.78 729.00 L 229.00 729.22 Z M 255.00 729.23 L 255.00 728.77 L 245.79 729.00 L 255.00 729.23 Z M 303.00 729.19 L 284.79 729.00 L 303.00 729.19 Z M 320.00 729.20 L 309.80 729.00 L 320.00 729.20 Z M 280.00 790.22 L 280.00 789.78 L 267.79 790.00 L 280.00 790.22 Z M 722.00 841.18 L 664.00 841.00 L 722.00 841.18 Z M 781.00 841.12 L 723.79 841.00 L 781.00 841.12 Z M 793.00 851.04 L 793.00 844.92 L 793.00 851.04 Z M 614.00 898.11 L 616.00 897.15 L 619.14 894.00 L 620.06 892.00 L 620.23 889.00 L 620.04 886.00 L 619.17 884.00 L 616.00 880.77 L 614.00 879.79 L 489.00 879.79 L 485.00 881.85 L 482.77 886.00 L 482.90 893.00 L 485.00 896.10 L 489.00 898.18 L 614.00 898.11 Z M 924.00 936.26 L 925.00 935.18 L 927.00 935.10 L 931.25 931.00 L 931.17 930.00 L 933.03 927.00 L 933.22 923.00 L 932.18 922.00 L 932.27 920.00 L 931.20 919.00 L 931.27 918.00 L 927.00 913.80 L 925.00 913.81 L 924.00 912.74 L 918.00 912.74 L 915.00 914.83 L 914.00 914.73 L 911.74 917.00 L 910.83 920.00 L 909.74 921.00 L 909.75 928.00 L 910.84 929.00 L 911.76 932.00 L 914.00 934.20 L 915.00 934.18 L 918.00 936.19 L 924.00 936.26 Z M 987.00 930.26 L 990.24 928.00 L 990.19 927.00 L 991.21 926.00 L 991.27 924.00 L 990.27 921.00 L 987.00 918.75 L 946.00 918.76 L 942.74 922.00 L 942.74 927.00 L 946.00 930.26 L 987.00 930.26 Z M 450.00 936.03 L 441.82 936.00 L 450.00 936.03 Z M 546.00 936.03 L 532.00 936.00 L 546.00 936.03 Z M 577.00 936.14 L 565.00 936.00 L 577.00 936.14 Z M 793.00 989.10 L 793.00 982.77 L 793.00 989.10 Z" fill="url(#dark-campaign-accent)" fill-rule="evenodd"/>
  </symbol>
  <symbol id="directive-route-mission" viewBox="0 0 1254 1254">
    <title>Directive Mission icon, dark variant</title>
      <defs>
        <linearGradient id="dark-mission-main" x1="0" y1="0.5" x2="1" y2="0.5" gradientTransform="rotate(21.0805 .5 .5)"><stop offset="0%" stop-color="#1a1e26"/><stop offset="20%" stop-color="#1a1e25"/><stop offset="40%" stop-color="#191d25"/><stop offset="60%" stop-color="#1a1e26"/><stop offset="80%" stop-color="#1a1e25"/><stop offset="100%" stop-color="#1a1e25"/></linearGradient>
        <linearGradient id="dark-mission-accent" x1="0" y1="0.5" x2="1" y2="0.5" gradientTransform="rotate(90.6706 .5 .5)"><stop offset="0%" stop-color="#595a79"/><stop offset="20%" stop-color="#595a79"/><stop offset="40%" stop-color="#595a79"/><stop offset="60%" stop-color="#5a5b7a"/><stop offset="80%" stop-color="#5b5c7b"/><stop offset="100%" stop-color="#5a5a79"/></linearGradient>
      </defs>
      <path d="M 860.00 690.11 L 862.00 689.29 L 865.46 686.00 L 867.29 682.00 L 867.50 673.00 L 868.18 672.00 L 874.50 603.00 L 881.00 549.41 L 889.00 546.10 L 899.00 539.19 L 907.16 531.00 L 916.00 518.45 L 1054.00 497.20 L 1059.00 494.00 L 1060.40 492.00 L 1061.40 489.00 L 1061.44 485.00 L 1060.41 481.00 L 1058.32 478.00 L 1055.00 475.68 L 1052.00 474.79 L 1047.00 474.55 L 1034.00 471.93 L 1028.00 471.53 L 1015.00 468.89 L 996.00 466.54 L 990.00 464.95 L 977.00 463.54 L 964.00 460.85 L 916.00 453.56 L 907.29 441.00 L 899.00 432.70 L 892.00 427.63 L 883.00 423.54 L 881.00 421.90 L 867.43 274.00 L 866.28 271.00 L 863.00 267.64 L 857.00 265.94 L 851.00 267.65 L 847.59 271.00 L 845.87 276.00 L 845.52 286.00 L 844.81 288.00 L 841.53 330.00 L 840.78 332.00 L 839.53 352.00 L 836.71 377.00 L 836.53 386.00 L 835.90 387.00 L 835.53 397.00 L 834.75 399.00 L 834.53 408.00 L 832.76 422.00 L 823.00 426.79 L 816.00 431.63 L 808.99 438.00 L 803.83 444.00 L 799.00 451.99 L 797.00 453.52 L 791.00 453.91 L 759.00 459.92 L 698.00 472.80 L 693.00 474.87 L 690.86 477.00 L 688.77 484.00 L 694.66 504.00 L 696.80 507.00 L 699.00 508.42 L 704.00 509.45 L 713.00 508.48 L 789.00 518.22 L 797.00 518.50 L 799.50 520.00 L 805.78 530.00 L 816.00 540.26 L 823.00 545.17 L 833.00 550.16 L 838.52 602.00 L 839.79 621.00 L 841.53 632.00 L 841.76 640.00 L 842.53 642.00 L 844.81 672.00 L 845.53 673.00 L 845.72 682.00 L 846.84 685.00 L 851.00 689.20 L 855.00 690.42 L 860.00 690.11 Z M 656.00 419.08 L 661.00 416.00 L 663.20 413.00 L 664.24 410.00 L 664.20 404.00 L 662.08 399.00 L 660.00 396.86 L 657.00 394.95 L 653.00 393.93 L 555.00 393.97 L 549.00 395.84 L 545.76 399.00 L 543.82 403.00 L 543.75 410.00 L 544.78 413.00 L 548.00 417.08 L 552.00 419.18 L 656.00 419.08 Z M 599.00 476.35 L 603.00 474.22 L 606.15 471.00 L 608.19 466.00 L 608.32 463.00 L 607.13 458.00 L 605.16 455.00 L 601.00 451.75 L 598.00 450.66 L 478.00 450.62 L 473.00 452.66 L 468.77 457.00 L 467.65 460.00 L 467.64 467.00 L 468.75 470.00 L 474.00 475.24 L 477.00 476.38 L 599.00 476.35 Z M 381.00 864.14 L 400.00 860.21 L 419.00 854.25 L 438.00 846.06 L 451.00 839.09 L 466.00 829.32 L 482.00 816.26 L 494.23 804.00 L 505.24 791.00 L 516.24 775.00 L 524.20 761.00 L 535.20 735.00 L 543.02 706.00 L 545.03 694.00 L 546.47 676.00 L 551.46 652.00 L 556.45 636.00 L 560.46 626.00 L 570.45 606.00 L 587.46 581.00 L 604.33 563.00 L 617.00 551.47 L 640.00 535.46 L 666.00 522.47 L 676.00 519.10 L 679.36 516.00 L 681.13 512.00 L 681.27 508.00 L 676.18 490.00 L 674.22 486.00 L 672.00 483.94 L 665.00 481.96 L 647.00 487.93 L 625.00 497.66 L 603.00 509.97 L 586.00 521.90 L 574.00 531.84 L 554.68 551.00 L 543.89 564.00 L 526.79 590.00 L 517.77 608.00 L 512.86 620.00 L 507.89 635.00 L 502.94 654.00 L 499.87 672.00 L 499.52 681.00 L 497.53 694.00 L 493.53 710.00 L 487.54 727.00 L 477.55 747.00 L 472.53 755.00 L 462.53 768.00 L 445.00 785.50 L 427.00 798.50 L 406.00 809.50 L 396.00 813.50 L 382.00 817.52 L 370.00 819.83 L 365.57 824.00 L 364.52 828.00 L 364.70 858.00 L 365.58 860.00 L 370.00 864.11 L 381.00 864.14 Z M 742.00 745.00 L 747.00 742.20 L 750.18 738.00 L 751.23 735.00 L 751.25 730.00 L 749.25 725.00 L 746.00 721.62 L 743.00 719.80 L 739.00 718.89 L 605.00 718.94 L 601.00 719.99 L 596.66 723.00 L 593.95 727.00 L 592.99 732.00 L 593.69 737.00 L 596.94 742.00 L 600.00 744.13 L 604.00 745.31 L 742.00 745.00 Z M 766.00 802.19 L 769.00 801.00 L 773.13 797.00 L 775.11 792.00 L 775.08 788.00 L 773.17 783.00 L 770.28 780.00 L 767.00 777.77 L 764.00 776.90 L 662.00 776.97 L 655.00 780.00 L 652.99 782.00 L 650.87 786.00 L 650.78 793.00 L 651.79 796.00 L 655.00 800.03 L 659.00 802.08 L 766.00 802.19 Z M 243.00 905.14 L 258.00 902.11 L 267.00 898.21 L 275.00 893.26 L 282.28 887.00 L 289.08 879.00 L 293.36 872.00 L 296.00 865.43 L 341.00 865.28 L 346.00 863.18 L 348.16 861.00 L 350.10 856.00 L 350.07 830.00 L 348.39 825.00 L 345.00 821.62 L 342.00 820.54 L 297.00 820.50 L 295.48 819.00 L 294.02 815.00 L 289.19 807.00 L 280.00 796.86 L 275.00 792.83 L 266.00 787.60 L 252.00 782.72 L 246.00 781.70 L 236.00 781.51 L 224.00 782.75 L 212.00 786.75 L 200.00 793.76 L 192.76 800.00 L 186.91 807.00 L 181.57 816.00 L 177.95 825.00 L 175.70 836.00 L 175.58 849.00 L 176.75 857.00 L 178.81 864.00 L 182.76 873.00 L 188.80 882.00 L 197.00 890.40 L 202.00 894.30 L 213.00 900.22 L 222.00 903.30 L 232.00 905.11 L 243.00 905.14 Z" fill="url(#dark-mission-main)" fill-rule="evenodd"/>
      <path d="M 656.00 419.08 L 661.00 416.00 L 663.20 413.00 L 664.24 410.00 L 664.20 404.00 L 662.08 399.00 L 660.00 396.86 L 659.00 396.76 L 657.00 394.95 L 654.00 394.71 L 653.00 393.93 L 555.00 393.97 L 554.00 394.72 L 551.00 394.84 L 549.00 395.84 L 545.76 399.00 L 543.82 403.00 L 543.75 410.00 L 544.78 413.00 L 548.00 417.08 L 552.00 419.18 L 656.00 419.08 Z M 864.00 513.24 L 865.00 512.21 L 867.00 512.29 L 870.00 510.19 L 873.00 509.29 L 880.29 502.00 L 880.19 501.00 L 882.08 499.00 L 882.21 497.00 L 883.29 496.00 L 883.22 494.00 L 884.25 493.00 L 884.29 479.00 L 883.21 478.00 L 883.29 476.00 L 880.21 471.00 L 880.29 470.00 L 878.20 468.00 L 878.23 467.00 L 872.00 461.72 L 871.00 461.76 L 869.00 459.99 L 867.00 459.76 L 866.00 458.71 L 864.00 458.78 L 863.00 457.87 L 851.00 457.80 L 850.00 458.77 L 848.00 458.71 L 847.00 459.75 L 846.00 459.74 L 845.00 460.76 L 840.00 462.87 L 835.72 467.00 L 835.80 468.00 L 831.81 473.00 L 831.78 475.00 L 829.71 478.00 L 829.80 482.00 L 828.73 483.00 L 828.77 489.00 L 829.75 490.00 L 829.77 494.00 L 830.78 495.00 L 830.84 497.00 L 832.79 500.00 L 832.72 501.00 L 835.81 504.00 L 835.74 505.00 L 837.00 506.27 L 838.00 507.21 L 839.00 507.18 L 841.00 509.27 L 842.00 509.18 L 847.00 512.28 L 849.00 512.21 L 850.00 513.27 L 864.00 513.24 Z M 975.00 493.28 L 976.00 492.22 L 977.00 492.29 L 979.28 490.00 L 979.23 488.00 L 980.27 487.00 L 980.28 486.00 L 979.26 483.00 L 978.22 482.00 L 978.28 481.00 L 975.00 478.71 L 918.00 478.77 L 913.72 483.00 L 913.72 489.00 L 914.79 490.00 L 915.00 491.27 L 918.00 493.27 L 975.00 493.28 Z M 766.00 802.19 L 767.00 801.26 L 769.00 801.00 L 773.13 797.00 L 775.11 792.00 L 775.08 788.00 L 773.17 783.00 L 770.28 780.00 L 767.00 777.77 L 765.00 777.70 L 764.00 776.90 L 662.00 776.97 L 655.00 780.00 L 652.99 782.00 L 650.87 786.00 L 650.78 793.00 L 651.79 796.00 L 655.00 800.03 L 659.00 802.08 L 766.00 802.19 Z" fill="url(#dark-mission-accent)" fill-rule="evenodd"/>
  </symbol>
  <symbol id="directive-route-crew" viewBox="0 0 1254 1254">
    <title>Directive Crew icon, dark variant</title>
      <defs>
        <linearGradient id="dark-crew-main" x1="0" y1="0.5" x2="1" y2="0.5" gradientTransform="rotate(-45.7959 .5 .5)"><stop offset="0%" stop-color="#242831"/><stop offset="20%" stop-color="#232730"/><stop offset="40%" stop-color="#232830"/><stop offset="60%" stop-color="#242831"/><stop offset="80%" stop-color="#242831"/><stop offset="100%" stop-color="#242831"/></linearGradient>
        <linearGradient id="dark-crew-accent" x1="0" y1="0.5" x2="1" y2="0.5" gradientTransform="rotate(-78.0329 .5 .5)"><stop offset="0%" stop-color="#4a4d6f"/><stop offset="20%" stop-color="#4c5072"/><stop offset="40%" stop-color="#4d5163"/><stop offset="60%" stop-color="#4d5159"/><stop offset="80%" stop-color="#4d5159"/><stop offset="100%" stop-color="#4d5159"/></linearGradient>
      </defs>
      <path d="M 636.00 520.04 L 650.00 517.14 L 666.00 510.21 L 678.00 502.08 L 688.19 492.00 L 697.21 479.00 L 704.11 463.00 L 707.09 449.00 L 707.24 430.00 L 704.20 414.00 L 697.32 398.00 L 689.18 386.00 L 678.00 374.73 L 665.00 365.97 L 653.00 360.77 L 642.00 357.86 L 635.00 356.89 L 621.00 356.75 L 604.00 359.97 L 590.00 365.67 L 576.00 374.81 L 564.81 386.00 L 556.71 398.00 L 549.83 414.00 L 546.81 429.00 L 546.87 449.00 L 550.69 465.00 L 556.84 479.00 L 565.95 492.00 L 576.00 502.16 L 591.00 512.02 L 604.00 517.16 L 618.00 520.14 L 636.00 520.04 Z M 379.00 549.13 L 391.00 546.14 L 403.00 540.25 L 412.00 533.40 L 422.05 522.00 L 428.14 511.00 L 432.09 498.00 L 433.30 487.00 L 432.25 473.00 L 429.06 461.00 L 424.17 451.00 L 416.01 440.00 L 407.00 431.91 L 394.00 424.70 L 385.00 421.74 L 371.00 419.90 L 358.00 420.85 L 347.00 423.90 L 335.00 429.80 L 326.00 436.70 L 317.71 446.00 L 310.70 458.00 L 306.88 469.00 L 305.00 482.00 L 305.86 496.00 L 308.73 507.00 L 314.92 520.00 L 321.89 529.00 L 332.00 538.18 L 345.00 545.20 L 354.00 548.07 L 362.00 549.34 L 379.00 549.13 Z M 895.00 549.00 L 909.00 545.01 L 920.00 539.18 L 928.00 532.45 L 937.27 522.00 L 944.19 509.00 L 947.06 499.00 L 948.39 488.00 L 948.19 477.00 L 947.22 471.00 L 943.04 458.00 L 936.13 446.00 L 929.00 437.89 L 919.00 429.88 L 909.00 424.72 L 896.00 420.82 L 883.00 419.86 L 873.00 420.89 L 860.00 424.80 L 849.00 430.69 L 839.00 439.00 L 831.71 448.00 L 825.74 459.00 L 821.89 471.00 L 820.63 482.00 L 820.66 490.00 L 821.76 498.00 L 825.88 511.00 L 831.76 522.00 L 839.00 530.41 L 849.00 539.16 L 860.00 545.05 L 869.00 548.03 L 877.00 549.31 L 895.00 549.00 Z M 775.00 676.38 L 775.37 600.00 L 774.10 590.00 L 771.03 579.00 L 764.12 565.00 L 759.17 558.00 L 753.00 551.64 L 746.00 545.71 L 740.00 541.84 L 726.00 535.82 L 718.00 533.89 L 709.00 532.91 L 686.00 532.96 L 683.00 533.79 L 680.62 537.00 L 680.56 547.00 L 679.57 552.00 L 674.56 563.00 L 668.00 570.54 L 661.00 575.54 L 649.00 579.52 L 605.00 579.54 L 598.00 577.54 L 592.00 574.54 L 588.41 572.00 L 580.43 564.00 L 576.41 557.00 L 574.44 551.00 L 573.46 545.00 L 573.30 536.00 L 571.00 533.68 L 568.00 532.97 L 545.00 532.92 L 536.00 533.84 L 525.00 536.89 L 518.00 539.81 L 511.00 543.81 L 503.00 549.74 L 495.89 557.00 L 489.99 565.00 L 482.75 580.00 L 479.84 591.00 L 478.70 600.00 L 479.00 676.32 L 511.00 674.10 L 512.00 673.48 L 564.00 670.48 L 595.00 670.21 L 597.00 669.48 L 605.00 670.01 L 651.00 669.47 L 730.00 672.47 L 732.00 673.22 L 743.00 673.48 L 775.00 676.38 Z M 250.00 719.10 L 261.00 715.46 L 292.00 707.47 L 353.00 694.47 L 411.00 684.48 L 451.00 679.34 L 451.30 586.00 L 450.05 581.00 L 447.23 576.00 L 444.00 572.86 L 438.00 569.78 L 433.00 568.86 L 421.00 568.81 L 417.88 571.00 L 416.57 577.00 L 413.54 583.00 L 408.00 589.50 L 404.00 592.54 L 398.00 595.54 L 390.00 597.52 L 349.00 597.53 L 341.00 595.53 L 334.00 591.54 L 326.42 584.00 L 323.42 579.00 L 321.25 571.00 L 318.00 568.99 L 301.00 568.90 L 293.00 569.87 L 283.00 572.79 L 272.00 578.89 L 263.77 586.00 L 256.84 595.00 L 252.82 603.00 L 249.79 613.00 L 248.66 622.00 L 248.57 718.00 L 249.00 719.24 L 250.00 719.10 Z M 1005.00 719.05 L 1005.26 623.00 L 1004.23 614.00 L 1001.25 604.00 L 996.15 594.00 L 992.39 589.00 L 983.00 579.91 L 973.00 573.86 L 960.00 569.74 L 952.00 568.86 L 935.00 568.97 L 932.64 571.00 L 930.56 579.00 L 927.58 584.00 L 920.00 591.53 L 913.00 595.53 L 905.00 597.52 L 864.00 597.53 L 856.00 595.54 L 850.00 592.53 L 846.11 589.00 L 840.45 583.00 L 837.43 577.00 L 836.17 571.00 L 833.00 568.95 L 820.00 568.90 L 816.00 569.77 L 810.00 572.77 L 805.97 577.00 L 803.79 581.00 L 802.65 586.00 L 803.00 679.34 L 857.00 686.47 L 908.00 695.48 L 958.00 706.47 L 1005.00 719.05 Z M 864.00 856.32 L 868.30 854.00 L 871.06 849.00 L 883.46 800.00 L 900.18 741.00 L 900.38 735.00 L 899.25 732.00 L 894.00 727.69 L 854.00 720.87 L 819.00 715.95 L 783.00 711.84 L 774.00 711.55 L 773.00 710.89 L 750.00 709.54 L 748.00 708.81 L 675.00 704.99 L 589.00 704.74 L 508.00 708.80 L 472.00 711.86 L 462.00 713.54 L 437.00 715.88 L 364.00 726.83 L 358.00 728.67 L 353.69 734.00 L 353.70 741.00 L 371.52 805.00 L 382.94 850.00 L 384.62 853.00 L 389.00 856.17 L 397.00 856.34 L 400.00 855.46 L 409.00 855.17 L 410.00 854.46 L 439.00 852.30 L 442.00 851.46 L 475.00 849.31 L 480.00 847.25 L 482.31 845.00 L 484.35 841.00 L 484.33 833.00 L 466.45 780.00 L 466.47 775.00 L 468.48 768.00 L 474.19 761.00 L 477.00 758.44 L 481.00 756.45 L 484.00 755.44 L 494.00 754.46 L 561.00 750.47 L 584.00 750.13 L 586.00 749.46 L 645.00 749.37 L 716.00 751.46 L 717.00 752.09 L 732.00 752.46 L 770.00 755.44 L 775.00 757.40 L 777.64 759.00 L 784.54 766.00 L 787.54 773.00 L 787.54 781.00 L 769.77 833.00 L 769.67 841.00 L 771.72 845.00 L 776.00 848.25 L 779.00 849.33 L 789.00 849.47 L 790.00 850.13 L 801.00 850.46 L 803.00 851.24 L 854.00 855.46 L 857.00 856.35 L 864.00 856.32 Z M 248.00 876.08 L 302.00 867.46 L 353.00 861.41 L 357.00 859.03 L 359.00 856.00 L 359.14 849.00 L 357.44 845.00 L 350.12 816.00 L 343.44 794.00 L 341.20 783.00 L 337.43 772.00 L 330.18 743.00 L 328.20 739.00 L 325.00 736.63 L 319.00 735.84 L 285.00 743.86 L 237.00 756.86 L 218.00 762.85 L 210.00 766.82 L 203.00 771.81 L 195.74 779.00 L 189.72 788.00 L 185.79 797.00 L 183.89 804.00 L 182.67 820.00 L 183.84 830.00 L 185.67 837.00 L 191.70 850.00 L 196.71 857.00 L 203.00 863.34 L 211.00 869.20 L 217.00 872.31 L 222.00 874.20 L 232.00 876.36 L 248.00 876.08 Z M 1024.00 876.05 L 1037.00 872.29 L 1043.00 869.20 L 1050.00 864.11 L 1059.36 854.00 L 1066.28 842.00 L 1070.25 829.00 L 1071.29 813.00 L 1070.46 811.00 L 1070.17 805.00 L 1067.23 795.00 L 1060.19 782.00 L 1055.27 776.00 L 1048.00 769.70 L 1040.00 764.75 L 1033.00 761.83 L 992.00 749.87 L 952.00 739.80 L 934.00 735.78 L 928.00 736.97 L 924.75 740.00 L 923.84 742.00 L 916.55 771.00 L 895.87 845.00 L 894.56 852.00 L 894.83 856.00 L 895.85 858.00 L 900.00 861.21 L 905.00 862.16 L 951.00 867.47 L 1000.00 875.28 L 1005.00 875.46 L 1007.00 876.34 L 1024.00 876.05 Z M 567.00 824.05 L 574.00 822.14 L 581.20 816.00 L 584.06 810.00 L 584.21 800.00 L 581.03 793.00 L 575.00 787.85 L 570.00 785.92 L 561.00 785.87 L 553.00 789.78 L 548.77 795.00 L 546.79 800.00 L 546.88 810.00 L 549.76 816.00 L 555.00 821.06 L 560.00 823.20 L 567.00 824.05 Z M 695.00 819.08 L 700.00 817.08 L 704.00 813.00 L 706.09 808.00 L 706.29 803.00 L 705.03 798.00 L 702.30 794.00 L 699.00 791.68 L 694.00 789.88 L 614.00 789.86 L 609.00 791.70 L 606.00 793.75 L 602.87 798.00 L 601.86 801.00 L 601.78 808.00 L 603.77 813.00 L 608.00 817.14 L 613.00 819.13 L 695.00 819.08 Z" fill="url(#dark-crew-main)" fill-rule="evenodd"/>
      <path d="M 479.00 634.23 L 479.00 617.83 L 479.00 634.23 Z M 479.00 648.21 L 479.00 636.77 L 479.00 648.21 Z M 479.00 674.25 L 479.00 664.82 L 479.00 674.25 Z M 567.00 824.05 L 568.00 823.30 L 571.00 823.23 L 572.00 822.31 L 574.00 822.14 L 576.00 820.31 L 577.00 820.21 L 581.20 816.00 L 584.06 810.00 L 584.21 800.00 L 581.03 793.00 L 578.00 789.86 L 575.00 787.85 L 570.00 785.92 L 561.00 785.87 L 560.00 786.76 L 558.00 786.80 L 554.00 789.76 L 553.00 789.78 L 548.77 795.00 L 548.77 796.00 L 547.82 797.00 L 547.74 799.00 L 546.79 800.00 L 546.92 804.00 L 547.71 805.00 L 546.96 806.00 L 546.88 810.00 L 548.71 813.00 L 548.69 814.00 L 549.82 815.00 L 549.77 816.00 L 555.00 821.06 L 559.00 822.31 L 560.00 823.20 L 567.00 824.05 Z M 695.00 819.07 L 700.00 817.07 L 704.00 813.00 L 706.09 808.00 L 706.29 803.00 L 705.03 798.00 L 702.29 794.00 L 699.00 791.69 L 694.00 789.88 L 614.00 789.86 L 613.00 790.70 L 611.00 790.74 L 609.00 791.70 L 606.00 793.75 L 604.80 795.00 L 604.88 796.00 L 602.88 798.00 L 602.85 800.00 L 601.86 801.00 L 601.78 808.00 L 601.95 809.00 L 603.00 809.04 L 603.70 810.00 L 602.71 811.00 L 604.72 812.00 L 603.77 813.00 L 608.00 817.14 L 613.00 819.13 L 695.00 819.07 Z M 551.73 793.00 L 551.00 793.70 L 550.04 793.00 L 551.00 792.21 L 551.73 793.00 Z M 704.00 813.00 L 703.00 813.75 L 702.29 813.00 L 703.00 812.30 L 704.00 813.00 Z" fill="url(#dark-crew-accent)" fill-rule="evenodd"/>
  </symbol>
  <symbol id="directive-route-ship" viewBox="0 0 1254 1254">
    <title>Directive Ship icon, dark variant</title>
      <defs>
        <linearGradient id="dark-ship-main" x1="0" y1="0.5" x2="1" y2="0.5" gradientTransform="rotate(-159.6697 .5 .5)"><stop offset="0%" stop-color="#1a1e29"/><stop offset="20%" stop-color="#1a1e29"/><stop offset="40%" stop-color="#1a1e29"/><stop offset="60%" stop-color="#1a1e29"/><stop offset="80%" stop-color="#1a1f29"/><stop offset="100%" stop-color="#1a1e29"/></linearGradient>
        <linearGradient id="dark-ship-accent" x1="0" y1="0.5" x2="1" y2="0.5" gradientTransform="rotate(0.4497 .5 .5)"><stop offset="0%" stop-color="#5f6177"/><stop offset="20%" stop-color="#5f6177"/><stop offset="40%" stop-color="#616386"/><stop offset="60%" stop-color="#5f6183"/><stop offset="80%" stop-color="#5f6181"/><stop offset="100%" stop-color="#5f6181"/></linearGradient>
      </defs>
      <path d="M 710.00 514.23 L 727.00 498.49 L 732.00 496.49 L 836.00 496.35 L 840.06 490.00 L 847.30 475.00 L 858.31 445.00 L 864.20 420.00 L 867.30 391.00 L 867.39 373.00 L 866.31 356.00 L 862.30 331.00 L 853.26 300.00 L 847.29 285.00 L 840.43 271.00 L 828.11 250.00 L 815.13 232.00 L 800.16 215.00 L 782.00 197.91 L 762.00 182.73 L 741.00 169.79 L 716.00 157.79 L 693.00 149.78 L 673.00 144.83 L 653.00 141.76 L 631.00 140.53 L 610.00 140.87 L 581.00 144.77 L 557.00 150.73 L 537.00 157.84 L 512.00 169.72 L 495.00 179.86 L 477.00 192.91 L 461.00 206.77 L 443.69 225.00 L 428.90 244.00 L 416.91 263.00 L 405.68 285.00 L 397.90 305.00 L 391.73 326.00 L 387.80 345.00 L 385.62 365.00 L 385.74 397.00 L 387.74 415.00 L 391.86 435.00 L 397.74 455.00 L 404.71 473.00 L 415.69 495.00 L 417.00 496.33 L 419.00 496.36 L 521.00 496.50 L 526.70 499.00 L 544.00 514.41 L 710.00 514.23 Z M 436.00 995.17 L 550.00 902.50 L 563.00 895.50 L 572.00 892.48 L 581.00 890.50 L 589.00 890.31 L 673.00 890.50 L 689.00 894.49 L 701.00 900.50 L 708.00 905.47 L 811.00 989.21 L 818.00 994.42 L 819.05 994.00 L 819.11 906.00 L 818.31 904.00 L 741.44 824.00 L 737.45 817.00 L 733.46 806.00 L 729.00 759.00 L 728.06 753.00 L 726.17 748.00 L 723.29 743.00 L 717.00 735.95 L 708.00 729.96 L 694.45 723.00 L 688.50 642.00 L 691.48 629.00 L 698.49 617.00 L 702.00 613.48 L 710.00 607.46 L 726.00 600.39 L 747.00 589.22 L 761.00 580.20 L 778.00 567.19 L 796.38 550.00 L 810.14 535.00 L 825.23 515.00 L 825.00 513.52 L 736.00 513.58 L 730.00 517.99 L 719.00 528.53 L 712.00 531.53 L 635.00 531.69 L 634.52 644.00 L 631.00 648.58 L 627.00 649.78 L 622.00 648.59 L 618.46 644.00 L 618.00 531.82 L 540.00 531.53 L 534.00 528.55 L 518.00 513.62 L 427.56 514.00 L 435.75 526.00 L 450.92 544.00 L 465.00 558.21 L 479.00 570.26 L 492.00 580.00 L 506.00 589.13 L 531.00 602.25 L 542.00 606.46 L 551.00 612.47 L 557.52 620.00 L 562.52 629.00 L 564.52 637.00 L 564.88 643.00 L 562.51 687.00 L 561.75 690.00 L 559.57 723.00 L 538.00 734.97 L 531.84 741.00 L 528.00 747.00 L 524.81 756.00 L 520.53 802.00 L 519.53 808.00 L 516.54 816.00 L 512.54 823.00 L 503.53 833.00 L 434.65 905.00 L 434.57 995.00 L 436.00 995.17 Z M 413.00 758.05 L 414.45 757.00 L 414.41 703.00 L 413.06 696.00 L 410.06 689.00 L 407.36 685.00 L 401.00 678.70 L 395.00 674.90 L 389.00 672.72 L 383.00 671.67 L 375.00 671.98 L 368.00 673.78 L 362.00 676.73 L 352.94 685.00 L 348.84 692.00 L 346.76 698.00 L 345.76 705.00 L 345.72 757.00 L 347.00 758.21 L 413.00 758.05 Z M 906.00 758.21 L 907.02 757.00 L 906.48 756.00 L 907.00 704.00 L 905.19 695.00 L 901.23 687.00 L 896.00 680.82 L 891.00 676.88 L 882.00 672.81 L 877.00 671.75 L 868.00 671.85 L 863.00 672.97 L 856.00 675.86 L 849.00 680.99 L 843.92 687.00 L 840.71 693.00 L 838.75 699.00 L 837.99 721.00 L 838.52 756.00 L 837.96 757.00 L 839.00 758.08 L 906.00 758.21 Z M 384.00 1114.11 L 394.00 1111.38 L 403.00 1105.46 L 410.21 1097.00 L 413.25 1090.00 L 414.33 1085.00 L 414.48 776.00 L 414.00 774.92 L 413.00 774.86 L 347.00 774.83 L 345.73 776.00 L 345.87 1083.00 L 346.72 1088.00 L 349.72 1096.00 L 352.83 1101.00 L 359.00 1107.12 L 364.00 1110.34 L 371.00 1113.16 L 378.00 1114.28 L 384.00 1114.11 Z M 876.00 1114.08 L 887.00 1111.29 L 896.00 1105.20 L 902.39 1097.00 L 905.14 1091.00 L 906.37 1086.00 L 906.48 777.00 L 907.04 776.00 L 906.00 774.81 L 839.00 774.75 L 837.87 776.00 L 838.51 782.00 L 837.97 835.00 L 838.51 881.00 L 837.93 890.00 L 838.68 1087.00 L 839.76 1091.00 L 843.72 1099.00 L 847.86 1104.00 L 853.00 1108.29 L 863.00 1113.08 L 869.00 1114.20 L 876.00 1114.08 Z" fill="url(#dark-ship-main)" fill-rule="evenodd"/>
      <path d="M 627.00 305.11 L 628.00 304.17 L 631.00 304.26 L 632.00 303.20 L 633.00 303.27 L 636.27 300.00 L 636.18 299.00 L 638.20 296.00 L 638.27 206.00 L 637.19 205.00 L 637.15 203.00 L 632.00 197.73 L 630.00 197.86 L 629.00 196.73 L 623.00 196.76 L 618.00 199.72 L 614.72 205.00 L 614.74 296.00 L 615.81 297.00 L 615.81 299.00 L 620.00 303.27 L 621.00 303.18 L 622.00 304.28 L 625.00 304.16 L 626.00 305.16 L 627.00 305.11 Z M 802.00 217.03 L 791.00 205.93 L 802.00 217.03 Z M 630.00 391.20 L 631.00 390.19 L 635.00 390.14 L 638.00 388.17 L 640.00 388.10 L 642.00 386.17 L 643.00 386.28 L 650.25 379.00 L 650.16 378.00 L 652.27 376.00 L 652.17 375.00 L 654.21 372.00 L 654.18 370.00 L 655.28 368.00 L 655.18 363.00 L 656.04 362.00 L 656.16 360.00 L 655.17 359.00 L 655.28 354.00 L 654.17 353.00 L 654.26 351.00 L 653.15 350.00 L 653.18 348.00 L 650.18 344.00 L 650.13 343.00 L 644.00 336.73 L 637.00 332.73 L 635.00 332.81 L 634.00 331.73 L 631.00 331.84 L 630.00 330.74 L 622.00 330.79 L 621.00 331.84 L 618.00 331.79 L 615.00 333.83 L 613.00 333.80 L 611.00 335.86 L 610.00 335.73 L 607.00 338.84 L 604.95 340.00 L 604.84 341.00 L 601.74 344.00 L 601.86 345.00 L 599.85 347.00 L 599.86 349.00 L 597.89 352.00 L 597.84 355.00 L 596.83 356.00 L 596.75 365.00 L 597.82 367.00 L 597.73 370.00 L 598.82 371.00 L 598.80 373.00 L 600.80 376.00 L 600.77 377.00 L 608.00 385.26 L 609.00 385.16 L 611.00 387.27 L 612.00 387.17 L 615.00 389.27 L 617.00 389.17 L 618.00 390.27 L 621.00 390.17 L 622.00 391.23 L 630.00 391.20 Z M 867.00 394.11 L 867.00 387.96 L 867.00 394.11 Z M 560.00 532.05 L 543.83 532.00 L 560.00 532.05 Z M 579.00 532.02 L 568.95 532.00 L 579.00 532.02 Z M 646.00 532.08 L 634.82 532.00 L 646.00 532.08 Z M 675.00 532.04 L 663.95 532.00 L 675.00 532.04 Z M 630.00 802.28 L 635.25 799.00 L 635.17 798.00 L 637.28 796.00 L 637.17 794.00 L 638.26 793.00 L 638.27 705.00 L 637.18 704.00 L 637.28 702.00 L 634.00 697.73 L 631.00 696.84 L 630.00 695.74 L 622.00 695.81 L 621.00 696.79 L 620.00 696.80 L 616.76 700.00 L 615.84 703.00 L 614.75 704.00 L 614.72 794.00 L 616.82 797.00 L 616.72 798.00 L 619.00 800.28 L 620.00 800.17 L 623.00 802.27 L 630.00 802.28 Z M 352.00 758.08 L 347.00 757.79 L 345.77 757.00 L 347.00 758.21 L 352.00 758.08 Z M 901.00 758.10 L 893.88 758.00 L 901.00 758.10 Z M 363.00 775.16 L 347.90 775.00 L 363.00 775.16 Z M 413.00 775.14 L 368.88 775.00 L 413.00 775.14 Z M 838.00 776.13 L 840.00 775.19 L 905.14 775.00 L 839.00 774.76 L 838.00 776.13 Z M 346.00 853.23 L 346.00 846.76 L 346.00 853.23 Z M 657.00 890.01 L 628.99 890.00 L 657.00 890.01 Z M 346.00 973.23 L 346.00 962.77 L 346.00 973.23 Z M 346.00 1033.23 L 346.00 1026.77 L 346.00 1033.23 Z" fill="url(#dark-ship-accent)" fill-rule="evenodd"/>
  </symbol>
  <symbol id="directive-route-log" viewBox="0 0 1254 1254">
    <title>Directive Log icon, dark variant</title>
      <defs>
        <linearGradient id="dark-log-main" x1="0" y1="0.5" x2="1" y2="0.5" gradientTransform="rotate(10.4369 .5 .5)"><stop offset="0%" stop-color="#262d31"/><stop offset="20%" stop-color="#262d32"/><stop offset="40%" stop-color="#262d32"/><stop offset="60%" stop-color="#262e32"/><stop offset="80%" stop-color="#272e32"/><stop offset="100%" stop-color="#262e32"/></linearGradient>
        <linearGradient id="dark-log-accent" x1="0" y1="0.5" x2="1" y2="0.5" gradientTransform="rotate(49.8012 .5 .5)"><stop offset="0%" stop-color="#525474"/><stop offset="20%" stop-color="#525475"/><stop offset="40%" stop-color="#525372"/><stop offset="60%" stop-color="#525473"/><stop offset="80%" stop-color="#535676"/><stop offset="100%" stop-color="#535676"/></linearGradient>
      </defs>
      <path d="M 375.00 467.42 L 375.22 273.00 L 371.04 262.00 L 368.27 258.00 L 362.00 251.75 L 355.00 247.76 L 349.00 245.82 L 334.00 245.80 L 324.00 249.69 L 316.94 255.00 L 312.92 260.00 L 309.67 266.00 L 307.81 271.00 L 306.81 277.00 L 306.80 467.00 L 375.00 467.42 Z M 516.00 438.23 L 517.24 437.00 L 517.23 324.00 L 468.00 323.80 L 454.00 327.78 L 443.00 333.76 L 433.87 342.00 L 427.73 350.00 L 422.81 360.00 L 419.78 370.00 L 418.80 381.00 L 419.87 392.00 L 422.85 402.00 L 428.74 413.00 L 431.69 417.00 L 441.00 426.31 L 451.00 432.40 L 461.00 436.30 L 473.00 438.19 L 516.00 438.23 Z M 936.00 438.01 L 945.00 436.26 L 955.00 432.31 L 962.00 428.17 L 970.30 421.00 L 976.13 414.00 L 981.17 405.00 L 984.26 397.00 L 986.32 385.00 L 986.28 376.00 L 985.16 368.00 L 982.18 359.00 L 977.10 349.00 L 972.35 343.00 L 964.00 334.97 L 952.00 327.91 L 943.00 324.79 L 933.00 323.57 L 532.57 324.00 L 533.00 438.20 L 936.00 438.01 Z M 375.00 614.28 L 375.28 484.00 L 308.00 483.74 L 306.95 485.00 L 307.54 486.00 L 307.54 496.00 L 307.54 579.00 L 306.99 582.00 L 307.54 593.00 L 306.95 602.00 L 307.55 612.00 L 307.00 613.00 L 308.00 614.27 L 375.00 614.28 Z M 516.00 614.31 L 517.21 613.00 L 517.26 518.00 L 516.00 516.97 L 515.00 517.54 L 464.00 517.69 L 453.00 520.70 L 442.00 526.80 L 433.77 535.00 L 429.70 541.00 L 425.91 549.00 L 423.88 557.00 L 423.63 572.00 L 424.70 578.00 L 427.97 587.00 L 432.79 595.00 L 441.00 603.36 L 445.00 606.28 L 455.00 611.28 L 461.00 613.12 L 469.00 614.24 L 516.00 614.31 Z M 810.00 614.13 L 820.00 612.11 L 827.00 609.33 L 834.00 605.14 L 840.40 599.00 L 845.30 593.00 L 849.19 586.00 L 852.13 577.00 L 853.18 570.00 L 853.26 562.00 L 852.21 555.00 L 850.17 548.00 L 846.30 540.00 L 841.18 533.00 L 837.00 528.88 L 830.00 523.88 L 822.00 519.94 L 814.00 517.76 L 809.00 517.54 L 532.51 518.00 L 533.00 614.28 L 810.00 614.13 Z M 375.00 750.40 L 375.46 633.00 L 376.04 632.00 L 375.00 630.57 L 308.00 630.58 L 307.00 644.00 L 307.54 728.00 L 306.99 737.00 L 307.54 742.00 L 306.97 747.00 L 307.54 748.00 L 306.97 750.00 L 375.00 750.40 Z M 517.00 762.16 L 517.20 685.00 L 516.00 683.98 L 515.00 684.57 L 455.00 684.83 L 448.00 686.90 L 442.00 689.92 L 436.00 694.71 L 429.72 702.00 L 425.79 710.00 L 423.76 717.00 L 423.81 730.00 L 424.56 731.00 L 424.89 735.00 L 428.87 744.00 L 431.65 748.00 L 440.00 756.13 L 448.00 760.24 L 455.00 762.27 L 517.00 762.16 Z M 537.00 763.00 L 538.00 762.45 L 692.00 762.43 L 702.00 761.08 L 707.00 759.04 L 713.00 755.26 L 720.27 748.00 L 724.06 742.00 L 727.19 734.00 L 728.14 729.00 L 728.28 720.00 L 727.02 713.00 L 723.17 704.00 L 716.00 694.85 L 708.00 688.98 L 697.00 684.82 L 533.00 684.55 L 532.52 762.00 L 533.00 763.07 L 535.00 762.45 L 537.00 763.00 Z M 446.00 929.44 L 441.44 908.00 L 441.46 889.00 L 442.46 882.00 L 445.03 873.00 L 411.00 872.56 L 401.00 869.57 L 391.00 863.56 L 385.42 858.00 L 382.41 854.00 L 378.42 846.00 L 376.42 840.00 L 375.45 832.00 L 375.48 768.00 L 374.00 766.99 L 373.00 767.54 L 366.00 766.92 L 356.00 767.53 L 324.00 766.98 L 311.00 767.53 L 310.00 767.00 L 309.00 767.54 L 308.00 766.89 L 306.90 768.00 L 307.56 769.00 L 306.99 825.00 L 308.73 849.00 L 311.81 861.00 L 315.93 872.00 L 321.87 883.00 L 328.72 893.00 L 336.00 901.03 L 344.00 908.23 L 351.00 913.24 L 363.00 920.00 L 376.00 925.03 L 384.00 927.20 L 398.00 929.27 L 446.00 929.44 Z M 557.00 983.15 L 567.00 981.09 L 576.00 978.18 L 590.00 971.05 L 605.00 959.02 L 614.25 948.00 L 622.35 934.00 L 627.11 921.00 L 630.10 903.00 L 629.19 885.00 L 624.30 867.00 L 617.24 853.00 L 606.33 839.00 L 592.00 826.86 L 577.00 818.94 L 564.00 814.71 L 548.00 812.64 L 531.00 813.70 L 516.00 817.75 L 503.00 823.81 L 489.00 833.90 L 476.99 847.00 L 467.67 863.00 L 461.99 880.00 L 459.95 895.00 L 460.87 911.00 L 464.92 927.00 L 470.75 940.00 L 479.74 953.00 L 493.00 966.11 L 507.00 975.09 L 523.00 981.13 L 535.00 983.26 L 557.00 983.15 Z" fill="url(#dark-log-main)" fill-rule="evenodd"/>
      <path d="M 307.00 343.13 L 307.00 326.84 L 307.00 343.13 Z M 307.00 362.10 L 307.00 353.87 L 307.00 362.10 Z M 307.00 382.08 L 307.00 363.87 L 307.00 382.08 Z M 821.00 395.15 L 824.00 393.26 L 825.00 393.27 L 830.24 388.00 L 830.24 386.00 L 831.27 385.00 L 831.27 377.00 L 830.26 376.00 L 830.29 374.00 L 829.07 372.00 L 824.00 367.71 L 818.00 365.81 L 816.00 365.92 L 815.00 366.77 L 812.00 366.75 L 811.00 367.75 L 810.00 367.71 L 808.00 369.76 L 807.00 369.89 L 806.76 371.00 L 804.71 373.00 L 804.74 374.00 L 803.72 375.00 L 803.73 377.00 L 802.80 378.00 L 802.74 384.00 L 803.76 385.00 L 803.71 387.00 L 804.76 388.00 L 804.79 389.00 L 809.00 393.24 L 810.00 393.27 L 811.00 394.27 L 813.00 394.25 L 814.00 395.28 L 821.00 395.15 Z M 930.00 389.24 L 931.00 388.26 L 932.00 388.27 L 935.24 385.00 L 935.24 383.00 L 936.20 382.00 L 936.22 381.00 L 935.25 379.00 L 935.26 377.00 L 932.00 373.72 L 931.00 373.76 L 930.00 372.72 L 855.00 372.73 L 854.00 372.85 L 849.71 377.00 L 849.73 378.00 L 848.79 379.00 L 848.75 383.00 L 849.75 384.00 L 850.83 387.00 L 854.00 388.24 L 855.00 389.28 L 930.00 389.24 Z M 307.00 428.03 L 307.00 420.95 L 307.00 428.03 Z M 307.00 465.25 L 307.00 457.97 L 307.00 465.25 Z M 738.00 574.15 L 742.00 572.18 L 744.28 568.00 L 744.28 563.00 L 743.24 562.00 L 743.28 561.00 L 741.00 558.71 L 740.00 558.76 L 739.00 557.77 L 692.00 557.72 L 691.00 558.76 L 689.00 558.95 L 688.00 559.72 L 685.72 563.00 L 685.73 569.00 L 686.76 570.00 L 686.72 571.00 L 689.00 573.25 L 691.00 574.11 L 738.00 574.15 Z M 810.00 574.16 L 814.00 572.27 L 816.26 570.00 L 817.26 567.00 L 816.29 562.00 L 813.00 558.71 L 812.00 558.74 L 811.00 557.80 L 764.00 557.77 L 763.00 558.75 L 762.00 558.75 L 759.71 561.00 L 759.76 562.00 L 757.85 565.00 L 758.75 570.00 L 762.00 573.28 L 763.00 573.24 L 764.00 574.22 L 810.00 574.16 Z M 691.00 737.24 L 692.00 736.25 L 695.00 735.28 L 699.28 731.00 L 699.26 730.00 L 700.25 729.00 L 700.26 727.00 L 701.15 726.00 L 701.26 721.00 L 700.24 720.00 L 700.27 718.00 L 699.26 717.00 L 699.24 716.00 L 694.00 710.79 L 691.00 709.72 L 682.00 709.99 L 680.00 710.82 L 674.74 716.00 L 674.74 717.00 L 673.71 718.00 L 673.75 720.00 L 672.72 721.00 L 672.73 727.00 L 673.75 728.00 L 673.95 730.00 L 674.72 731.00 L 680.00 736.16 L 682.00 736.24 L 683.00 737.22 L 691.00 737.24 Z M 525.00 921.15 L 526.00 920.24 L 528.00 920.28 L 529.00 919.24 L 531.00 919.16 L 533.00 917.24 L 534.00 917.26 L 540.19 911.00 L 541.25 908.00 L 542.27 907.00 L 542.25 905.00 L 543.25 904.00 L 543.25 893.00 L 542.25 892.00 L 542.28 890.00 L 541.25 889.00 L 539.25 884.00 L 534.00 878.75 L 531.00 877.76 L 528.00 875.75 L 524.00 875.74 L 523.00 874.73 L 516.00 874.76 L 515.00 875.75 L 512.00 875.72 L 511.00 876.76 L 506.00 878.80 L 500.75 884.00 L 500.76 885.00 L 497.95 889.00 L 497.75 892.00 L 496.74 893.00 L 496.75 904.00 L 497.74 905.00 L 497.72 907.00 L 498.76 908.00 L 499.72 911.00 L 507.00 918.28 L 508.00 918.24 L 511.00 920.27 L 514.00 920.24 L 515.00 921.17 L 525.00 921.15 Z M 594.00 906.27 L 595.00 905.24 L 596.00 905.27 L 598.27 903.00 L 598.25 902.00 L 599.29 901.00 L 599.29 896.00 L 596.00 891.72 L 595.00 891.75 L 594.00 890.72 L 556.00 890.76 L 553.00 893.00 L 550.90 897.00 L 550.96 900.00 L 552.88 904.00 L 556.00 905.23 L 557.00 906.28 L 594.00 906.27 Z" fill="url(#dark-log-accent)" fill-rule="evenodd"/>
  </symbol>
  <symbol id="directive-route-settings" viewBox="0 0 1254 1254">
    <title>Directive Settings icon, dark variant</title>
      <defs>
        <linearGradient id="dark-settings-main" x1="0" y1="0.5" x2="1" y2="0.5" gradientTransform="rotate(105.8797 .5 .5)"><stop offset="0%" stop-color="#262a32"/><stop offset="20%" stop-color="#252932"/><stop offset="40%" stop-color="#262932"/><stop offset="60%" stop-color="#252931"/><stop offset="80%" stop-color="#262932"/><stop offset="100%" stop-color="#252932"/></linearGradient>
        <linearGradient id="dark-settings-accent" x1="0" y1="0.5" x2="1" y2="0.5" gradientTransform="rotate(110.9834 .5 .5)"><stop offset="0%" stop-color="#545974"/><stop offset="20%" stop-color="#565a76"/><stop offset="40%" stop-color="#555a74"/><stop offset="60%" stop-color="#565b76"/><stop offset="80%" stop-color="#565b76"/><stop offset="100%" stop-color="#575c76"/></linearGradient>
      </defs>
      <path d="M 897.00 433.01 L 905.00 431.25 L 914.00 425.33 L 917.15 422.00 L 920.25 417.00 L 922.20 412.00 L 922.45 409.00 L 924.00 406.44 L 970.45 406.00 L 970.00 347.50 L 924.00 347.54 L 920.38 337.00 L 915.45 330.00 L 909.00 324.66 L 903.00 321.90 L 898.00 320.82 L 710.00 320.70 L 703.00 320.84 L 699.00 321.75 L 689.00 326.79 L 681.75 335.00 L 678.87 342.00 L 678.58 346.00 L 677.00 347.54 L 650.50 348.00 L 650.54 406.00 L 678.00 406.41 L 679.75 414.00 L 682.81 420.00 L 688.00 426.01 L 697.00 431.30 L 706.00 433.06 L 897.00 433.01 Z M 638.00 406.29 L 638.37 348.00 L 638.00 346.90 L 637.00 346.70 L 210.00 346.69 L 204.00 347.90 L 200.00 349.72 L 190.86 357.00 L 185.71 366.00 L 183.94 375.00 L 184.75 385.00 L 186.86 391.00 L 189.84 396.00 L 198.00 403.12 L 206.00 406.32 L 638.00 406.29 Z M 1044.00 406.08 L 1050.00 404.06 L 1057.00 399.23 L 1063.10 391.00 L 1065.33 385.00 L 1066.25 379.00 L 1065.27 369.00 L 1061.28 360.00 L 1057.00 354.90 L 1050.00 349.89 L 1043.00 347.69 L 983.50 348.00 L 984.00 406.50 L 1044.00 406.08 Z M 895.00 865.00 L 905.00 863.01 L 913.00 858.25 L 919.18 851.00 L 922.00 845.00 L 922.47 840.00 L 924.00 838.44 L 970.44 838.00 L 970.00 779.64 L 924.00 779.68 L 922.46 778.00 L 922.10 774.00 L 920.19 769.00 L 916.18 763.00 L 910.00 757.81 L 904.00 754.82 L 900.00 753.76 L 762.00 753.53 L 760.45 750.00 L 760.14 744.00 L 758.22 738.00 L 754.18 730.00 L 751.20 726.00 L 744.00 718.90 L 738.00 714.88 L 731.00 711.80 L 724.00 709.89 L 517.00 709.56 L 510.00 707.56 L 505.00 704.58 L 497.46 697.00 L 494.46 692.00 L 492.47 685.00 L 492.25 649.00 L 493.00 647.44 L 572.00 647.03 L 578.00 645.03 L 583.00 642.10 L 589.25 636.00 L 593.23 629.00 L 595.00 620.38 L 626.21 620.00 L 626.00 561.63 L 596.00 561.53 L 594.42 560.00 L 594.20 557.00 L 592.01 551.00 L 586.00 542.75 L 579.00 537.78 L 569.00 534.72 L 395.00 534.63 L 374.00 534.80 L 364.00 538.00 L 360.00 540.63 L 353.83 547.00 L 350.67 553.00 L 349.53 559.00 L 348.00 561.54 L 309.58 562.00 L 310.00 620.28 L 348.00 620.35 L 351.83 632.00 L 356.96 639.00 L 364.00 644.35 L 372.00 647.22 L 466.00 647.44 L 466.96 649.00 L 466.98 683.00 L 467.87 691.00 L 470.77 701.00 L 475.99 711.00 L 481.59 718.00 L 488.00 724.14 L 500.00 731.22 L 509.00 734.11 L 518.00 735.31 L 721.00 735.45 L 726.00 737.45 L 730.00 740.44 L 735.56 749.00 L 735.92 752.00 L 735.00 753.54 L 704.00 753.57 L 698.00 754.70 L 690.00 758.73 L 682.77 766.00 L 679.73 772.00 L 678.00 779.65 L 650.72 780.00 L 650.55 838.00 L 677.00 838.45 L 678.59 840.00 L 679.87 847.00 L 683.82 854.00 L 689.00 859.18 L 694.00 862.20 L 699.00 864.14 L 705.00 865.08 L 863.00 865.11 L 890.00 864.46 L 895.00 865.00 Z M 297.00 620.03 L 297.00 561.72 L 208.00 561.83 L 201.00 564.60 L 196.00 567.83 L 190.65 574.00 L 187.66 580.00 L 186.72 583.00 L 185.90 593.00 L 186.80 599.00 L 188.62 604.00 L 191.66 609.00 L 197.00 614.39 L 201.00 617.15 L 206.00 619.18 L 212.00 620.31 L 297.00 620.03 Z M 1042.00 620.04 L 1051.00 617.03 L 1059.25 610.00 L 1064.22 601.00 L 1065.46 593.00 L 1065.25 584.00 L 1063.10 578.00 L 1060.17 573.00 L 1055.00 567.63 L 1051.00 564.75 L 1043.00 561.71 L 638.57 562.00 L 639.00 620.28 L 1042.00 620.04 Z M 637.00 839.16 L 638.37 838.00 L 638.38 781.00 L 638.00 779.80 L 637.00 779.64 L 211.00 779.72 L 201.00 782.68 L 193.89 788.00 L 188.81 795.00 L 185.63 806.00 L 185.64 813.00 L 186.87 819.00 L 190.71 827.00 L 197.00 833.40 L 201.00 836.02 L 207.00 838.29 L 212.00 839.04 L 637.00 839.16 Z M 1042.00 838.16 L 1050.00 835.33 L 1056.00 831.24 L 1060.35 826.00 L 1064.02 818.00 L 1065.17 811.00 L 1064.30 802.00 L 1061.23 794.00 L 1057.42 789.00 L 1050.00 782.94 L 1040.00 779.76 L 984.00 779.63 L 982.99 838.00 L 1042.00 838.16 Z" fill="url(#dark-settings-main)" fill-rule="evenodd"/>
      <path d="M 832.00 321.21 L 825.00 320.77 L 703.76 321.00 L 832.00 321.21 Z M 843.00 321.18 L 833.82 321.00 L 843.00 321.18 Z M 882.00 321.24 L 882.00 320.76 L 845.78 321.00 L 882.00 321.24 Z M 896.00 321.24 L 896.00 320.76 L 884.75 321.00 L 896.00 321.24 Z M 257.00 347.15 L 248.89 347.00 L 257.00 347.15 Z M 266.00 347.02 L 258.88 347.00 L 266.00 347.02 Z M 298.00 347.17 L 288.90 347.00 L 298.00 347.17 Z M 322.00 347.11 L 299.81 347.00 L 322.00 347.11 Z M 363.00 347.20 L 341.81 347.00 L 363.00 347.20 Z M 382.00 347.21 L 382.00 346.79 L 366.78 347.00 L 382.00 347.21 Z M 404.00 347.22 L 404.00 346.78 L 384.81 347.00 L 404.00 347.22 Z M 473.00 347.22 L 473.00 346.78 L 434.82 347.00 L 473.00 347.22 Z M 524.00 347.12 L 476.79 347.00 L 524.00 347.12 Z M 576.00 347.12 L 525.90 347.00 L 576.00 347.12 Z M 595.00 347.08 L 578.88 347.00 L 595.00 347.08 Z M 610.00 347.10 L 600.92 347.00 L 610.00 347.10 Z M 638.00 347.09 L 630.79 347.00 L 638.00 347.09 Z M 770.00 394.27 L 771.00 393.24 L 774.00 393.11 L 776.00 391.22 L 777.00 391.27 L 781.19 387.00 L 782.26 385.00 L 782.25 383.00 L 783.28 382.00 L 783.17 372.00 L 779.21 365.00 L 775.00 361.85 L 773.00 361.77 L 772.00 360.72 L 766.00 360.76 L 765.00 359.99 L 764.00 360.77 L 761.00 360.75 L 758.00 362.78 L 757.00 362.73 L 751.85 368.00 L 749.74 374.00 L 749.96 382.00 L 752.78 387.00 L 752.77 388.00 L 756.00 391.21 L 759.00 392.22 L 760.00 393.26 L 762.00 393.23 L 763.00 394.28 L 770.00 394.27 Z M 871.00 385.20 L 872.00 384.24 L 873.00 384.26 L 875.27 382.00 L 875.23 381.00 L 876.27 380.00 L 876.28 374.00 L 875.23 373.00 L 875.28 372.00 L 873.00 369.85 L 871.00 369.79 L 870.00 368.74 L 809.00 368.76 L 808.00 369.77 L 806.00 369.73 L 801.79 374.00 L 801.72 380.00 L 804.00 383.27 L 807.00 385.27 L 871.00 385.20 Z M 442.00 607.17 L 445.00 605.23 L 446.00 605.28 L 450.27 601.00 L 452.23 598.00 L 452.24 596.00 L 453.27 595.00 L 453.27 587.00 L 451.28 582.00 L 448.00 577.79 L 447.00 577.78 L 445.00 575.75 L 444.00 575.76 L 443.00 574.79 L 441.00 574.77 L 439.00 573.74 L 434.00 573.85 L 433.00 574.78 L 431.00 574.72 L 430.00 575.78 L 427.00 576.86 L 423.72 580.00 L 421.72 583.00 L 420.89 585.00 L 420.76 588.00 L 419.74 590.00 L 420.84 597.00 L 423.73 602.00 L 429.00 606.27 L 432.00 607.27 L 442.00 607.17 Z M 539.00 599.24 L 540.00 598.24 L 541.00 598.28 L 544.27 595.00 L 544.24 594.00 L 545.24 593.00 L 545.28 591.00 L 545.22 589.00 L 544.25 588.00 L 544.28 587.00 L 541.00 583.72 L 540.00 583.77 L 539.00 582.74 L 477.00 582.78 L 476.00 583.76 L 475.00 583.73 L 471.72 587.00 L 470.73 590.00 L 470.82 593.00 L 471.75 594.00 L 471.72 595.00 L 475.00 598.26 L 476.00 598.22 L 477.00 599.27 L 539.00 599.24 Z M 291.00 620.08 L 279.97 620.00 L 291.00 620.08 Z M 679.00 620.15 L 673.00 620.00 L 679.00 620.15 Z M 562.00 735.00 L 549.98 735.00 L 562.00 735.00 Z M 649.00 735.06 L 639.00 735.00 L 649.00 735.06 Z M 677.00 735.02 L 666.00 735.00 L 677.00 735.02 Z M 770.00 826.10 L 777.00 823.10 L 780.26 820.00 L 780.25 819.00 L 782.17 817.00 L 784.24 810.00 L 784.09 808.00 L 783.25 807.00 L 783.26 804.00 L 781.25 801.00 L 781.28 800.00 L 776.00 794.72 L 775.00 794.78 L 772.00 792.74 L 769.00 792.78 L 768.00 791.91 L 766.00 792.79 L 762.00 792.73 L 761.00 793.76 L 759.00 793.73 L 758.00 794.76 L 757.00 794.82 L 751.97 800.00 L 751.78 802.00 L 749.89 805.00 L 749.74 813.00 L 751.72 818.00 L 753.76 820.00 L 753.82 821.00 L 758.00 824.23 L 760.00 825.17 L 763.00 825.23 L 764.00 826.27 L 770.00 826.10 Z M 870.00 817.07 L 873.00 815.23 L 874.00 815.27 L 875.27 814.00 L 875.21 813.00 L 876.26 812.00 L 876.28 806.00 L 874.00 802.72 L 873.00 802.77 L 870.00 800.73 L 808.00 800.74 L 805.00 802.78 L 804.00 802.73 L 801.73 806.00 L 801.72 812.00 L 802.76 813.00 L 802.74 814.00 L 805.00 816.17 L 807.00 816.22 L 808.00 817.25 L 870.00 817.07 Z M 341.00 839.07 L 334.91 839.00 L 341.00 839.07 Z" fill="url(#dark-settings-accent)" fill-rule="evenodd"/>
  </symbol>
  <symbol id="directive-action-drawer-collapse" viewBox="0 0 1254 1254">
    <title>Directive Drawer Collapse icon, dark variant</title>
      <defs>
        <linearGradient id="dark-drawer-collapse-main" x1="0" y1="0.5" x2="1" y2="0.5" gradientTransform="rotate(-135.2131 .5 .5)"><stop offset="0%" stop-color="#20232b"/><stop offset="20%" stop-color="#1f232a"/><stop offset="40%" stop-color="#1f232a"/><stop offset="60%" stop-color="#20232b"/><stop offset="80%" stop-color="#1f232a"/><stop offset="100%" stop-color="#20232b"/></linearGradient>
        <linearGradient id="dark-drawer-collapse-accent" x1="0" y1="0.5" x2="1" y2="0.5" gradientTransform="rotate(73.7637 .5 .5)"><stop offset="0%" stop-color="#474a5e"/><stop offset="20%" stop-color="#494d62"/><stop offset="40%" stop-color="#4a4d61"/><stop offset="60%" stop-color="#494c60"/><stop offset="80%" stop-color="#4b4e63"/><stop offset="100%" stop-color="#4b4e62"/></linearGradient>
      </defs>
      <path d="M 389.00 384.31 L 389.25 283.00 L 387.29 272.00 L 382.36 260.00 L 379.21 255.00 L 373.03 248.00 L 368.00 243.81 L 360.00 238.98 L 352.00 235.85 L 341.00 233.77 L 331.00 233.77 L 330.00 234.54 L 320.00 235.78 L 310.00 239.87 L 299.00 247.77 L 291.97 256.00 L 286.92 265.00 L 282.72 280.00 L 282.57 384.00 L 389.00 384.31 Z M 662.00 501.27 L 663.02 276.00 L 662.00 274.62 L 644.00 274.67 L 642.00 275.57 L 636.00 275.73 L 629.00 277.72 L 619.00 282.69 L 612.00 287.98 L 605.69 295.00 L 601.95 301.00 L 598.72 308.00 L 596.66 315.00 L 595.54 325.00 L 595.50 500.00 L 596.00 501.23 L 662.00 501.27 Z M 941.00 955.03 L 952.00 953.12 L 960.00 950.07 L 971.00 942.40 L 976.13 937.00 L 982.08 928.00 L 986.06 917.00 L 987.36 909.00 L 986.43 855.00 L 987.35 321.00 L 984.03 306.00 L 978.03 295.00 L 971.00 286.99 L 964.00 281.91 L 958.00 278.71 L 945.00 274.89 L 679.00 274.66 L 677.98 276.00 L 678.56 277.00 L 677.90 285.00 L 677.89 926.00 L 677.97 952.00 L 678.56 953.00 L 677.97 954.00 L 679.00 955.05 L 697.00 954.46 L 766.00 955.04 L 828.00 955.00 L 829.00 954.47 L 835.00 955.00 L 836.00 954.46 L 839.00 955.00 L 935.00 955.00 L 938.00 954.46 L 941.00 955.03 Z M 389.00 833.26 L 389.42 401.00 L 283.00 400.57 L 282.65 833.00 L 389.00 833.26 Z M 552.00 449.25 L 553.00 448.36 L 556.00 448.09 L 559.00 446.20 L 561.13 444.00 L 563.16 440.00 L 563.05 430.00 L 559.33 425.00 L 555.00 421.89 L 548.00 421.65 L 547.00 420.99 L 537.00 421.00 L 536.00 421.64 L 465.00 421.75 L 458.84 426.00 L 456.97 429.00 L 456.67 432.00 L 455.83 433.00 L 455.86 438.00 L 457.78 443.00 L 462.00 447.27 L 467.00 449.18 L 552.00 449.25 Z M 553.00 512.03 L 559.00 509.19 L 561.13 507.00 L 563.29 503.00 L 564.11 497.00 L 563.06 492.00 L 561.28 489.00 L 558.00 485.81 L 553.00 483.69 L 447.00 483.69 L 442.00 485.78 L 438.70 489.00 L 435.85 496.00 L 436.65 503.00 L 438.75 507.00 L 441.00 509.30 L 447.00 512.21 L 553.00 512.03 Z M 662.00 955.11 L 663.00 954.00 L 662.48 953.00 L 663.00 733.00 L 662.48 530.00 L 663.03 522.00 L 662.48 519.00 L 663.03 518.00 L 662.00 516.74 L 596.00 516.72 L 595.67 911.00 L 598.95 923.00 L 602.89 931.00 L 610.76 941.00 L 617.00 946.16 L 626.00 951.08 L 636.00 954.20 L 643.00 955.04 L 661.00 954.44 L 662.00 955.11 Z M 496.00 689.01 L 499.34 686.00 L 500.19 684.00 L 500.47 655.00 L 504.00 650.46 L 509.00 648.47 L 562.00 648.43 L 569.00 646.31 L 573.25 643.00 L 576.13 639.00 L 578.07 633.00 L 578.04 602.00 L 576.02 595.00 L 573.08 591.00 L 569.00 587.95 L 562.00 585.61 L 508.00 585.53 L 505.00 584.54 L 500.48 579.00 L 500.23 552.00 L 499.22 549.00 L 497.00 546.75 L 495.00 545.83 L 492.00 545.78 L 485.00 550.82 L 422.56 614.00 L 421.54 618.00 L 422.55 621.00 L 434.98 634.00 L 488.00 687.20 L 491.00 689.31 L 496.00 689.01 Z M 553.00 752.16 L 558.00 750.05 L 561.13 747.00 L 563.29 743.00 L 564.14 736.00 L 563.10 732.00 L 560.28 728.00 L 556.00 725.00 L 552.00 723.82 L 448.00 723.79 L 443.00 725.64 L 439.78 728.00 L 437.59 731.00 L 435.94 736.00 L 435.98 740.00 L 437.98 746.00 L 442.00 750.22 L 447.00 752.30 L 553.00 752.16 Z M 555.00 813.13 L 560.00 809.31 L 563.13 805.00 L 563.22 795.00 L 562.06 792.00 L 559.00 788.75 L 556.00 786.90 L 553.00 786.68 L 552.00 785.79 L 468.00 785.79 L 461.00 788.77 L 457.90 792.00 L 455.89 797.00 L 456.00 803.00 L 457.76 807.00 L 460.00 810.00 L 465.00 813.17 L 555.00 813.13 Z M 346.00 1002.03 L 353.00 1000.27 L 360.00 997.33 L 372.00 989.18 L 381.29 978.00 L 387.11 965.00 L 389.35 953.00 L 389.08 849.00 L 283.00 848.84 L 282.68 957.00 L 286.90 972.00 L 290.76 979.00 L 296.92 987.00 L 303.00 992.28 L 311.00 997.27 L 325.00 1002.16 L 346.00 1002.03 Z" fill="url(#dark-drawer-collapse-main)" fill-rule="evenodd"/>
      <path d="M 699.00 275.20 L 678.79 275.00 L 699.00 275.20 Z M 707.00 275.22 L 707.00 274.78 L 700.78 275.00 L 707.00 275.22 Z M 890.00 275.24 L 890.00 274.76 L 881.78 275.00 L 890.00 275.24 Z M 940.00 275.26 L 940.00 274.74 L 931.72 275.00 L 940.00 275.26 Z M 905.00 453.16 L 909.00 451.27 L 915.30 445.00 L 915.28 444.00 L 917.27 441.00 L 917.29 438.00 L 918.19 437.00 L 918.18 433.00 L 917.29 431.00 L 917.31 429.00 L 916.27 428.00 L 916.16 426.00 L 914.26 424.00 L 914.29 423.00 L 908.00 417.76 L 901.00 415.72 L 898.00 415.87 L 897.00 416.71 L 894.00 416.69 L 893.00 417.72 L 891.00 417.78 L 889.00 419.73 L 888.00 419.70 L 884.72 423.00 L 884.72 424.00 L 882.84 426.00 L 882.71 428.00 L 881.69 429.00 L 881.70 432.00 L 880.76 433.00 L 880.81 437.00 L 881.69 438.00 L 881.73 441.00 L 883.71 444.00 L 883.69 445.00 L 885.73 447.00 L 885.81 448.00 L 890.00 451.30 L 891.00 451.26 L 892.00 452.31 L 894.00 452.27 L 895.00 453.28 L 905.00 453.16 Z M 552.00 449.24 L 553.00 448.27 L 556.00 448.09 L 558.00 446.26 L 559.00 446.20 L 561.13 444.00 L 563.16 440.00 L 563.05 430.00 L 560.31 426.00 L 557.00 422.88 L 555.00 421.89 L 548.00 421.73 L 547.00 420.99 L 537.00 421.00 L 536.00 421.75 L 465.00 421.76 L 461.00 423.89 L 458.85 426.00 L 456.97 429.00 L 456.70 432.00 L 455.83 433.00 L 455.86 438.00 L 457.79 443.00 L 462.00 447.27 L 463.00 447.05 L 464.00 448.27 L 466.00 448.22 L 467.00 449.17 L 552.00 449.24 Z M 836.00 449.25 L 837.00 448.29 L 839.00 448.29 L 840.00 447.29 L 841.00 447.31 L 844.00 445.28 L 847.23 441.00 L 847.29 439.00 L 848.31 437.00 L 848.31 432.00 L 847.27 431.00 L 847.30 429.00 L 846.26 428.00 L 846.31 427.00 L 842.00 422.70 L 841.00 422.73 L 838.00 420.71 L 735.00 420.75 L 732.00 422.71 L 731.00 422.69 L 726.69 427.00 L 726.71 428.00 L 724.79 431.00 L 724.70 438.00 L 726.81 443.00 L 730.00 446.29 L 737.00 449.14 L 836.00 449.25 Z M 925.00 516.06 L 928.00 515.01 L 930.00 513.28 L 931.00 513.30 L 934.23 510.00 L 934.29 509.00 L 935.31 508.00 L 935.29 507.00 L 936.28 506.00 L 936.31 495.00 L 934.28 490.00 L 932.00 487.69 L 928.00 484.71 L 925.00 483.74 L 737.00 483.69 L 732.00 485.69 L 730.00 487.73 L 728.91 488.00 L 728.73 489.00 L 726.69 491.00 L 726.72 492.00 L 725.69 493.00 L 725.74 495.00 L 724.76 496.00 L 724.77 504.00 L 725.71 505.00 L 725.70 507.00 L 726.71 508.00 L 726.70 509.00 L 730.00 513.18 L 731.00 513.27 L 733.00 515.12 L 737.00 516.25 L 925.00 516.06 Z M 631.00 501.20 L 621.80 501.00 L 631.00 501.20 Z M 356.00 630.05 L 360.00 628.27 L 364.23 623.00 L 364.30 621.00 L 365.24 620.00 L 365.30 615.00 L 364.29 614.00 L 364.31 612.00 L 363.30 611.00 L 363.29 610.00 L 359.00 605.71 L 358.00 605.74 L 357.00 604.70 L 355.00 604.73 L 354.00 603.80 L 347.00 603.97 L 346.00 604.71 L 339.00 604.72 L 338.00 603.94 L 336.00 603.82 L 313.00 603.96 L 312.00 604.71 L 310.00 604.70 L 305.00 607.73 L 301.78 612.00 L 301.70 614.00 L 300.83 615.00 L 300.80 620.00 L 301.71 621.00 L 301.77 623.00 L 302.75 625.00 L 306.00 628.30 L 307.00 628.26 L 310.00 630.24 L 356.00 630.05 Z M 555.00 813.12 L 557.00 812.11 L 560.31 809.00 L 563.12 805.00 L 563.22 795.00 L 562.05 792.00 L 559.00 788.76 L 558.00 788.76 L 556.00 786.90 L 553.00 786.69 L 552.00 785.79 L 468.00 785.79 L 467.00 786.75 L 464.00 786.95 L 462.00 788.69 L 461.00 788.78 L 457.91 792.00 L 455.89 797.00 L 456.00 803.00 L 457.76 807.00 L 460.00 810.00 L 465.00 813.16 L 555.00 813.12 Z" fill="url(#dark-drawer-collapse-accent)" fill-rule="evenodd"/>
  </symbol>
  <symbol id="directive-action-drawer-expand" viewBox="0 0 1254 1254">
    <title>Directive Drawer Expand icon, dark variant</title>
      <defs>
        <linearGradient id="dark-drawer-expand-main" x1="0" y1="0.5" x2="1" y2="0.5" gradientTransform="rotate(-135.9629 .5 .5)"><stop offset="0%" stop-color="#1d222a"/><stop offset="20%" stop-color="#1e232b"/><stop offset="40%" stop-color="#1e232b"/><stop offset="60%" stop-color="#1e232b"/><stop offset="80%" stop-color="#1d232a"/><stop offset="100%" stop-color="#1e242c"/></linearGradient>
        <linearGradient id="dark-drawer-expand-accent" x1="0" y1="0.5" x2="1" y2="0.5" gradientTransform="rotate(114.9018 .5 .5)"><stop offset="0%" stop-color="#6b6f89"/><stop offset="20%" stop-color="#6d708b"/><stop offset="40%" stop-color="#6d718b"/><stop offset="60%" stop-color="#6d708b"/><stop offset="80%" stop-color="#6d708b"/><stop offset="100%" stop-color="#6d718b"/></linearGradient>
      </defs>
      <path d="M 463.00 367.32 L 463.36 256.00 L 462.17 249.00 L 460.07 244.00 L 455.31 237.00 L 451.00 232.87 L 444.00 228.68 L 438.00 226.72 L 429.00 226.00 L 418.00 227.87 L 410.00 231.89 L 402.72 239.00 L 398.78 246.00 L 396.71 253.00 L 396.54 367.00 L 463.00 367.32 Z M 932.00 927.07 L 939.00 926.20 L 949.00 923.19 L 959.00 918.10 L 966.00 912.44 L 973.14 905.00 L 979.04 896.00 L 983.19 885.00 L 985.31 875.00 L 985.37 395.00 L 984.06 387.00 L 981.18 378.00 L 976.31 369.00 L 970.08 361.00 L 959.00 351.87 L 948.00 346.67 L 936.00 343.85 L 922.00 343.86 L 915.00 345.52 L 903.00 346.72 L 868.00 352.51 L 856.00 353.79 L 855.00 354.52 L 842.00 355.78 L 841.00 356.50 L 835.00 356.81 L 821.00 359.52 L 728.00 372.76 L 700.00 377.51 L 688.00 378.71 L 653.00 384.52 L 613.00 389.73 L 592.00 393.52 L 573.00 395.77 L 572.00 396.52 L 525.00 402.85 L 518.00 404.52 L 512.00 404.73 L 503.00 407.73 L 497.00 411.94 L 490.95 420.00 L 488.97 425.00 L 487.90 432.00 L 487.97 523.00 L 489.90 530.00 L 495.00 537.07 L 502.00 541.28 L 506.00 542.34 L 571.00 542.46 L 578.00 544.45 L 587.00 549.45 L 594.52 557.00 L 598.52 564.00 L 600.52 570.00 L 601.53 581.00 L 600.53 589.00 L 598.50 595.00 L 593.56 604.00 L 594.00 604.44 L 704.00 604.46 L 710.00 605.45 L 718.00 608.46 L 724.00 612.45 L 731.54 620.00 L 737.52 631.00 L 739.52 641.00 L 739.53 648.00 L 736.53 659.00 L 730.54 669.00 L 721.00 677.54 L 713.00 681.54 L 709.00 682.56 L 703.00 683.55 L 594.00 683.58 L 593.58 684.00 L 597.50 691.00 L 600.52 700.00 L 600.77 705.00 L 601.53 706.00 L 601.51 712.00 L 600.53 717.00 L 597.50 726.00 L 594.52 731.00 L 586.00 739.52 L 579.00 743.53 L 568.00 746.51 L 505.00 746.60 L 500.00 747.83 L 495.00 750.69 L 488.82 758.00 L 486.98 763.00 L 486.59 767.00 L 486.72 830.00 L 488.96 837.00 L 491.80 842.00 L 498.00 848.21 L 503.00 851.08 L 509.00 853.06 L 515.00 853.47 L 522.00 855.27 L 549.00 859.48 L 550.00 860.20 L 604.00 869.49 L 610.00 871.14 L 621.00 872.48 L 622.00 873.26 L 660.00 879.50 L 694.00 886.28 L 721.00 890.49 L 917.00 926.21 L 923.00 927.13 L 932.00 927.07 Z M 463.00 853.30 L 463.40 772.00 L 462.00 770.75 L 456.00 769.53 L 446.00 764.51 L 443.00 762.52 L 434.00 753.59 L 430.48 749.00 L 426.47 741.00 L 423.48 729.00 L 423.47 557.00 L 425.48 547.00 L 427.47 542.00 L 433.49 532.00 L 443.42 522.00 L 447.00 519.47 L 455.00 515.46 L 463.17 513.00 L 463.28 390.00 L 397.00 389.54 L 396.54 628.00 L 395.00 628.84 L 296.00 628.96 L 294.00 629.92 L 289.87 634.00 L 287.92 639.00 L 287.90 644.00 L 289.94 649.00 L 292.00 651.10 L 295.00 653.03 L 299.00 654.17 L 396.00 654.24 L 396.56 655.00 L 396.56 853.00 L 463.00 853.30 Z M 340.00 576.00 L 341.00 575.18 L 344.00 575.11 L 348.00 573.09 L 352.06 568.00 L 352.19 565.00 L 353.05 564.00 L 352.13 558.00 L 350.07 554.00 L 348.00 551.99 L 344.00 549.94 L 272.00 549.87 L 267.00 552.00 L 264.90 554.00 L 261.89 561.00 L 261.96 565.00 L 263.96 570.00 L 268.00 574.00 L 275.00 576.01 L 286.00 576.00 L 287.00 575.16 L 295.00 575.16 L 296.00 576.00 L 340.00 576.00 Z M 568.00 593.23 L 573.00 591.22 L 577.16 587.00 L 579.09 582.00 L 579.28 578.00 L 578.05 573.00 L 575.28 569.00 L 572.00 566.63 L 567.00 564.92 L 459.00 564.86 L 455.00 565.72 L 451.00 567.87 L 446.77 573.00 L 445.74 576.00 L 445.69 582.00 L 447.81 587.00 L 452.00 591.01 L 458.00 593.27 L 568.00 593.23 Z M 706.00 660.19 L 710.00 658.16 L 714.21 654.00 L 717.13 647.00 L 717.28 642.00 L 715.37 636.00 L 711.00 630.67 L 706.00 627.76 L 701.00 627.00 L 673.00 627.53 L 514.00 626.97 L 502.00 627.53 L 493.00 626.98 L 483.00 627.53 L 463.00 626.97 L 457.00 627.90 L 453.00 629.75 L 447.84 635.00 L 445.61 641.00 L 445.77 649.00 L 447.62 653.00 L 450.00 656.14 L 453.00 658.36 L 458.00 660.38 L 706.00 660.19 Z M 569.00 723.25 L 573.00 721.33 L 577.30 717.00 L 579.10 712.00 L 579.31 709.00 L 577.30 702.00 L 573.00 697.69 L 568.00 695.64 L 457.00 695.70 L 452.00 697.78 L 450.00 699.61 L 447.70 702.00 L 445.65 707.00 L 445.99 714.00 L 447.97 718.00 L 451.00 721.03 L 456.00 723.30 L 569.00 723.25 Z M 325.00 728.08 L 326.00 727.17 L 329.00 727.10 L 332.00 725.24 L 335.10 722.00 L 336.18 718.00 L 336.08 710.00 L 335.10 708.00 L 331.00 703.92 L 326.00 701.97 L 247.00 701.95 L 242.00 703.89 L 239.00 705.99 L 236.90 709.00 L 235.97 712.00 L 235.90 718.00 L 237.92 723.00 L 240.00 725.15 L 247.00 728.01 L 325.00 728.08 Z M 436.00 992.14 L 445.00 989.18 L 452.00 984.26 L 458.25 977.00 L 462.27 968.00 L 463.35 961.00 L 463.27 876.00 L 397.00 875.57 L 396.53 961.00 L 397.71 969.00 L 401.84 978.00 L 405.89 983.00 L 411.00 987.24 L 417.00 990.26 L 423.00 992.06 L 436.00 992.14 Z" fill="url(#dark-drawer-expand-main)" fill-rule="evenodd"/>
      <path d="M 340.00 576.00 L 341.00 575.18 L 344.00 575.11 L 348.00 573.09 L 352.06 568.00 L 352.19 565.00 L 353.05 564.00 L 352.13 558.00 L 350.07 554.00 L 348.00 551.99 L 344.00 549.94 L 272.00 549.87 L 271.00 550.83 L 269.00 550.89 L 267.00 552.00 L 264.90 554.00 L 262.87 558.00 L 262.81 560.00 L 261.89 561.00 L 261.96 565.00 L 262.82 566.00 L 262.93 568.00 L 263.96 570.00 L 268.00 574.00 L 270.00 574.16 L 271.00 575.12 L 274.00 575.19 L 275.00 576.01 L 286.00 576.00 L 287.00 575.16 L 295.00 575.16 L 296.00 576.00 L 340.00 576.00 Z M 810.00 665.23 L 811.00 664.12 L 815.00 664.20 L 816.00 663.08 L 818.00 663.11 L 819.00 662.11 L 820.00 662.19 L 826.24 657.00 L 826.10 656.00 L 829.24 653.00 L 829.09 652.00 L 831.23 649.00 L 831.11 646.00 L 832.22 644.00 L 832.25 638.00 L 831.13 637.00 L 831.25 633.00 L 830.11 632.00 L 830.03 630.00 L 828.10 628.00 L 828.22 627.00 L 821.00 619.77 L 820.00 619.92 L 817.00 617.78 L 815.00 617.95 L 814.00 616.79 L 811.00 616.94 L 810.00 615.77 L 806.00 615.76 L 804.00 616.90 L 801.00 616.77 L 800.00 617.90 L 798.00 617.84 L 795.00 619.90 L 794.00 619.86 L 786.89 627.00 L 786.89 628.00 L 785.77 629.00 L 785.92 630.00 L 784.77 631.00 L 784.94 633.00 L 783.79 634.00 L 783.91 637.00 L 782.76 638.00 L 782.78 644.00 L 783.94 646.00 L 783.94 649.00 L 785.87 652.00 L 785.88 653.00 L 788.92 656.00 L 788.76 657.00 L 792.00 660.13 L 793.00 660.06 L 797.00 663.19 L 799.00 663.06 L 800.00 664.23 L 804.00 664.06 L 805.00 665.20 L 810.00 665.23 Z M 934.00 654.23 L 935.00 653.10 L 937.00 653.14 L 942.23 648.00 L 942.13 647.00 L 943.24 646.00 L 943.10 642.00 L 944.01 641.00 L 943.10 640.00 L 943.14 636.00 L 941.10 634.00 L 941.24 633.00 L 936.00 628.78 L 933.00 628.88 L 932.00 627.77 L 862.00 627.78 L 861.00 628.90 L 858.00 628.76 L 857.00 629.87 L 856.00 629.76 L 851.78 634.00 L 851.87 635.00 L 850.80 636.00 L 850.89 638.00 L 849.77 639.00 L 849.76 644.00 L 850.87 645.00 L 850.76 647.00 L 851.88 648.00 L 851.76 649.00 L 855.00 652.23 L 856.00 652.03 L 857.00 653.20 L 859.00 653.07 L 860.00 654.20 L 934.00 654.23 Z M 396.00 654.23 L 396.00 628.77 L 297.00 628.82 L 294.00 629.92 L 289.87 634.00 L 288.87 636.00 L 288.80 638.00 L 287.92 639.00 L 287.90 644.00 L 288.79 645.00 L 288.90 647.00 L 289.94 649.00 L 295.00 653.03 L 297.00 653.17 L 298.00 654.03 L 396.00 654.23 Z M 325.00 728.08 L 326.00 727.17 L 329.00 727.10 L 332.00 725.24 L 335.10 722.00 L 336.18 718.00 L 336.08 710.00 L 335.10 708.00 L 331.00 703.92 L 329.00 702.92 L 327.00 702.84 L 326.00 701.97 L 247.00 701.95 L 246.00 702.81 L 244.00 702.88 L 242.00 703.89 L 240.00 705.81 L 239.00 705.99 L 236.90 709.00 L 236.81 711.00 L 235.97 712.00 L 235.90 718.00 L 236.83 719.00 L 236.86 721.00 L 237.92 723.00 L 240.00 725.15 L 247.00 728.01 L 325.00 728.08 Z" fill="url(#dark-drawer-expand-accent)" fill-rule="evenodd"/>
  </symbol>
  <symbol id="directive-action-fullscreen" viewBox="0 0 1254 1254">
    <title>Directive Fullscreen icon, dark variant</title>
      <defs>
        <linearGradient id="dark-fullscreen-main" x1="0" y1="0.5" x2="1" y2="0.5" gradientTransform="rotate(-73.4010 .5 .5)"><stop offset="0%" stop-color="#1f2229"/><stop offset="20%" stop-color="#202229"/><stop offset="40%" stop-color="#202228"/><stop offset="60%" stop-color="#1f2128"/><stop offset="80%" stop-color="#1f2228"/><stop offset="100%" stop-color="#202229"/></linearGradient>
        <linearGradient id="dark-fullscreen-accent" x1="0" y1="0.5" x2="1" y2="0.5" gradientTransform="rotate(102.2238 .5 .5)"><stop offset="0%" stop-color="#5e6482"/><stop offset="20%" stop-color="#5f6584"/><stop offset="40%" stop-color="#606683"/><stop offset="60%" stop-color="#606683"/><stop offset="80%" stop-color="#606683"/><stop offset="100%" stop-color="#606684"/></linearGradient>
      </defs>
      <path d="M 282.00 533.00 L 291.00 531.22 L 302.00 525.22 L 310.33 516.00 L 313.06 511.00 L 315.27 504.00 L 316.22 497.00 L 316.20 315.00 L 316.44 311.00 L 319.46 303.00 L 324.08 298.00 L 330.00 293.50 L 339.00 291.19 L 472.00 291.20 L 473.23 290.00 L 473.00 221.80 L 285.00 221.62 L 274.00 223.96 L 265.00 227.83 L 257.00 233.69 L 248.83 243.00 L 244.92 250.00 L 242.74 256.00 L 240.81 268.00 L 240.88 498.00 L 241.83 504.00 L 244.68 512.00 L 247.67 517.00 L 254.00 524.06 L 260.00 528.26 L 269.00 532.06 L 276.00 533.21 L 282.00 533.00 Z M 523.00 291.06 L 530.00 290.11 L 539.00 286.34 L 545.00 282.14 L 551.14 275.00 L 554.16 269.00 L 556.13 262.00 L 556.33 253.00 L 554.19 244.00 L 551.21 238.00 L 546.32 232.00 L 540.00 226.84 L 534.00 223.75 L 523.00 221.60 L 495.00 221.83 L 494.75 290.00 L 496.00 291.18 L 523.00 291.06 Z M 967.00 533.09 L 977.00 531.13 L 984.00 528.30 L 992.00 523.11 L 997.32 518.00 L 1003.28 510.00 L 1006.12 504.00 L 1008.21 497.00 L 1009.35 489.00 L 1009.14 254.00 L 1005.16 242.00 L 1001.21 236.00 L 996.00 230.64 L 987.00 224.72 L 976.00 221.60 L 965.00 221.85 L 956.00 224.90 L 951.00 227.69 L 944.89 233.00 L 940.92 238.00 L 937.77 244.00 L 935.87 250.00 L 934.75 257.00 L 934.66 440.00 L 933.54 447.00 L 928.54 455.00 L 920.00 461.55 L 914.00 463.55 L 780.00 463.66 L 778.82 465.00 L 778.72 532.00 L 780.00 533.25 L 967.00 533.09 Z M 756.00 533.23 L 756.33 464.00 L 725.00 463.80 L 716.00 465.84 L 707.00 470.70 L 700.59 477.00 L 697.70 481.00 L 694.85 487.00 L 692.96 496.00 L 692.95 500.00 L 694.94 510.00 L 699.77 519.00 L 707.00 526.20 L 714.00 530.27 L 719.00 532.06 L 726.00 533.22 L 756.00 533.23 Z M 286.00 1017.20 L 297.00 1013.18 L 303.00 1009.08 L 307.19 1005.00 L 310.20 1001.00 L 314.20 993.00 L 316.16 985.00 L 316.32 799.00 L 316.47 795.00 L 320.46 786.00 L 328.00 778.44 L 339.00 774.46 L 473.00 774.21 L 473.00 705.93 L 285.00 705.72 L 272.00 708.81 L 264.00 712.75 L 253.89 721.00 L 246.77 731.00 L 242.92 741.00 L 241.60 750.00 L 241.85 986.00 L 243.70 993.00 L 247.80 1001.00 L 252.75 1007.00 L 258.00 1011.30 L 265.00 1015.19 L 272.00 1017.29 L 286.00 1017.20 Z M 528.00 774.19 L 535.00 772.22 L 542.00 768.27 L 549.40 761.00 L 552.20 757.00 L 555.17 750.00 L 556.38 743.00 L 556.03 734.00 L 553.33 726.00 L 549.20 719.00 L 545.00 714.70 L 540.00 710.82 L 534.00 707.76 L 524.00 705.64 L 495.00 705.94 L 494.83 774.00 L 528.00 774.19 Z M 1007.00 803.03 L 1008.15 802.00 L 1007.45 793.00 L 1008.00 751.00 L 1007.37 737.00 L 1005.26 729.00 L 1002.21 723.00 L 993.00 712.79 L 984.00 707.79 L 978.00 705.95 L 965.00 705.81 L 953.00 709.99 L 947.00 714.56 L 939.79 723.00 L 936.92 729.00 L 934.78 737.00 L 934.63 802.00 L 1006.00 802.47 L 1007.00 803.03 Z M 971.00 1017.05 L 978.00 1015.14 L 984.00 1012.34 L 994.00 1005.10 L 999.31 999.00 L 1003.03 993.00 L 1007.18 981.00 L 1008.15 973.00 L 1008.04 848.00 L 1007.45 838.00 L 1008.03 831.00 L 1007.47 828.00 L 1008.04 827.00 L 1007.00 826.52 L 934.67 827.00 L 934.56 926.00 L 933.55 930.00 L 930.54 936.00 L 923.00 943.52 L 917.00 946.54 L 911.00 947.64 L 724.00 947.86 L 714.00 950.74 L 706.00 955.64 L 698.99 963.00 L 695.79 969.00 L 693.80 975.00 L 692.96 983.00 L 693.81 990.00 L 695.77 996.00 L 699.72 1003.00 L 707.00 1010.35 L 711.00 1013.15 L 722.00 1017.18 L 971.00 1017.05 Z" fill="url(#dark-fullscreen-main)" fill-rule="evenodd"/>
      <path d="M 975.00 339.25 L 978.00 337.19 L 979.00 337.27 L 983.27 333.00 L 983.20 332.00 L 985.13 329.00 L 985.14 322.00 L 983.21 319.00 L 983.28 318.00 L 979.00 313.73 L 978.00 313.82 L 975.00 311.75 L 967.00 311.91 L 965.00 312.74 L 963.00 314.81 L 962.00 314.88 L 958.77 319.00 L 958.83 321.00 L 957.73 322.00 L 957.73 329.00 L 958.82 330.00 L 958.77 332.00 L 965.00 338.25 L 968.00 339.26 L 975.00 339.25 Z M 280.00 396.11 L 281.00 395.17 L 282.00 395.24 L 285.15 392.00 L 285.27 345.00 L 284.00 342.91 L 281.00 341.83 L 280.00 340.74 L 276.00 340.74 L 271.72 344.00 L 271.80 346.00 L 270.76 347.00 L 270.74 390.00 L 271.81 391.00 L 273.00 394.27 L 274.00 394.17 L 277.00 396.26 L 280.00 396.11 Z M 974.00 426.26 L 976.00 424.18 L 977.00 424.20 L 978.27 422.00 L 978.24 367.00 L 978.14 366.00 L 976.00 363.74 L 975.00 363.86 L 974.00 362.78 L 968.00 362.80 L 964.72 366.00 L 964.81 368.00 L 963.91 369.00 L 964.00 373.00 L 964.81 374.00 L 964.82 381.00 L 963.98 382.00 L 963.92 384.00 L 963.99 387.00 L 964.82 388.00 L 964.82 394.00 L 963.98 395.00 L 964.82 397.00 L 964.82 410.00 L 963.91 411.00 L 963.87 419.00 L 964.83 420.00 L 964.74 422.00 L 965.81 423.00 L 965.72 424.00 L 967.00 425.24 L 968.00 425.19 L 969.00 426.27 L 974.00 426.26 Z M 280.00 445.07 L 281.00 444.14 L 283.00 444.24 L 286.00 442.18 L 287.00 442.26 L 290.26 439.00 L 291.15 436.00 L 292.27 435.00 L 292.24 428.00 L 290.18 423.00 L 287.00 419.79 L 284.00 418.83 L 283.00 417.74 L 280.00 417.84 L 279.00 416.94 L 278.00 417.84 L 274.00 417.74 L 267.88 422.00 L 267.80 423.00 L 265.75 425.00 L 265.82 427.00 L 264.73 428.00 L 264.75 435.00 L 265.81 436.00 L 266.89 439.00 L 270.00 442.26 L 273.00 443.14 L 274.00 444.24 L 276.00 444.13 L 277.00 445.10 L 280.00 445.07 Z M 282.00 875.17 L 285.24 872.00 L 285.25 816.00 L 284.19 815.00 L 284.25 814.00 L 282.00 811.78 L 275.00 811.75 L 271.73 815.00 L 271.79 822.00 L 270.90 823.00 L 270.84 851.00 L 270.97 855.00 L 271.80 856.00 L 271.79 863.00 L 270.94 864.00 L 270.77 869.00 L 271.73 872.00 L 275.00 875.23 L 282.00 875.17 Z M 283.00 925.27 L 284.00 924.18 L 287.00 923.27 L 290.24 920.00 L 291.17 917.00 L 292.26 916.00 L 292.27 908.00 L 291.17 907.00 L 291.06 905.00 L 290.27 904.00 L 286.00 899.89 L 284.00 898.80 L 281.00 898.82 L 280.00 897.76 L 278.00 897.74 L 276.00 898.81 L 273.00 898.86 L 271.00 900.82 L 270.00 900.74 L 265.78 906.00 L 265.80 908.00 L 264.73 909.00 L 264.73 915.00 L 265.83 916.00 L 265.73 918.00 L 267.83 920.00 L 267.74 921.00 L 269.00 922.26 L 274.00 925.23 L 283.00 925.27 Z M 900.00 996.27 L 901.00 995.18 L 903.00 995.26 L 905.00 993.17 L 906.00 993.09 L 906.17 992.00 L 909.06 989.00 L 909.18 987.00 L 910.17 986.00 L 910.21 979.00 L 908.16 976.00 L 908.28 975.00 L 905.00 971.75 L 904.00 971.88 L 902.00 969.97 L 899.00 969.83 L 897.00 968.78 L 896.00 968.78 L 895.00 969.84 L 891.00 969.76 L 890.00 970.84 L 889.00 970.74 L 885.00 974.73 L 884.83 976.00 L 883.75 977.00 L 883.80 979.00 L 882.72 980.00 L 882.73 985.00 L 883.80 987.00 L 883.90 989.00 L 890.00 995.26 L 892.00 995.15 L 893.00 996.26 L 900.00 996.27 Z M 853.00 990.13 L 854.00 989.20 L 855.00 989.25 L 857.25 987.00 L 858.27 984.00 L 858.28 981.00 L 857.17 980.00 L 857.22 979.00 L 854.00 975.73 L 798.00 975.74 L 793.73 979.00 L 793.83 981.00 L 792.76 982.00 L 792.81 984.00 L 794.83 987.00 L 794.75 988.00 L 796.00 989.03 L 798.00 989.17 L 799.00 990.27 L 853.00 990.13 Z" fill="url(#dark-fullscreen-accent)" fill-rule="evenodd"/>
  </symbol>
  <symbol id="directive-action-restore" viewBox="0 0 1254 1254">
    <title>Directive Restore icon, dark variant</title>
      <defs>
        <linearGradient id="dark-restore-main" x1="0" y1="0.5" x2="1" y2="0.5" gradientTransform="rotate(-153.7392 .5 .5)"><stop offset="0%" stop-color="#252930"/><stop offset="20%" stop-color="#252930"/><stop offset="40%" stop-color="#262930"/><stop offset="60%" stop-color="#262930"/><stop offset="80%" stop-color="#252930"/><stop offset="100%" stop-color="#262930"/></linearGradient>
        <linearGradient id="dark-restore-accent" x1="0" y1="0.5" x2="1" y2="0.5" gradientTransform="rotate(118.2649 .5 .5)"><stop offset="0%" stop-color="#5c5d77"/><stop offset="20%" stop-color="#5c5d78"/><stop offset="40%" stop-color="#5c5d78"/><stop offset="60%" stop-color="#5e5f79"/><stop offset="80%" stop-color="#5f5f79"/><stop offset="100%" stop-color="#5e5f79"/></linearGradient>
      </defs>
      <path d="M 282.00 563.11 L 290.00 561.20 L 297.00 557.15 L 303.32 550.00 L 307.22 541.00 L 307.47 382.00 L 308.23 381.00 L 309.47 373.00 L 312.44 366.00 L 316.00 361.40 L 322.00 356.42 L 328.00 354.42 L 331.00 354.42 L 335.00 355.41 L 340.00 358.42 L 410.58 433.00 L 411.54 437.00 L 394.59 455.00 L 393.98 457.00 L 396.00 459.31 L 446.00 459.30 L 450.00 458.09 L 454.03 455.00 L 457.18 448.00 L 457.22 396.00 L 455.00 393.64 L 454.00 393.67 L 437.69 410.00 L 435.00 410.57 L 365.42 338.00 L 361.44 330.00 L 361.42 321.00 L 365.44 313.00 L 371.00 307.44 L 376.00 304.47 L 388.00 301.46 L 497.00 301.50 L 497.00 235.61 L 358.00 235.66 L 356.00 236.57 L 348.00 236.73 L 337.00 238.94 L 317.00 245.89 L 300.00 255.70 L 291.00 262.78 L 281.58 272.00 L 268.86 288.00 L 260.70 303.00 L 256.77 313.00 L 252.91 327.00 L 252.59 332.00 L 251.88 333.00 L 251.57 343.00 L 250.79 344.00 L 250.83 537.00 L 252.91 545.00 L 254.83 549.00 L 262.00 557.22 L 267.00 560.32 L 272.00 562.21 L 282.00 563.11 Z M 572.00 301.28 L 578.00 299.20 L 584.00 295.41 L 591.13 288.00 L 595.13 280.00 L 596.35 275.00 L 596.21 262.00 L 593.04 253.00 L 589.16 247.00 L 581.00 239.87 L 574.00 236.76 L 569.00 235.68 L 514.00 235.70 L 513.59 301.00 L 572.00 301.28 Z M 739.00 301.38 L 739.00 235.71 L 684.00 235.73 L 683.00 236.56 L 679.00 236.83 L 672.00 239.87 L 668.00 242.67 L 662.78 248.00 L 658.72 255.00 L 656.87 261.00 L 656.66 276.00 L 658.96 283.00 L 661.75 288.00 L 665.93 293.00 L 670.00 296.31 L 677.00 300.03 L 682.00 301.37 L 739.00 301.38 Z M 976.00 563.17 L 986.00 560.24 L 993.21 555.00 L 999.27 546.00 L 1001.42 537.00 L 1001.20 337.00 L 1000.43 336.00 L 999.16 325.00 L 995.03 311.00 L 990.05 299.00 L 983.16 287.00 L 971.33 272.00 L 962.00 262.86 L 953.00 255.77 L 934.00 244.97 L 923.00 240.86 L 911.00 237.69 L 897.00 236.55 L 895.00 235.66 L 756.00 235.62 L 756.00 301.50 L 865.00 301.45 L 875.00 303.47 L 881.00 306.43 L 885.00 309.44 L 889.56 315.00 L 891.58 319.00 L 892.59 324.00 L 891.57 332.00 L 886.55 340.00 L 819.00 410.57 L 816.08 410.00 L 800.00 393.79 L 798.00 393.75 L 796.65 395.00 L 796.57 448.00 L 797.81 452.00 L 799.78 455.00 L 804.00 458.13 L 808.00 459.28 L 857.00 459.14 L 859.02 456.00 L 858.03 454.00 L 842.43 438.00 L 842.41 433.00 L 897.46 374.00 L 914.00 357.43 L 922.00 354.41 L 925.00 354.42 L 931.00 356.42 L 934.00 358.43 L 939.54 365.00 L 943.56 374.00 L 945.53 383.00 L 944.97 384.00 L 945.53 390.00 L 945.66 541.00 L 947.79 547.00 L 950.81 552.00 L 957.00 558.10 L 966.00 562.24 L 976.00 563.17 Z M 812.00 765.04 L 819.00 763.20 L 825.00 760.27 L 833.38 753.00 L 839.33 744.00 L 842.33 734.00 L 842.34 519.00 L 840.26 511.00 L 837.26 505.00 L 834.33 501.00 L 827.00 493.74 L 818.00 488.96 L 808.00 486.70 L 445.00 486.70 L 435.00 488.83 L 427.00 492.83 L 422.00 496.78 L 416.72 503.00 L 412.84 510.00 L 410.61 518.00 L 410.53 585.00 L 410.00 586.00 L 410.53 587.00 L 410.00 706.00 L 410.57 734.00 L 411.94 740.00 L 414.97 747.00 L 417.65 751.00 L 426.00 759.03 L 434.00 763.13 L 444.00 765.38 L 812.00 765.04 Z M 612.72 733.00 L 611.00 733.68 L 453.00 733.56 L 446.00 730.56 L 438.46 723.00 L 435.44 714.00 L 435.44 709.00 L 436.46 705.00 L 439.46 699.00 L 442.14 696.00 L 448.00 691.44 L 457.00 688.47 L 479.00 689.05 L 611.00 688.46 L 612.78 690.00 L 612.72 733.00 Z M 800.75 733.00 L 796.00 733.71 L 641.00 733.65 L 640.25 732.00 L 640.25 690.00 L 642.00 688.47 L 653.00 689.08 L 800.00 689.44 L 807.00 692.47 L 812.54 698.00 L 816.56 706.00 L 816.92 711.00 L 816.55 717.00 L 812.55 725.00 L 808.00 729.57 L 803.00 732.54 L 800.75 733.00 Z M 497.00 1009.47 L 497.00 944.70 L 383.00 944.55 L 374.00 941.54 L 371.00 939.60 L 364.43 933.00 L 361.42 926.00 L 361.41 920.00 L 364.45 912.00 L 434.22 840.00 L 437.00 839.45 L 453.00 855.39 L 456.37 855.00 L 456.47 804.00 L 456.34 802.00 L 454.38 798.00 L 451.00 794.69 L 445.00 792.63 L 396.00 792.64 L 394.52 794.00 L 394.60 797.00 L 411.00 814.20 L 411.55 817.00 L 371.54 859.00 L 340.00 890.61 L 333.00 893.58 L 329.00 893.62 L 324.00 892.60 L 320.00 890.56 L 314.46 885.00 L 310.46 878.00 L 307.46 864.00 L 307.46 715.00 L 306.24 708.00 L 303.30 702.00 L 298.00 695.85 L 292.00 691.95 L 286.00 689.78 L 273.00 689.80 L 267.00 691.88 L 262.00 694.94 L 254.94 703.00 L 252.92 707.00 L 250.89 715.00 L 250.84 902.00 L 251.58 903.00 L 251.78 911.00 L 252.59 912.00 L 253.84 921.00 L 258.84 937.00 L 264.87 950.00 L 273.87 964.00 L 286.00 978.01 L 302.00 991.06 L 312.00 997.03 L 323.00 1002.22 L 339.00 1007.20 L 350.00 1008.42 L 351.00 1009.25 L 358.00 1009.45 L 497.00 1009.47 Z M 902.00 1009.21 L 903.00 1008.44 L 909.00 1008.11 L 917.00 1006.23 L 936.00 999.18 L 953.00 989.19 L 963.00 981.14 L 977.23 966.00 L 986.08 953.00 L 993.10 939.00 L 999.13 920.00 L 1001.42 902.00 L 1001.28 712.00 L 998.31 704.00 L 993.19 697.00 L 986.00 691.92 L 980.00 689.86 L 967.00 689.86 L 958.00 693.79 L 953.00 697.90 L 949.75 702.00 L 945.84 711.00 L 944.98 716.00 L 945.53 717.00 L 945.54 865.00 L 942.55 878.00 L 938.57 885.00 L 933.00 890.58 L 926.00 893.59 L 921.00 893.59 L 917.00 892.57 L 912.00 889.56 L 842.41 817.00 L 842.36 813.00 L 858.13 797.00 L 859.00 795.00 L 857.00 792.60 L 806.00 792.82 L 802.00 794.67 L 799.56 797.00 L 796.59 803.00 L 796.66 854.00 L 799.00 855.32 L 801.00 854.36 L 814.00 840.44 L 817.00 839.09 L 819.99 840.00 L 888.57 911.00 L 891.59 917.00 L 891.75 920.00 L 892.57 921.00 L 891.58 928.00 L 887.55 935.00 L 885.00 937.55 L 879.00 941.54 L 870.00 944.55 L 756.00 944.75 L 755.50 946.00 L 756.00 1009.48 L 902.00 1009.21 Z M 572.00 1009.18 L 580.00 1006.08 L 585.00 1002.40 L 590.24 997.00 L 595.25 987.00 L 596.31 983.00 L 596.29 971.00 L 594.22 964.00 L 589.35 956.00 L 581.00 948.81 L 574.00 945.81 L 569.00 944.82 L 514.00 944.96 L 513.63 1009.00 L 572.00 1009.18 Z M 739.00 1009.39 L 739.00 944.89 L 684.00 944.84 L 679.00 945.90 L 672.00 948.93 L 666.00 953.60 L 660.75 960.00 L 656.66 971.00 L 656.79 984.00 L 658.65 990.00 L 661.78 996.00 L 666.00 1001.15 L 671.00 1005.00 L 675.00 1007.14 L 682.00 1009.33 L 739.00 1009.39 Z" fill="url(#dark-restore-main)" fill-rule="evenodd"/>
      <path d="M 549.00 614.25 L 550.00 613.21 L 552.00 613.25 L 553.00 612.20 L 555.00 612.24 L 557.00 610.20 L 558.00 610.26 L 565.21 603.00 L 565.22 602.00 L 567.22 599.00 L 567.23 597.00 L 568.15 596.00 L 568.20 592.00 L 569.08 591.00 L 569.00 589.00 L 568.19 588.00 L 569.09 587.00 L 568.23 585.00 L 568.21 582.00 L 567.20 581.00 L 567.18 579.00 L 566.23 578.00 L 566.25 577.00 L 564.22 575.00 L 564.27 574.00 L 558.00 567.77 L 557.00 567.79 L 556.00 566.76 L 555.00 566.80 L 550.00 563.93 L 538.00 563.77 L 537.00 564.81 L 535.00 564.73 L 534.00 565.80 L 532.00 565.85 L 530.00 567.81 L 529.00 567.75 L 522.92 574.00 L 519.92 580.00 L 519.80 583.00 L 518.81 584.00 L 518.77 595.00 L 519.78 596.00 L 519.79 598.00 L 521.76 601.00 L 521.74 602.00 L 523.80 604.00 L 523.74 605.00 L 529.00 610.26 L 530.00 610.18 L 532.00 612.15 L 534.00 612.19 L 535.00 613.26 L 537.00 613.20 L 538.00 614.19 L 549.00 614.25 Z M 724.00 602.07 L 725.00 601.21 L 727.00 601.12 L 731.23 598.00 L 731.18 597.00 L 733.23 595.00 L 733.22 592.00 L 734.25 591.00 L 734.19 587.00 L 733.24 586.00 L 733.26 584.00 L 732.20 583.00 L 732.26 582.00 L 728.00 577.75 L 727.00 577.82 L 726.00 576.75 L 724.00 576.79 L 723.00 575.79 L 604.00 575.74 L 603.00 576.81 L 600.00 576.77 L 598.00 578.78 L 597.00 578.77 L 594.80 581.00 L 593.80 584.00 L 592.75 585.00 L 592.82 594.00 L 593.80 595.00 L 593.74 596.00 L 598.00 600.24 L 599.00 600.20 L 600.00 601.23 L 603.00 601.20 L 604.00 602.17 L 724.00 602.07 Z M 640.00 733.26 L 640.24 690.00 L 641.23 689.00 L 639.00 689.83 L 618.00 689.83 L 617.00 688.94 L 614.00 688.86 L 613.00 689.78 L 612.00 688.77 L 612.78 690.00 L 612.74 733.00 L 640.00 733.26 Z M 648.00 734.18 L 641.82 734.00 L 648.00 734.18 Z" fill="url(#dark-restore-accent)" fill-rule="evenodd"/>
  </symbol>
  <symbol id="directive-action-density-compact" viewBox="0 0 32 32">
<g fill="currentColor">
    <rect x="4" y="3.5" width="5.2" height="25" rx="2.6"/>
    <rect x="12.2" y="6" width="14.8" height="4.5" rx="2.25" opacity=".32"/>
    <rect x="12.2" y="13.75" width="11.3" height="4.5" rx="2.25" opacity=".32"/>
    <rect x="12.2" y="21.5" width="14.8" height="4.5" rx="2.25" opacity=".32"/>
  </g>
  <path d="m21.4 11.4-4.7 4.6 4.7 4.6" fill="none" stroke="currentColor" stroke-width="3" stroke-linecap="round" stroke-linejoin="round"/>
  </symbol>
  <symbol id="directive-action-density-expanded" viewBox="0 0 32 32">
<g fill="currentColor">
    <rect x="4" y="3.5" width="5.2" height="25" rx="2.6"/>
    <rect x="12.2" y="6" width="14.8" height="4.5" rx="2.25" opacity=".52"/>
    <rect x="12.2" y="13.75" width="11.3" height="4.5" rx="2.25" opacity=".52"/>
    <rect x="12.2" y="21.5" width="14.8" height="4.5" rx="2.25" opacity=".52"/>
  </g>
  <path d="m16.6 11.4 4.7 4.6-4.7 4.6" fill="none" stroke="currentColor" stroke-width="3" stroke-linecap="round" stroke-linejoin="round"/>
  </symbol>
  <symbol id="directive-action-close" viewBox="0 0 32 32">
<g fill="none" stroke="currentColor" stroke-linecap="round">
    <path d="m8 8 16 16" stroke-width="4.2"/>
    <path d="M24 8 8 24" stroke-width="4.2"/>
  </g>
  <circle cx="26.7" cy="5.3" r="1.35" fill="currentColor" opacity=".45"/>
  </symbol>
  <symbol id="directive-action-refresh" viewBox="0 0 32 32">
<g fill="none" stroke="currentColor" stroke-linecap="round" stroke-linejoin="round">
    <path d="M25.8 13.1A10.25 10.25 0 0 0 8.4 8.2" stroke-width="3.1"/>
    <path d="M6.2 18.8a10.25 10.25 0 0 0 17.4 5" stroke-width="3.1"/>
    <path d="m7.8 4.8.5 4.1 4.1-.5M24.2 27.2l-.5-4.1-4.1.5" stroke-width="2.8"/>
  </g>
  <rect x="14.05" y="14.05" width="3.9" height="3.9" rx="1" fill="currentColor" opacity=".48"/>
  </symbol>
  <symbol id="directive-action-resize" viewBox="0 0 32 32">
<g fill="none" stroke="currentColor" stroke-linecap="round" stroke-linejoin="round">
    <path d="M5 11v16h16" stroke-width="4"/>
    <path d="M10.5 15.5V22h6.5" stroke-width="3.25" opacity=".78"/>
    <path d="M16 20v-4h4" stroke-width="2.45" opacity=".52"/>
  </g>
  <circle cx="26.1" cy="5.9" r="1.25" fill="currentColor" opacity=".42"/>
  </symbol>
</svg>
