<svg xmlns="http://www.w3.org/2000/svg" width="1600" height="1040" viewBox="0 0 1600 1040">
<defs>
  <style>
    .title{font:700 42px Arial,sans-serif;fill:#f3a12a;letter-spacing:2px}
    .sub{font:600 17px Arial,sans-serif;fill:#a58abf;letter-spacing:1.4px}
    .label{font:700 18px Arial,sans-serif;fill:#e7e5e1;letter-spacing:.8px}
    .meta{font:600 13px Arial,sans-serif;fill:#898b94;letter-spacing:.7px}
  </style>
  <filter id="shadow" x="-20%" y="-20%" width="140%" height="140%"><feDropShadow dx="0" dy="8" stdDeviation="12" flood-color="#000" flood-opacity=".42"/></filter>
</defs>
<rect width="100%" height="100%" fill="#020304"/>
<path d="M0 0h1600v64H160Q96 64 96 128v912H0Z" fill="#0a0c10"/>
<rect x="32" y="96" width="32" height="210" rx="16" fill="#f3a12a"/>
<rect x="32" y="322" width="32" height="260" rx="16" fill="#a889c8"/>
<rect x="32" y="598" width="32" height="185" rx="16" fill="#5f8fcd"/>
<rect x="32" y="799" width="32" height="209" rx="16" fill="#cf7d75"/>
<text x="104" y="66" class="title">DIRECTIVE VECTOR GLYPHS</text>
<text x="104" y="96" class="sub">LCARS-INSPIRED COMMAND SPINE ICON SET / VERSION 1</text>
<text x="104" y="153" class="label">PRIMARY ROUTES</text>

<g transform="translate(104 180)" filter="url(#shadow)">
      <rect width="440" height="208" rx="28" fill="#080a0d" stroke="#252932" stroke-width="2"/>
      <path d="M0 28Q0 0 28 0h108v208H28Q0 208 0 180Z" fill="#f3a12a"/>
      <rect x="24" y="28" width="88" height="88" rx="25" fill="#030405" opacity=".9"/>
      <g transform="translate(36 40) scale(2)" color="#f3a12a">
  <g fill="currentColor">
    <!-- lead vessel -->
    <ellipse cx="22" cy="22.1" rx="5.9" ry="3.25"/>
    <rect x="9.1" y="20.8" width="9.6" height="2.6" rx="1.3"/>
    <rect x="6.1" y="17.1" width="9.7" height="2.15" rx="1.075"/>
    <rect x="6.1" y="24.95" width="9.7" height="2.15" rx="1.075"/>
    <path d="M13.8 18.5 17.8 21.2v1.8l-4-2.4ZM13.8 25.7l4-2.4v1.8l-4 2.7Z"/>
    <circle cx="23.4" cy="22.1" r="0.95" opacity=".42"/>
    <!-- upper scout -->
    <ellipse cx="22.6" cy="8.2" rx="3.55" ry="1.95"/>
    <rect x="14.8" y="7.45" width="5.8" height="1.5" rx=".75"/>
    <rect x="13.2" y="4.95" width="5.5" height="1.25" rx=".625"/>
    <rect x="13.2" y="10.25" width="5.5" height="1.25" rx=".625"/>
    <path d="m17.9 5.7 2.35 1.65v1.3l-2.35-1.5Zm0 5.25 2.35-1.5v1.3l-2.35 1.65Z"/>
    <!-- trailing scout -->
    <ellipse cx="10.9" cy="12.9" rx="2.95" ry="1.65"/>
    <rect x="4.55" y="12.25" width="4.7" height="1.3" rx=".65"/>
    <rect x="3.25" y="10.25" width="4.55" height="1.05" rx=".525"/>
    <rect x="3.25" y="14.55" width="4.55" height="1.05" rx=".525"/>
  </g></g>
      <text x="160" y="70" class="label">FLEET FORMATION</text>
      <text x="160" y="99" class="meta">route-starships</text>
      <g transform="translate(160 126)" color="#f3a12a">
  <g fill="currentColor">
    <!-- lead vessel -->
    <ellipse cx="22" cy="22.1" rx="5.9" ry="3.25"/>
    <rect x="9.1" y="20.8" width="9.6" height="2.6" rx="1.3"/>
    <rect x="6.1" y="17.1" width="9.7" height="2.15" rx="1.075"/>
    <rect x="6.1" y="24.95" width="9.7" height="2.15" rx="1.075"/>
    <path d="M13.8 18.5 17.8 21.2v1.8l-4-2.4ZM13.8 25.7l4-2.4v1.8l-4 2.7Z"/>
    <circle cx="23.4" cy="22.1" r="0.95" opacity=".42"/>
    <!-- upper scout -->
    <ellipse cx="22.6" cy="8.2" rx="3.55" ry="1.95"/>
    <rect x="14.8" y="7.45" width="5.8" height="1.5" rx=".75"/>
    <rect x="13.2" y="4.95" width="5.5" height="1.25" rx=".625"/>
    <rect x="13.2" y="10.25" width="5.5" height="1.25" rx=".625"/>
    <path d="m17.9 5.7 2.35 1.65v1.3l-2.35-1.5Zm0 5.25 2.35-1.5v1.3l-2.35 1.65Z"/>
    <!-- trailing scout -->
    <ellipse cx="10.9" cy="12.9" rx="2.95" ry="1.65"/>
    <rect x="4.55" y="12.25" width="4.7" height="1.3" rx=".65"/>
    <rect x="3.25" y="10.25" width="4.55" height="1.05" rx=".525"/>
    <rect x="3.25" y="14.55" width="4.55" height="1.05" rx=".525"/>
  </g></g>
      <g transform="translate(220 131) scale(.75)" color="#f3a12a">
  <g fill="currentColor">
    <!-- lead vessel -->
    <ellipse cx="22" cy="22.1" rx="5.9" ry="3.25"/>
    <rect x="9.1" y="20.8" width="9.6" height="2.6" rx="1.3"/>
    <rect x="6.1" y="17.1" width="9.7" height="2.15" rx="1.075"/>
    <rect x="6.1" y="24.95" width="9.7" height="2.15" rx="1.075"/>
    <path d="M13.8 18.5 17.8 21.2v1.8l-4-2.4ZM13.8 25.7l4-2.4v1.8l-4 2.7Z"/>
    <circle cx="23.4" cy="22.1" r="0.95" opacity=".42"/>
    <!-- upper scout -->
    <ellipse cx="22.6" cy="8.2" rx="3.55" ry="1.95"/>
    <rect x="14.8" y="7.45" width="5.8" height="1.5" rx=".75"/>
    <rect x="13.2" y="4.95" width="5.5" height="1.25" rx=".625"/>
    <rect x="13.2" y="10.25" width="5.5" height="1.25" rx=".625"/>
    <path d="m17.9 5.7 2.35 1.65v1.3l-2.35-1.5Zm0 5.25 2.35-1.5v1.3l-2.35 1.65Z"/>
    <!-- trailing scout -->
    <ellipse cx="10.9" cy="12.9" rx="2.95" ry="1.65"/>
    <rect x="4.55" y="12.25" width="4.7" height="1.3" rx=".65"/>
    <rect x="3.25" y="10.25" width="4.55" height="1.05" rx=".525"/>
    <rect x="3.25" y="14.55" width="4.55" height="1.05" rx=".525"/>
  </g></g>
      <g transform="translate(270 135) scale(.55)" color="#f3a12a">
  <g fill="currentColor">
    <!-- lead vessel -->
    <ellipse cx="22" cy="22.1" rx="5.9" ry="3.25"/>
    <rect x="9.1" y="20.8" width="9.6" height="2.6" rx="1.3"/>
    <rect x="6.1" y="17.1" width="9.7" height="2.15" rx="1.075"/>
    <rect x="6.1" y="24.95" width="9.7" height="2.15" rx="1.075"/>
    <path d="M13.8 18.5 17.8 21.2v1.8l-4-2.4ZM13.8 25.7l4-2.4v1.8l-4 2.7Z"/>
    <circle cx="23.4" cy="22.1" r="0.95" opacity=".42"/>
    <!-- upper scout -->
    <ellipse cx="22.6" cy="8.2" rx="3.55" ry="1.95"/>
    <rect x="14.8" y="7.45" width="5.8" height="1.5" rx=".75"/>
    <rect x="13.2" y="4.95" width="5.5" height="1.25" rx=".625"/>
    <rect x="13.2" y="10.25" width="5.5" height="1.25" rx=".625"/>
    <path d="m17.9 5.7 2.35 1.65v1.3l-2.35-1.5Zm0 5.25 2.35-1.5v1.3l-2.35 1.65Z"/>
    <!-- trailing scout -->
    <ellipse cx="10.9" cy="12.9" rx="2.95" ry="1.65"/>
    <rect x="4.55" y="12.25" width="4.7" height="1.3" rx=".65"/>
    <rect x="3.25" y="10.25" width="4.55" height="1.05" rx=".525"/>
    <rect x="3.25" y="14.55" width="4.55" height="1.05" rx=".525"/>
  </g></g>
      <text x="320" y="147" class="meta">32 / 24 / 18 px</text>
    </g>
<g transform="translate(589 180)" filter="url(#shadow)">
      <rect width="440" height="208" rx="28" fill="#080a0d" stroke="#252932" stroke-width="2"/>
      <path d="M0 28Q0 0 28 0h108v208H28Q0 208 0 180Z" fill="#aa88c8"/>
      <rect x="24" y="28" width="88" height="88" rx="25" fill="#030405" opacity=".9"/>
      <g transform="translate(36 40) scale(2)" color="#aa88c8">
  <g fill="none" stroke="currentColor" stroke-linecap="round" stroke-linejoin="round">
    <path d="M7.8 24.2c4.55-1.05 5.2-6.55 9.1-8.65" stroke-width="3.1"/>
    <path d="M20.05 13.85c2.35-1.55 3.1-3.55 4.35-5.45" stroke-width="3.1"/>
    <path d="M11.1 25.2c3.1-.45 4.65-2.05 5.75-4" stroke-width="1.45" opacity=".38"/>
  </g>
  <g fill="currentColor">
    <circle cx="6.15" cy="24.75" r="2.65"/>
    <circle cx="18.35" cy="14.75" r="1.45"/>
    <path d="M25.45 1.65 27.1 5.15l3.5 1.65-3.5 1.65-1.65 3.5-1.65-3.5-3.5-1.65 3.5-1.65Z"/>
    <circle cx="25.45" cy="6.8" r="1.1" opacity=".42"/>
  </g></g>
      <text x="160" y="70" class="label">COURSE PLOT</text>
      <text x="160" y="99" class="meta">route-mission</text>
      <g transform="translate(160 126)" color="#aa88c8">
  <g fill="none" stroke="currentColor" stroke-linecap="round" stroke-linejoin="round">
    <path d="M7.8 24.2c4.55-1.05 5.2-6.55 9.1-8.65" stroke-width="3.1"/>
    <path d="M20.05 13.85c2.35-1.55 3.1-3.55 4.35-5.45" stroke-width="3.1"/>
    <path d="M11.1 25.2c3.1-.45 4.65-2.05 5.75-4" stroke-width="1.45" opacity=".38"/>
  </g>
  <g fill="currentColor">
    <circle cx="6.15" cy="24.75" r="2.65"/>
    <circle cx="18.35" cy="14.75" r="1.45"/>
    <path d="M25.45 1.65 27.1 5.15l3.5 1.65-3.5 1.65-1.65 3.5-1.65-3.5-3.5-1.65 3.5-1.65Z"/>
    <circle cx="25.45" cy="6.8" r="1.1" opacity=".42"/>
  </g></g>
      <g transform="translate(220 131) scale(.75)" color="#aa88c8">
  <g fill="none" stroke="currentColor" stroke-linecap="round" stroke-linejoin="round">
    <path d="M7.8 24.2c4.55-1.05 5.2-6.55 9.1-8.65" stroke-width="3.1"/>
    <path d="M20.05 13.85c2.35-1.55 3.1-3.55 4.35-5.45" stroke-width="3.1"/>
    <path d="M11.1 25.2c3.1-.45 4.65-2.05 5.75-4" stroke-width="1.45" opacity=".38"/>
  </g>
  <g fill="currentColor">
    <circle cx="6.15" cy="24.75" r="2.65"/>
    <circle cx="18.35" cy="14.75" r="1.45"/>
    <path d="M25.45 1.65 27.1 5.15l3.5 1.65-3.5 1.65-1.65 3.5-1.65-3.5-3.5-1.65 3.5-1.65Z"/>
    <circle cx="25.45" cy="6.8" r="1.1" opacity=".42"/>
  </g></g>
      <g transform="translate(270 135) scale(.55)" color="#aa88c8">
  <g fill="none" stroke="currentColor" stroke-linecap="round" stroke-linejoin="round">
    <path d="M7.8 24.2c4.55-1.05 5.2-6.55 9.1-8.65" stroke-width="3.1"/>
    <path d="M20.05 13.85c2.35-1.55 3.1-3.55 4.35-5.45" stroke-width="3.1"/>
    <path d="M11.1 25.2c3.1-.45 4.65-2.05 5.75-4" stroke-width="1.45" opacity=".38"/>
  </g>
  <g fill="currentColor">
    <circle cx="6.15" cy="24.75" r="2.65"/>
    <circle cx="18.35" cy="14.75" r="1.45"/>
    <path d="M25.45 1.65 27.1 5.15l3.5 1.65-3.5 1.65-1.65 3.5-1.65-3.5-3.5-1.65 3.5-1.65Z"/>
    <circle cx="25.45" cy="6.8" r="1.1" opacity=".42"/>
  </g></g>
      <text x="320" y="147" class="meta">32 / 24 / 18 px</text>
    </g>
<g transform="translate(1074 180)" filter="url(#shadow)">
      <rect width="440" height="208" rx="28" fill="#080a0d" stroke="#252932" stroke-width="2"/>
      <path d="M0 28Q0 0 28 0h108v208H28Q0 208 0 180Z" fill="#6e98d6"/>
      <rect x="24" y="28" width="88" height="88" rx="25" fill="#030405" opacity=".9"/>
      <g transform="translate(36 40) scale(2)" color="#6e98d6">
  <g fill="currentColor">
    <circle cx="16" cy="7.3" r="3.45"/>
    <circle cx="8.1" cy="10.15" r="2.55"/>
    <circle cx="23.9" cy="10.15" r="2.55"/>
    <path d="M11.25 15.6c.7-3 2.45-4.45 4.75-4.45s4.05 1.45 4.75 4.45v3.05h-9.5Z"/>
    <path d="M3.9 17.25c.45-2.65 1.9-4.05 4.2-4.05 1.5 0 2.7.6 3.45 1.75-.85 1.2-1.3 2.7-1.35 4.55H3.9Z"/>
    <path d="M28.1 17.25c-.45-2.65-1.9-4.05-4.2-4.05-1.5 0-2.7.6-3.45 1.75.85 1.2 1.3 2.7 1.35 4.55h6.3Z"/>
    <rect x="14.4" y="17.4" width="3.2" height="5.15" rx="1.15"/>
    <circle cx="11.6" cy="26.25" r="1.05"/>
    <circle cx="16" cy="26.25" r="1.05"/>
    <circle cx="20.4" cy="26.25" r="1.05"/>
  </g>
  <path d="M4.35 21.2c2.2 3.55 6.25 5.55 11.65 5.55s9.45-2 11.65-5.55" fill="none" stroke="currentColor" stroke-width="3.2" stroke-linecap="round"/></g>
      <text x="160" y="70" class="label">BRIDGE ROSTER</text>
      <text x="160" y="99" class="meta">route-crew</text>
      <g transform="translate(160 126)" color="#6e98d6">
  <g fill="currentColor">
    <circle cx="16" cy="7.3" r="3.45"/>
    <circle cx="8.1" cy="10.15" r="2.55"/>
    <circle cx="23.9" cy="10.15" r="2.55"/>
    <path d="M11.25 15.6c.7-3 2.45-4.45 4.75-4.45s4.05 1.45 4.75 4.45v3.05h-9.5Z"/>
    <path d="M3.9 17.25c.45-2.65 1.9-4.05 4.2-4.05 1.5 0 2.7.6 3.45 1.75-.85 1.2-1.3 2.7-1.35 4.55H3.9Z"/>
    <path d="M28.1 17.25c-.45-2.65-1.9-4.05-4.2-4.05-1.5 0-2.7.6-3.45 1.75.85 1.2 1.3 2.7 1.35 4.55h6.3Z"/>
    <rect x="14.4" y="17.4" width="3.2" height="5.15" rx="1.15"/>
    <circle cx="11.6" cy="26.25" r="1.05"/>
    <circle cx="16" cy="26.25" r="1.05"/>
    <circle cx="20.4" cy="26.25" r="1.05"/>
  </g>
  <path d="M4.35 21.2c2.2 3.55 6.25 5.55 11.65 5.55s9.45-2 11.65-5.55" fill="none" stroke="currentColor" stroke-width="3.2" stroke-linecap="round"/></g>
      <g transform="translate(220 131) scale(.75)" color="#6e98d6">
  <g fill="currentColor">
    <circle cx="16" cy="7.3" r="3.45"/>
    <circle cx="8.1" cy="10.15" r="2.55"/>
    <circle cx="23.9" cy="10.15" r="2.55"/>
    <path d="M11.25 15.6c.7-3 2.45-4.45 4.75-4.45s4.05 1.45 4.75 4.45v3.05h-9.5Z"/>
    <path d="M3.9 17.25c.45-2.65 1.9-4.05 4.2-4.05 1.5 0 2.7.6 3.45 1.75-.85 1.2-1.3 2.7-1.35 4.55H3.9Z"/>
    <path d="M28.1 17.25c-.45-2.65-1.9-4.05-4.2-4.05-1.5 0-2.7.6-3.45 1.75.85 1.2 1.3 2.7 1.35 4.55h6.3Z"/>
    <rect x="14.4" y="17.4" width="3.2" height="5.15" rx="1.15"/>
    <circle cx="11.6" cy="26.25" r="1.05"/>
    <circle cx="16" cy="26.25" r="1.05"/>
    <circle cx="20.4" cy="26.25" r="1.05"/>
  </g>
  <path d="M4.35 21.2c2.2 3.55 6.25 5.55 11.65 5.55s9.45-2 11.65-5.55" fill="none" stroke="currentColor" stroke-width="3.2" stroke-linecap="round"/></g>
      <g transform="translate(270 135) scale(.55)" color="#6e98d6">
  <g fill="currentColor">
    <circle cx="16" cy="7.3" r="3.45"/>
    <circle cx="8.1" cy="10.15" r="2.55"/>
    <circle cx="23.9" cy="10.15" r="2.55"/>
    <path d="M11.25 15.6c.7-3 2.45-4.45 4.75-4.45s4.05 1.45 4.75 4.45v3.05h-9.5Z"/>
    <path d="M3.9 17.25c.45-2.65 1.9-4.05 4.2-4.05 1.5 0 2.7.6 3.45 1.75-.85 1.2-1.3 2.7-1.35 4.55H3.9Z"/>
    <path d="M28.1 17.25c-.45-2.65-1.9-4.05-4.2-4.05-1.5 0-2.7.6-3.45 1.75.85 1.2 1.3 2.7 1.35 4.55h6.3Z"/>
    <rect x="14.4" y="17.4" width="3.2" height="5.15" rx="1.15"/>
    <circle cx="11.6" cy="26.25" r="1.05"/>
    <circle cx="16" cy="26.25" r="1.05"/>
    <circle cx="20.4" cy="26.25" r="1.05"/>
  </g>
  <path d="M4.35 21.2c2.2 3.55 6.25 5.55 11.65 5.55s9.45-2 11.65-5.55" fill="none" stroke="currentColor" stroke-width="3.2" stroke-linecap="round"/></g>
      <text x="320" y="147" class="meta">32 / 24 / 18 px</text>
    </g>
<g transform="translate(104 430)" filter="url(#shadow)">
      <rect width="440" height="208" rx="28" fill="#080a0d" stroke="#252932" stroke-width="2"/>
      <path d="M0 28Q0 0 28 0h108v208H28Q0 208 0 180Z" fill="#8b72b5"/>
      <rect x="24" y="28" width="88" height="88" rx="25" fill="#030405" opacity=".9"/>
      <g transform="translate(36 40) scale(2)" color="#8b72b5">
  <g fill="currentColor">
    <rect x="7.7" y="14.2" width="10.2" height="3.6" rx="1.8"/>
    <rect x="4.35" y="11.8" width="7" height="8.4" rx="3.4"/>
    <rect x="2.25" y="6.2" width="12.7" height="2.7" rx="1.35"/>
    <rect x="2.25" y="23.1" width="12.7" height="2.7" rx="1.35"/>
    <path d="m11.8 7.4 5.55 6.95v1.7L11.8 9.1Zm0 17.2 5.55-6.95v-1.7l-5.55 6.95Z"/>
    <circle cx="22.35" cy="16" r="2.15"/>
  </g>
  <ellipse cx="22.35" cy="16" rx="7.25" ry="4.85" fill="none" stroke="currentColor" stroke-width="3.15"/>
  <path d="M18.3 16h8.1" fill="none" stroke="currentColor" stroke-width="1.25" stroke-linecap="round" opacity=".46"/></g>
      <text x="160" y="70" class="label">VESSEL SCHEMATIC</text>
      <text x="160" y="99" class="meta">route-ship</text>
      <g transform="translate(160 126)" color="#8b72b5">
  <g fill="currentColor">
    <rect x="7.7" y="14.2" width="10.2" height="3.6" rx="1.8"/>
    <rect x="4.35" y="11.8" width="7" height="8.4" rx="3.4"/>
    <rect x="2.25" y="6.2" width="12.7" height="2.7" rx="1.35"/>
    <rect x="2.25" y="23.1" width="12.7" height="2.7" rx="1.35"/>
    <path d="m11.8 7.4 5.55 6.95v1.7L11.8 9.1Zm0 17.2 5.55-6.95v-1.7l-5.55 6.95Z"/>
    <circle cx="22.35" cy="16" r="2.15"/>
  </g>
  <ellipse cx="22.35" cy="16" rx="7.25" ry="4.85" fill="none" stroke="currentColor" stroke-width="3.15"/>
  <path d="M18.3 16h8.1" fill="none" stroke="currentColor" stroke-width="1.25" stroke-linecap="round" opacity=".46"/></g>
      <g transform="translate(220 131) scale(.75)" color="#8b72b5">
  <g fill="currentColor">
    <rect x="7.7" y="14.2" width="10.2" height="3.6" rx="1.8"/>
    <rect x="4.35" y="11.8" width="7" height="8.4" rx="3.4"/>
    <rect x="2.25" y="6.2" width="12.7" height="2.7" rx="1.35"/>
    <rect x="2.25" y="23.1" width="12.7" height="2.7" rx="1.35"/>
    <path d="m11.8 7.4 5.55 6.95v1.7L11.8 9.1Zm0 17.2 5.55-6.95v-1.7l-5.55 6.95Z"/>
    <circle cx="22.35" cy="16" r="2.15"/>
  </g>
  <ellipse cx="22.35" cy="16" rx="7.25" ry="4.85" fill="none" stroke="currentColor" stroke-width="3.15"/>
  <path d="M18.3 16h8.1" fill="none" stroke="currentColor" stroke-width="1.25" stroke-linecap="round" opacity=".46"/></g>
      <g transform="translate(270 135) scale(.55)" color="#8b72b5">
  <g fill="currentColor">
    <rect x="7.7" y="14.2" width="10.2" height="3.6" rx="1.8"/>
    <rect x="4.35" y="11.8" width="7" height="8.4" rx="3.4"/>
    <rect x="2.25" y="6.2" width="12.7" height="2.7" rx="1.35"/>
    <rect x="2.25" y="23.1" width="12.7" height="2.7" rx="1.35"/>
    <path d="m11.8 7.4 5.55 6.95v1.7L11.8 9.1Zm0 17.2 5.55-6.95v-1.7l-5.55 6.95Z"/>
    <circle cx="22.35" cy="16" r="2.15"/>
  </g>
  <ellipse cx="22.35" cy="16" rx="7.25" ry="4.85" fill="none" stroke="currentColor" stroke-width="3.15"/>
  <path d="M18.3 16h8.1" fill="none" stroke="currentColor" stroke-width="1.25" stroke-linecap="round" opacity=".46"/></g>
      <text x="320" y="147" class="meta">32 / 24 / 18 px</text>
    </g>
<g transform="translate(589 430)" filter="url(#shadow)">
      <rect width="440" height="208" rx="28" fill="#080a0d" stroke="#252932" stroke-width="2"/>
      <path d="M0 28Q0 0 28 0h108v208H28Q0 208 0 180Z" fill="#5f8fcd"/>
      <rect x="24" y="28" width="88" height="88" rx="25" fill="#030405" opacity=".9"/>
      <g transform="translate(36 40) scale(2)" color="#5f8fcd">
  <g fill="currentColor">
    <rect x="4.2" y="3.4" width="3.6" height="25.2" rx="1.8"/>
    <circle cx="6" cy="8.25" r="3.05"/>
    <rect x="11" y="4.65" width="16.7" height="4.15" rx="2.075"/>
    <rect x="11" y="11.65" width="12.4" height="3.55" rx="1.775"/>
    <rect x="11" y="18.15" width="16.7" height="4.15" rx="2.075"/>
    <rect x="11" y="25.15" width="9.45" height="2.7" rx="1.35"/>
    <circle cx="25.95" cy="13.4" r="1.55" opacity=".45"/>
  </g></g>
      <text x="160" y="70" class="label">STARDATE RECORD</text>
      <text x="160" y="99" class="meta">route-log</text>
      <g transform="translate(160 126)" color="#5f8fcd">
  <g fill="currentColor">
    <rect x="4.2" y="3.4" width="3.6" height="25.2" rx="1.8"/>
    <circle cx="6" cy="8.25" r="3.05"/>
    <rect x="11" y="4.65" width="16.7" height="4.15" rx="2.075"/>
    <rect x="11" y="11.65" width="12.4" height="3.55" rx="1.775"/>
    <rect x="11" y="18.15" width="16.7" height="4.15" rx="2.075"/>
    <rect x="11" y="25.15" width="9.45" height="2.7" rx="1.35"/>
    <circle cx="25.95" cy="13.4" r="1.55" opacity=".45"/>
  </g></g>
      <g transform="translate(220 131) scale(.75)" color="#5f8fcd">
  <g fill="currentColor">
    <rect x="4.2" y="3.4" width="3.6" height="25.2" rx="1.8"/>
    <circle cx="6" cy="8.25" r="3.05"/>
    <rect x="11" y="4.65" width="16.7" height="4.15" rx="2.075"/>
    <rect x="11" y="11.65" width="12.4" height="3.55" rx="1.775"/>
    <rect x="11" y="18.15" width="16.7" height="4.15" rx="2.075"/>
    <rect x="11" y="25.15" width="9.45" height="2.7" rx="1.35"/>
    <circle cx="25.95" cy="13.4" r="1.55" opacity=".45"/>
  </g></g>
      <g transform="translate(270 135) scale(.55)" color="#5f8fcd">
  <g fill="currentColor">
    <rect x="4.2" y="3.4" width="3.6" height="25.2" rx="1.8"/>
    <circle cx="6" cy="8.25" r="3.05"/>
    <rect x="11" y="4.65" width="16.7" height="4.15" rx="2.075"/>
    <rect x="11" y="11.65" width="12.4" height="3.55" rx="1.775"/>
    <rect x="11" y="18.15" width="16.7" height="4.15" rx="2.075"/>
    <rect x="11" y="25.15" width="9.45" height="2.7" rx="1.35"/>
    <circle cx="25.95" cy="13.4" r="1.55" opacity=".45"/>
  </g></g>
      <text x="320" y="147" class="meta">32 / 24 / 18 px</text>
    </g>
<g transform="translate(1074 430)" filter="url(#shadow)">
      <rect width="440" height="208" rx="28" fill="#080a0d" stroke="#252932" stroke-width="2"/>
      <path d="M0 28Q0 0 28 0h108v208H28Q0 208 0 180Z" fill="#cf7d75"/>
      <rect x="24" y="28" width="88" height="88" rx="25" fill="#030405" opacity=".9"/>
      <g transform="translate(36 40) scale(2)" color="#cf7d75">
  <g fill="none" stroke="currentColor" stroke-linecap="round" stroke-linejoin="round">
    <path d="M7 4v24M16 4v24M25 4v24" stroke-width="2.7"/>
    <path d="M10.4 10.6h3.9M18.8 21.45h3.05M10.2 24.8h2.1M19.5 8.6h2" stroke-width="2.05" opacity=".5"/>
  </g>
  <g fill="currentColor">
    <rect x="3.15" y="8" width="7.7" height="5.2" rx="2.1"/>
    <rect x="12.15" y="18.85" width="7.7" height="5.2" rx="2.1"/>
    <rect x="21.15" y="10.8" width="7.7" height="5.2" rx="2.1"/>
    <circle cx="7" cy="25.9" r="1.2"/>
    <circle cx="16" cy="7.25" r="1.2"/>
    <circle cx="25" cy="25.2" r="1.2"/>
  </g></g>
      <text x="160" y="70" class="label">SYSTEMS MATRIX</text>
      <text x="160" y="99" class="meta">route-settings</text>
      <g transform="translate(160 126)" color="#cf7d75">
  <g fill="none" stroke="currentColor" stroke-linecap="round" stroke-linejoin="round">
    <path d="M7 4v24M16 4v24M25 4v24" stroke-width="2.7"/>
    <path d="M10.4 10.6h3.9M18.8 21.45h3.05M10.2 24.8h2.1M19.5 8.6h2" stroke-width="2.05" opacity=".5"/>
  </g>
  <g fill="currentColor">
    <rect x="3.15" y="8" width="7.7" height="5.2" rx="2.1"/>
    <rect x="12.15" y="18.85" width="7.7" height="5.2" rx="2.1"/>
    <rect x="21.15" y="10.8" width="7.7" height="5.2" rx="2.1"/>
    <circle cx="7" cy="25.9" r="1.2"/>
    <circle cx="16" cy="7.25" r="1.2"/>
    <circle cx="25" cy="25.2" r="1.2"/>
  </g></g>
      <g transform="translate(220 131) scale(.75)" color="#cf7d75">
  <g fill="none" stroke="currentColor" stroke-linecap="round" stroke-linejoin="round">
    <path d="M7 4v24M16 4v24M25 4v24" stroke-width="2.7"/>
    <path d="M10.4 10.6h3.9M18.8 21.45h3.05M10.2 24.8h2.1M19.5 8.6h2" stroke-width="2.05" opacity=".5"/>
  </g>
  <g fill="currentColor">
    <rect x="3.15" y="8" width="7.7" height="5.2" rx="2.1"/>
    <rect x="12.15" y="18.85" width="7.7" height="5.2" rx="2.1"/>
    <rect x="21.15" y="10.8" width="7.7" height="5.2" rx="2.1"/>
    <circle cx="7" cy="25.9" r="1.2"/>
    <circle cx="16" cy="7.25" r="1.2"/>
    <circle cx="25" cy="25.2" r="1.2"/>
  </g></g>
      <g transform="translate(270 135) scale(.55)" color="#cf7d75">
  <g fill="none" stroke="currentColor" stroke-linecap="round" stroke-linejoin="round">
    <path d="M7 4v24M16 4v24M25 4v24" stroke-width="2.7"/>
    <path d="M10.4 10.6h3.9M18.8 21.45h3.05M10.2 24.8h2.1M19.5 8.6h2" stroke-width="2.05" opacity=".5"/>
  </g>
  <g fill="currentColor">
    <rect x="3.15" y="8" width="7.7" height="5.2" rx="2.1"/>
    <rect x="12.15" y="18.85" width="7.7" height="5.2" rx="2.1"/>
    <rect x="21.15" y="10.8" width="7.7" height="5.2" rx="2.1"/>
    <circle cx="7" cy="25.9" r="1.2"/>
    <circle cx="16" cy="7.25" r="1.2"/>
    <circle cx="25" cy="25.2" r="1.2"/>
  </g></g>
      <text x="320" y="147" class="meta">32 / 24 / 18 px</text>
    </g>
<text x="104" y="700" class="label">SHELL CONTROLS</text>
<g transform="translate(104 728)">
      <rect width="250" height="105" rx="22" fill="#080a0d" stroke="#2d2635" stroke-width="2"/>
      <rect x="16" y="17" width="72" height="72" rx="23" fill="#121015" stroke="#f3a12a" stroke-opacity=".55"/>
      <g transform="translate(28 29) scale(1.5)" color="#f3a12a">
  <g fill="currentColor">
    <rect x="3.2" y="3.4" width="5.4" height="25.2" rx="2.7"/>
    <path d="M11.2 7.2h13.4a4.2 4.2 0 0 1 4.2 4.2v9.2a4.2 4.2 0 0 1-4.2 4.2H11.2Z" opacity=".34"/>
    <rect x="11.2" y="7.2" width="3.2" height="17.6" rx="1.6"/>
  </g>
  <path d="m23 11.6-4.7 4.4 4.7 4.4" fill="none" stroke="currentColor" stroke-width="3.1" stroke-linecap="round" stroke-linejoin="round"/></g>
      <text x="105" y="45" class="label" font-size="15">COLLAPSE DRAWER</text>
      <text x="105" y="70" class="meta">action-drawer-collapse</text>
    </g>
<g transform="translate(390 728)">
      <rect width="250" height="105" rx="22" fill="#080a0d" stroke="#2d2635" stroke-width="2"/>
      <rect x="16" y="17" width="72" height="72" rx="23" fill="#121015" stroke="#f3a12a" stroke-opacity=".55"/>
      <g transform="translate(28 29) scale(1.5)" color="#f3a12a">
  <g fill="currentColor">
    <rect x="3.2" y="3.4" width="5.4" height="25.2" rx="2.7"/>
    <path d="M11.2 7.2h13.4a4.2 4.2 0 0 1 4.2 4.2v9.2a4.2 4.2 0 0 1-4.2 4.2H11.2Z" opacity=".34"/>
    <rect x="11.2" y="7.2" width="3.2" height="17.6" rx="1.6"/>
  </g>
  <path d="m18.2 11.6 4.7 4.4-4.7 4.4" fill="none" stroke="currentColor" stroke-width="3.1" stroke-linecap="round" stroke-linejoin="round"/></g>
      <text x="105" y="45" class="label" font-size="15">EXPAND DRAWER</text>
      <text x="105" y="70" class="meta">action-drawer-expand</text>
    </g>
<g transform="translate(676 728)">
      <rect width="250" height="105" rx="22" fill="#080a0d" stroke="#2d2635" stroke-width="2"/>
      <rect x="16" y="17" width="72" height="72" rx="23" fill="#121015" stroke="#f3a12a" stroke-opacity=".55"/>
      <g transform="translate(28 29) scale(1.5)" color="#f3a12a">
  <g fill="none" stroke="currentColor" stroke-linecap="round" stroke-linejoin="round">
    <path d="M13 5H7.4A2.4 2.4 0 0 0 5 7.4V13" stroke-width="4"/>
    <path d="M19 5h5.6A2.4 2.4 0 0 1 27 7.4V13" stroke-width="2.9"/>
    <path d="M5 19v5.6A2.4 2.4 0 0 0 7.4 27H13" stroke-width="2.9"/>
    <path d="M27 19v5.6a2.4 2.4 0 0 1-2.4 2.4H19" stroke-width="4"/>
  </g>
  <circle cx="16" cy="16" r="1.35" fill="currentColor" opacity=".42"/></g>
      <text x="105" y="45" class="label" font-size="15">FULL SCREEN</text>
      <text x="105" y="70" class="meta">action-fullscreen</text>
    </g>
<g transform="translate(962 728)">
      <rect width="250" height="105" rx="22" fill="#080a0d" stroke="#2d2635" stroke-width="2"/>
      <rect x="16" y="17" width="72" height="72" rx="23" fill="#121015" stroke="#f3a12a" stroke-opacity=".55"/>
      <g transform="translate(28 29) scale(1.5)" color="#f3a12a">
  <g fill="none" stroke="currentColor" stroke-linejoin="round">
    <path d="M11 5.2h11.6a4.2 4.2 0 0 1 4.2 4.2V21" stroke-width="3" stroke-linecap="round" opacity=".48"/>
    <rect x="5.2" y="10.1" width="18.2" height="16.7" rx="4" stroke-width="3.5"/>
  </g>
  <g fill="currentColor">
    <rect x="9" y="14" width="10.6" height="2.65" rx="1.325"/>
    <circle cx="19.6" cy="22.4" r="1.25" opacity=".48"/>
  </g></g>
      <text x="105" y="45" class="label" font-size="15">RESTORE DRAWER</text>
      <text x="105" y="70" class="meta">action-restore</text>
    </g>
<g transform="translate(1248 728)">
      <rect width="250" height="105" rx="22" fill="#080a0d" stroke="#2d2635" stroke-width="2"/>
      <rect x="16" y="17" width="72" height="72" rx="23" fill="#121015" stroke="#f3a12a" stroke-opacity=".55"/>
      <g transform="translate(28 29) scale(1.5)" color="#f3a12a">
  <g fill="currentColor">
    <rect x="4" y="3.5" width="5.2" height="25" rx="2.6"/>
    <rect x="12.2" y="6" width="14.8" height="4.5" rx="2.25" opacity=".32"/>
    <rect x="12.2" y="13.75" width="11.3" height="4.5" rx="2.25" opacity=".32"/>
    <rect x="12.2" y="21.5" width="14.8" height="4.5" rx="2.25" opacity=".32"/>
  </g>
  <path d="m21.4 11.4-4.7 4.6 4.7 4.6" fill="none" stroke="currentColor" stroke-width="3" stroke-linecap="round" stroke-linejoin="round"/></g>
      <text x="105" y="45" class="label" font-size="15">COMPACT SHELF</text>
      <text x="105" y="70" class="meta">action-density-compact</text>
    </g>
<g transform="translate(104 863)">
      <rect width="250" height="105" rx="22" fill="#080a0d" stroke="#2d2635" stroke-width="2"/>
      <rect x="16" y="17" width="72" height="72" rx="23" fill="#121015" stroke="#f3a12a" stroke-opacity=".55"/>
      <g transform="translate(28 29) scale(1.5)" color="#f3a12a">
  <g fill="currentColor">
    <rect x="4" y="3.5" width="5.2" height="25" rx="2.6"/>
    <rect x="12.2" y="6" width="14.8" height="4.5" rx="2.25" opacity=".52"/>
    <rect x="12.2" y="13.75" width="11.3" height="4.5" rx="2.25" opacity=".52"/>
    <rect x="12.2" y="21.5" width="14.8" height="4.5" rx="2.25" opacity=".52"/>
  </g>
  <path d="m16.6 11.4 4.7 4.6-4.7 4.6" fill="none" stroke="currentColor" stroke-width="3" stroke-linecap="round" stroke-linejoin="round"/></g>
      <text x="105" y="45" class="label" font-size="15">EXPANDED SHELF</text>
      <text x="105" y="70" class="meta">action-density-expanded</text>
    </g>
<g transform="translate(390 863)">
      <rect width="250" height="105" rx="22" fill="#080a0d" stroke="#2d2635" stroke-width="2"/>
      <rect x="16" y="17" width="72" height="72" rx="23" fill="#121015" stroke="#f3a12a" stroke-opacity=".55"/>
      <g transform="translate(28 29) scale(1.5)" color="#f3a12a">
  <g fill="none" stroke="currentColor" stroke-linecap="round">
    <path d="m8 8 16 16" stroke-width="4.2"/>
    <path d="M24 8 8 24" stroke-width="4.2"/>
  </g>
  <circle cx="26.7" cy="5.3" r="1.35" fill="currentColor" opacity=".45"/></g>
      <text x="105" y="45" class="label" font-size="15">CLOSE</text>
      <text x="105" y="70" class="meta">action-close</text>
    </g>
<g transform="translate(676 863)">
      <rect width="250" height="105" rx="22" fill="#080a0d" stroke="#2d2635" stroke-width="2"/>
      <rect x="16" y="17" width="72" height="72" rx="23" fill="#121015" stroke="#f3a12a" stroke-opacity=".55"/>
      <g transform="translate(28 29) scale(1.5)" color="#f3a12a">
  <g fill="none" stroke="currentColor" stroke-linecap="round" stroke-linejoin="round">
    <path d="M25.8 13.1A10.25 10.25 0 0 0 8.4 8.2" stroke-width="3.1"/>
    <path d="M6.2 18.8a10.25 10.25 0 0 0 17.4 5" stroke-width="3.1"/>
    <path d="m7.8 4.8.5 4.1 4.1-.5M24.2 27.2l-.5-4.1-4.1.5" stroke-width="2.8"/>
  </g>
  <rect x="14.05" y="14.05" width="3.9" height="3.9" rx="1" fill="currentColor" opacity=".48"/></g>
      <text x="105" y="45" class="label" font-size="15">REFRESH DIAGNOSTICS</text>
      <text x="105" y="70" class="meta">action-refresh</text>
    </g>
<g transform="translate(962 863)">
      <rect width="250" height="105" rx="22" fill="#080a0d" stroke="#2d2635" stroke-width="2"/>
      <rect x="16" y="17" width="72" height="72" rx="23" fill="#121015" stroke="#f3a12a" stroke-opacity=".55"/>
      <g transform="translate(28 29) scale(1.5)" color="#f3a12a">
  <g fill="none" stroke="currentColor" stroke-linecap="round" stroke-linejoin="round">
    <path d="M5 11v16h16" stroke-width="4"/>
    <path d="M10.5 15.5V22h6.5" stroke-width="3.25" opacity=".78"/>
    <path d="M16 20v-4h4" stroke-width="2.45" opacity=".52"/>
  </g>
  <circle cx="26.1" cy="5.9" r="1.25" fill="currentColor" opacity=".42"/></g>
      <text x="105" y="45" class="label" font-size="15">RESIZE DRAWER</text>
      <text x="105" y="70" class="meta">action-resize</text>
    </g>
</svg>