<?xml version="1.0" encoding="UTF-8"?>
<svg xmlns="http://www.w3.org/2000/svg" viewBox="0 0 1254 1254" shape-rendering="geometricPrecision" width="128" height="128">
  <title>Directive Fullscreen icon, dark variant</title>
  <defs>
    <linearGradient id="dark-fullscreen-main" x1="0" y1="0.5" x2="1" y2="0.5" gradientTransform="rotate(-73.4010 .5 .5)"><stop offset="0%" stop-color="#1f2229"/><stop offset="20%" stop-color="#202229"/><stop offset="40%" stop-color="#202228"/><stop offset="60%" stop-color="#1f2128"/><stop offset="80%" stop-color="#1f2228"/><stop offset="100%" stop-color="#202229"/></linearGradient>
    <linearGradient id="dark-fullscreen-accent" x1="0" y1="0.5" x2="1" y2="0.5" gradientTransform="rotate(102.2238 .5 .5)"><stop offset="0%" stop-color="#5e6482"/><stop offset="20%" stop-color="#5f6584"/><stop offset="40%" stop-color="#606683"/><stop offset="60%" stop-color="#606683"/><stop offset="80%" stop-color="#606683"/><stop offset="100%" stop-color="#606684"/></linearGradient>
  </defs>
  <path d="M 282.00 533.00 L 291.00 531.22 L 302.00 525.22 L 310.33 516.00 L 313.06 511.00 L 315.27 504.00 L 316.22 497.00 L 316.20 315.00 L 316.44 311.00 L 319.46 303.00 L 324.08 298.00 L 330.00 293.50 L 339.00 291.19 L 472.00 291.20 L 473.23 290.00 L 473.00 221.80 L 285.00 221.62 L 274.00 223.96 L 265.00 227.83 L 257.00 233.69 L 248.83 243.00 L 244.92 250.00 L 242.74 256.00 L 240.81 268.00 L 240.88 498.00 L 241.83 504.00 L 244.68 512.00 L 247.67 517.00 L 254.00 524.06 L 260.00 528.26 L 269.00 532.06 L 276.00 533.21 L 282.00 533.00 Z M 523.00 291.06 L 530.00 290.11 L 539.00 286.34 L 545.00 282.14 L 551.14 275.00 L 554.16 269.00 L 556.13 262.00 L 556.33 253.00 L 554.19 244.00 L 551.21 238.00 L 546.32 232.00 L 540.00 226.84 L 534.00 223.75 L 523.00 221.60 L 495.00 221.83 L 494.75 290.00 L 496.00 291.18 L 523.00 291.06 Z M 967.00 533.09 L 977.00 531.13 L 984.00 528.30 L 992.00 523.11 L 997.32 518.00 L 1003.28 510.00 L 1006.12 504.00 L 1008.21 497.00 L 1009.35 489.00 L 1009.14 254.00 L 1005.16 242.00 L 1001.21 236.00 L 996.00 230.64 L 987.00 224.72 L 976.00 221.60 L 965.00 221.85 L 956.00 224.90 L 951.00 227.69 L 944.89 233.00 L 940.92 238.00 L 937.77 244.00 L 935.87 250.00 L 934.75 257.00 L 934.66 440.00 L 933.54 447.00 L 928.54 455.00 L 920.00 461.55 L 914.00 463.55 L 780.00 463.66 L 778.82 465.00 L 778.72 532.00 L 780.00 533.25 L 967.00 533.09 Z M 756.00 533.23 L 756.33 464.00 L 725.00 463.80 L 716.00 465.84 L 707.00 470.70 L 700.59 477.00 L 697.70 481.00 L 694.85 487.00 L 692.96 496.00 L 692.95 500.00 L 694.94 510.00 L 699.77 519.00 L 707.00 526.20 L 714.00 530.27 L 719.00 532.06 L 726.00 533.22 L 756.00 533.23 Z M 286.00 1017.20 L 297.00 1013.18 L 303.00 1009.08 L 307.19 1005.00 L 310.20 1001.00 L 314.20 993.00 L 316.16 985.00 L 316.32 799.00 L 316.47 795.00 L 320.46 786.00 L 328.00 778.44 L 339.00 774.46 L 473.00 774.21 L 473.00 705.93 L 285.00 705.72 L 272.00 708.81 L 264.00 712.75 L 253.89 721.00 L 246.77 731.00 L 242.92 741.00 L 241.60 750.00 L 241.85 986.00 L 243.70 993.00 L 247.80 1001.00 L 252.75 1007.00 L 258.00 1011.30 L 265.00 1015.19 L 272.00 1017.29 L 286.00 1017.20 Z M 528.00 774.19 L 535.00 772.22 L 542.00 768.27 L 549.40 761.00 L 552.20 757.00 L 555.17 750.00 L 556.38 743.00 L 556.03 734.00 L 553.33 726.00 L 549.20 719.00 L 545.00 714.70 L 540.00 710.82 L 534.00 707.76 L 524.00 705.64 L 495.00 705.94 L 494.83 774.00 L 528.00 774.19 Z M 1007.00 803.03 L 1008.15 802.00 L 1007.45 793.00 L 1008.00 751.00 L 1007.37 737.00 L 1005.26 729.00 L 1002.21 723.00 L 993.00 712.79 L 984.00 707.79 L 978.00 705.95 L 965.00 705.81 L 953.00 709.99 L 947.00 714.56 L 939.79 723.00 L 936.92 729.00 L 934.78 737.00 L 934.63 802.00 L 1006.00 802.47 L 1007.00 803.03 Z M 971.00 1017.05 L 978.00 1015.14 L 984.00 1012.34 L 994.00 1005.10 L 999.31 999.00 L 1003.03 993.00 L 1007.18 981.00 L 1008.15 973.00 L 1008.04 848.00 L 1007.45 838.00 L 1008.03 831.00 L 1007.47 828.00 L 1008.04 827.00 L 1007.00 826.52 L 934.67 827.00 L 934.56 926.00 L 933.55 930.00 L 930.54 936.00 L 923.00 943.52 L 917.00 946.54 L 911.00 947.64 L 724.00 947.86 L 714.00 950.74 L 706.00 955.64 L 698.99 963.00 L 695.79 969.00 L 693.80 975.00 L 692.96 983.00 L 693.81 990.00 L 695.77 996.00 L 699.72 1003.00 L 707.00 1010.35 L 711.00 1013.15 L 722.00 1017.18 L 971.00 1017.05 Z" fill="url(#dark-fullscreen-main)" fill-rule="evenodd"/>
  <path d="M 975.00 339.25 L 978.00 337.19 L 979.00 337.27 L 983.27 333.00 L 983.20 332.00 L 985.13 329.00 L 985.14 322.00 L 983.21 319.00 L 983.28 318.00 L 979.00 313.73 L 978.00 313.82 L 975.00 311.75 L 967.00 311.91 L 965.00 312.74 L 963.00 314.81 L 962.00 314.88 L 958.77 319.00 L 958.83 321.00 L 957.73 322.00 L 957.73 329.00 L 958.82 330.00 L 958.77 332.00 L 965.00 338.25 L 968.00 339.26 L 975.00 339.25 Z M 280.00 396.11 L 281.00 395.17 L 282.00 395.24 L 285.15 392.00 L 285.27 345.00 L 284.00 342.91 L 281.00 341.83 L 280.00 340.74 L 276.00 340.74 L 271.72 344.00 L 271.80 346.00 L 270.76 347.00 L 270.74 390.00 L 271.81 391.00 L 273.00 394.27 L 274.00 394.17 L 277.00 396.26 L 280.00 396.11 Z M 974.00 426.26 L 976.00 424.18 L 977.00 424.20 L 978.27 422.00 L 978.24 367.00 L 978.14 366.00 L 976.00 363.74 L 975.00 363.86 L 974.00 362.78 L 968.00 362.80 L 964.72 366.00 L 964.81 368.00 L 963.91 369.00 L 964.00 373.00 L 964.81 374.00 L 964.82 381.00 L 963.98 382.00 L 963.92 384.00 L 963.99 387.00 L 964.82 388.00 L 964.82 394.00 L 963.98 395.00 L 964.82 397.00 L 964.82 410.00 L 963.91 411.00 L 963.87 419.00 L 964.83 420.00 L 964.74 422.00 L 965.81 423.00 L 965.72 424.00 L 967.00 425.24 L 968.00 425.19 L 969.00 426.27 L 974.00 426.26 Z M 280.00 445.07 L 281.00 444.14 L 283.00 444.24 L 286.00 442.18 L 287.00 442.26 L 290.26 439.00 L 291.15 436.00 L 292.27 435.00 L 292.24 428.00 L 290.18 423.00 L 287.00 419.79 L 284.00 418.83 L 283.00 417.74 L 280.00 417.84 L 279.00 416.94 L 278.00 417.84 L 274.00 417.74 L 267.88 422.00 L 267.80 423.00 L 265.75 425.00 L 265.82 427.00 L 264.73 428.00 L 264.75 435.00 L 265.81 436.00 L 266.89 439.00 L 270.00 442.26 L 273.00 443.14 L 274.00 444.24 L 276.00 444.13 L 277.00 445.10 L 280.00 445.07 Z M 282.00 875.17 L 285.24 872.00 L 285.25 816.00 L 284.19 815.00 L 284.25 814.00 L 282.00 811.78 L 275.00 811.75 L 271.73 815.00 L 271.79 822.00 L 270.90 823.00 L 270.84 851.00 L 270.97 855.00 L 271.80 856.00 L 271.79 863.00 L 270.94 864.00 L 270.77 869.00 L 271.73 872.00 L 275.00 875.23 L 282.00 875.17 Z M 283.00 925.27 L 284.00 924.18 L 287.00 923.27 L 290.24 920.00 L 291.17 917.00 L 292.26 916.00 L 292.27 908.00 L 291.17 907.00 L 291.06 905.00 L 290.27 904.00 L 286.00 899.89 L 284.00 898.80 L 281.00 898.82 L 280.00 897.76 L 278.00 897.74 L 276.00 898.81 L 273.00 898.86 L 271.00 900.82 L 270.00 900.74 L 265.78 906.00 L 265.80 908.00 L 264.73 909.00 L 264.73 915.00 L 265.83 916.00 L 265.73 918.00 L 267.83 920.00 L 267.74 921.00 L 269.00 922.26 L 274.00 925.23 L 283.00 925.27 Z M 900.00 996.27 L 901.00 995.18 L 903.00 995.26 L 905.00 993.17 L 906.00 993.09 L 906.17 992.00 L 909.06 989.00 L 909.18 987.00 L 910.17 986.00 L 910.21 979.00 L 908.16 976.00 L 908.28 975.00 L 905.00 971.75 L 904.00 971.88 L 902.00 969.97 L 899.00 969.83 L 897.00 968.78 L 896.00 968.78 L 895.00 969.84 L 891.00 969.76 L 890.00 970.84 L 889.00 970.74 L 885.00 974.73 L 884.83 976.00 L 883.75 977.00 L 883.80 979.00 L 882.72 980.00 L 882.73 985.00 L 883.80 987.00 L 883.90 989.00 L 890.00 995.26 L 892.00 995.15 L 893.00 996.26 L 900.00 996.27 Z M 853.00 990.13 L 854.00 989.20 L 855.00 989.25 L 857.25 987.00 L 858.27 984.00 L 858.28 981.00 L 857.17 980.00 L 857.22 979.00 L 854.00 975.73 L 798.00 975.74 L 793.73 979.00 L 793.83 981.00 L 792.76 982.00 L 792.81 984.00 L 794.83 987.00 L 794.75 988.00 L 796.00 989.03 L 798.00 989.17 L 799.00 990.27 L 853.00 990.13 Z" fill="url(#dark-fullscreen-accent)" fill-rule="evenodd"/>
</svg>
