<?xml version="1.0" encoding="UTF-8"?>
<svg xmlns="http://www.w3.org/2000/svg" viewBox="0 0 1254 1254" shape-rendering="geometricPrecision" width="128" height="128">
  <title>Directive Drawer Expand icon, dark variant</title>
  <defs>
    <linearGradient id="dark-drawer-expand-main" x1="0" y1="0.5" x2="1" y2="0.5" gradientTransform="rotate(-135.9629 .5 .5)"><stop offset="0%" stop-color="#1d222a"/><stop offset="20%" stop-color="#1e232b"/><stop offset="40%" stop-color="#1e232b"/><stop offset="60%" stop-color="#1e232b"/><stop offset="80%" stop-color="#1d232a"/><stop offset="100%" stop-color="#1e242c"/></linearGradient>
    <linearGradient id="dark-drawer-expand-accent" x1="0" y1="0.5" x2="1" y2="0.5" gradientTransform="rotate(114.9018 .5 .5)"><stop offset="0%" stop-color="#6b6f89"/><stop offset="20%" stop-color="#6d708b"/><stop offset="40%" stop-color="#6d718b"/><stop offset="60%" stop-color="#6d708b"/><stop offset="80%" stop-color="#6d708b"/><stop offset="100%" stop-color="#6d718b"/></linearGradient>
  </defs>
  <path d="M 463.00 367.32 L 463.36 256.00 L 462.17 249.00 L 460.07 244.00 L 455.31 237.00 L 451.00 232.87 L 444.00 228.68 L 438.00 226.72 L 429.00 226.00 L 418.00 227.87 L 410.00 231.89 L 402.72 239.00 L 398.78 246.00 L 396.71 253.00 L 396.54 367.00 L 463.00 367.32 Z M 932.00 927.07 L 939.00 926.20 L 949.00 923.19 L 959.00 918.10 L 966.00 912.44 L 973.14 905.00 L 979.04 896.00 L 983.19 885.00 L 985.31 875.00 L 985.37 395.00 L 984.06 387.00 L 981.18 378.00 L 976.31 369.00 L 970.08 361.00 L 959.00 351.87 L 948.00 346.67 L 936.00 343.85 L 922.00 343.86 L 915.00 345.52 L 903.00 346.72 L 868.00 352.51 L 856.00 353.79 L 855.00 354.52 L 842.00 355.78 L 841.00 356.50 L 835.00 356.81 L 821.00 359.52 L 728.00 372.76 L 700.00 377.51 L 688.00 378.71 L 653.00 384.52 L 613.00 389.73 L 592.00 393.52 L 573.00 395.77 L 572.00 396.52 L 525.00 402.85 L 518.00 404.52 L 512.00 404.73 L 503.00 407.73 L 497.00 411.94 L 490.95 420.00 L 488.97 425.00 L 487.90 432.00 L 487.97 523.00 L 489.90 530.00 L 495.00 537.07 L 502.00 541.28 L 506.00 542.34 L 571.00 542.46 L 578.00 544.45 L 587.00 549.45 L 594.52 557.00 L 598.52 564.00 L 600.52 570.00 L 601.53 581.00 L 600.53 589.00 L 598.50 595.00 L 593.56 604.00 L 594.00 604.44 L 704.00 604.46 L 710.00 605.45 L 718.00 608.46 L 724.00 612.45 L 731.54 620.00 L 737.52 631.00 L 739.52 641.00 L 739.53 648.00 L 736.53 659.00 L 730.54 669.00 L 721.00 677.54 L 713.00 681.54 L 709.00 682.56 L 703.00 683.55 L 594.00 683.58 L 593.58 684.00 L 597.50 691.00 L 600.52 700.00 L 600.77 705.00 L 601.53 706.00 L 601.51 712.00 L 600.53 717.00 L 597.50 726.00 L 594.52 731.00 L 586.00 739.52 L 579.00 743.53 L 568.00 746.51 L 505.00 746.60 L 500.00 747.83 L 495.00 750.69 L 488.82 758.00 L 486.98 763.00 L 486.59 767.00 L 486.72 830.00 L 488.96 837.00 L 491.80 842.00 L 498.00 848.21 L 503.00 851.08 L 509.00 853.06 L 515.00 853.47 L 522.00 855.27 L 549.00 859.48 L 550.00 860.20 L 604.00 869.49 L 610.00 871.14 L 621.00 872.48 L 622.00 873.26 L 660.00 879.50 L 694.00 886.28 L 721.00 890.49 L 917.00 926.21 L 923.00 927.13 L 932.00 927.07 Z M 463.00 853.30 L 463.40 772.00 L 462.00 770.75 L 456.00 769.53 L 446.00 764.51 L 443.00 762.52 L 434.00 753.59 L 430.48 749.00 L 426.47 741.00 L 423.48 729.00 L 423.47 557.00 L 425.48 547.00 L 427.47 542.00 L 433.49 532.00 L 443.42 522.00 L 447.00 519.47 L 455.00 515.46 L 463.17 513.00 L 463.28 390.00 L 397.00 389.54 L 396.54 628.00 L 395.00 628.84 L 296.00 628.96 L 294.00 629.92 L 289.87 634.00 L 287.92 639.00 L 287.90 644.00 L 289.94 649.00 L 292.00 651.10 L 295.00 653.03 L 299.00 654.17 L 396.00 654.24 L 396.56 655.00 L 396.56 853.00 L 463.00 853.30 Z M 340.00 576.00 L 341.00 575.18 L 344.00 575.11 L 348.00 573.09 L 352.06 568.00 L 352.19 565.00 L 353.05 564.00 L 352.13 558.00 L 350.07 554.00 L 348.00 551.99 L 344.00 549.94 L 272.00 549.87 L 267.00 552.00 L 264.90 554.00 L 261.89 561.00 L 261.96 565.00 L 263.96 570.00 L 268.00 574.00 L 275.00 576.01 L 286.00 576.00 L 287.00 575.16 L 295.00 575.16 L 296.00 576.00 L 340.00 576.00 Z M 568.00 593.23 L 573.00 591.22 L 577.16 587.00 L 579.09 582.00 L 579.28 578.00 L 578.05 573.00 L 575.28 569.00 L 572.00 566.63 L 567.00 564.92 L 459.00 564.86 L 455.00 565.72 L 451.00 567.87 L 446.77 573.00 L 445.74 576.00 L 445.69 582.00 L 447.81 587.00 L 452.00 591.01 L 458.00 593.27 L 568.00 593.23 Z M 706.00 660.19 L 710.00 658.16 L 714.21 654.00 L 717.13 647.00 L 717.28 642.00 L 715.37 636.00 L 711.00 630.67 L 706.00 627.76 L 701.00 627.00 L 673.00 627.53 L 514.00 626.97 L 502.00 627.53 L 493.00 626.98 L 483.00 627.53 L 463.00 626.97 L 457.00 627.90 L 453.00 629.75 L 447.84 635.00 L 445.61 641.00 L 445.77 649.00 L 447.62 653.00 L 450.00 656.14 L 453.00 658.36 L 458.00 660.38 L 706.00 660.19 Z M 569.00 723.25 L 573.00 721.33 L 577.30 717.00 L 579.10 712.00 L 579.31 709.00 L 577.30 702.00 L 573.00 697.69 L 568.00 695.64 L 457.00 695.70 L 452.00 697.78 L 450.00 699.61 L 447.70 702.00 L 445.65 707.00 L 445.99 714.00 L 447.97 718.00 L 451.00 721.03 L 456.00 723.30 L 569.00 723.25 Z M 325.00 728.08 L 326.00 727.17 L 329.00 727.10 L 332.00 725.24 L 335.10 722.00 L 336.18 718.00 L 336.08 710.00 L 335.10 708.00 L 331.00 703.92 L 326.00 701.97 L 247.00 701.95 L 242.00 703.89 L 239.00 705.99 L 236.90 709.00 L 235.97 712.00 L 235.90 718.00 L 237.92 723.00 L 240.00 725.15 L 247.00 728.01 L 325.00 728.08 Z M 436.00 992.14 L 445.00 989.18 L 452.00 984.26 L 458.25 977.00 L 462.27 968.00 L 463.35 961.00 L 463.27 876.00 L 397.00 875.57 L 396.53 961.00 L 397.71 969.00 L 401.84 978.00 L 405.89 983.00 L 411.00 987.24 L 417.00 990.26 L 423.00 992.06 L 436.00 992.14 Z" fill="url(#dark-drawer-expand-main)" fill-rule="evenodd"/>
  <path d="M 340.00 576.00 L 341.00 575.18 L 344.00 575.11 L 348.00 573.09 L 352.06 568.00 L 352.19 565.00 L 353.05 564.00 L 352.13 558.00 L 350.07 554.00 L 348.00 551.99 L 344.00 549.94 L 272.00 549.87 L 271.00 550.83 L 269.00 550.89 L 267.00 552.00 L 264.90 554.00 L 262.87 558.00 L 262.81 560.00 L 261.89 561.00 L 261.96 565.00 L 262.82 566.00 L 262.93 568.00 L 263.96 570.00 L 268.00 574.00 L 270.00 574.16 L 271.00 575.12 L 274.00 575.19 L 275.00 576.01 L 286.00 576.00 L 287.00 575.16 L 295.00 575.16 L 296.00 576.00 L 340.00 576.00 Z M 810.00 665.23 L 811.00 664.12 L 815.00 664.20 L 816.00 663.08 L 818.00 663.11 L 819.00 662.11 L 820.00 662.19 L 826.24 657.00 L 826.10 656.00 L 829.24 653.00 L 829.09 652.00 L 831.23 649.00 L 831.11 646.00 L 832.22 644.00 L 832.25 638.00 L 831.13 637.00 L 831.25 633.00 L 830.11 632.00 L 830.03 630.00 L 828.10 628.00 L 828.22 627.00 L 821.00 619.77 L 820.00 619.92 L 817.00 617.78 L 815.00 617.95 L 814.00 616.79 L 811.00 616.94 L 810.00 615.77 L 806.00 615.76 L 804.00 616.90 L 801.00 616.77 L 800.00 617.90 L 798.00 617.84 L 795.00 619.90 L 794.00 619.86 L 786.89 627.00 L 786.89 628.00 L 785.77 629.00 L 785.92 630.00 L 784.77 631.00 L 784.94 633.00 L 783.79 634.00 L 783.91 637.00 L 782.76 638.00 L 782.78 644.00 L 783.94 646.00 L 783.94 649.00 L 785.87 652.00 L 785.88 653.00 L 788.92 656.00 L 788.76 657.00 L 792.00 660.13 L 793.00 660.06 L 797.00 663.19 L 799.00 663.06 L 800.00 664.23 L 804.00 664.06 L 805.00 665.20 L 810.00 665.23 Z M 934.00 654.23 L 935.00 653.10 L 937.00 653.14 L 942.23 648.00 L 942.13 647.00 L 943.24 646.00 L 943.10 642.00 L 944.01 641.00 L 943.10 640.00 L 943.14 636.00 L 941.10 634.00 L 941.24 633.00 L 936.00 628.78 L 933.00 628.88 L 932.00 627.77 L 862.00 627.78 L 861.00 628.90 L 858.00 628.76 L 857.00 629.87 L 856.00 629.76 L 851.78 634.00 L 851.87 635.00 L 850.80 636.00 L 850.89 638.00 L 849.77 639.00 L 849.76 644.00 L 850.87 645.00 L 850.76 647.00 L 851.88 648.00 L 851.76 649.00 L 855.00 652.23 L 856.00 652.03 L 857.00 653.20 L 859.00 653.07 L 860.00 654.20 L 934.00 654.23 Z M 396.00 654.23 L 396.00 628.77 L 297.00 628.82 L 294.00 629.92 L 289.87 634.00 L 288.87 636.00 L 288.80 638.00 L 287.92 639.00 L 287.90 644.00 L 288.79 645.00 L 288.90 647.00 L 289.94 649.00 L 295.00 653.03 L 297.00 653.17 L 298.00 654.03 L 396.00 654.23 Z M 325.00 728.08 L 326.00 727.17 L 329.00 727.10 L 332.00 725.24 L 335.10 722.00 L 336.18 718.00 L 336.08 710.00 L 335.10 708.00 L 331.00 703.92 L 329.00 702.92 L 327.00 702.84 L 326.00 701.97 L 247.00 701.95 L 246.00 702.81 L 244.00 702.88 L 242.00 703.89 L 240.00 705.81 L 239.00 705.99 L 236.90 709.00 L 236.81 711.00 L 235.97 712.00 L 235.90 718.00 L 236.83 719.00 L 236.86 721.00 L 237.92 723.00 L 240.00 725.15 L 247.00 728.01 L 325.00 728.08 Z" fill="url(#dark-drawer-expand-accent)" fill-rule="evenodd"/>
</svg>
