<?xml version="1.0" encoding="UTF-8"?>
<svg xmlns="http://www.w3.org/2000/svg" viewBox="0 0 1254 1254" shape-rendering="geometricPrecision" width="128" height="128">
  <title>Directive Restore icon, dark variant</title>
  <defs>
    <linearGradient id="dark-restore-main" x1="0" y1="0.5" x2="1" y2="0.5" gradientTransform="rotate(-153.7392 .5 .5)"><stop offset="0%" stop-color="#252930"/><stop offset="20%" stop-color="#252930"/><stop offset="40%" stop-color="#262930"/><stop offset="60%" stop-color="#262930"/><stop offset="80%" stop-color="#252930"/><stop offset="100%" stop-color="#262930"/></linearGradient>
    <linearGradient id="dark-restore-accent" x1="0" y1="0.5" x2="1" y2="0.5" gradientTransform="rotate(118.2649 .5 .5)"><stop offset="0%" stop-color="#5c5d77"/><stop offset="20%" stop-color="#5c5d78"/><stop offset="40%" stop-color="#5c5d78"/><stop offset="60%" stop-color="#5e5f79"/><stop offset="80%" stop-color="#5f5f79"/><stop offset="100%" stop-color="#5e5f79"/></linearGradient>
  </defs>
  <path d="M 282.00 563.11 L 290.00 561.20 L 297.00 557.15 L 303.32 550.00 L 307.22 541.00 L 307.47 382.00 L 308.23 381.00 L 309.47 373.00 L 312.44 366.00 L 316.00 361.40 L 322.00 356.42 L 328.00 354.42 L 331.00 354.42 L 335.00 355.41 L 340.00 358.42 L 410.58 433.00 L 411.54 437.00 L 394.59 455.00 L 393.98 457.00 L 396.00 459.31 L 446.00 459.30 L 450.00 458.09 L 454.03 455.00 L 457.18 448.00 L 457.22 396.00 L 455.00 393.64 L 454.00 393.67 L 437.69 410.00 L 435.00 410.57 L 365.42 338.00 L 361.44 330.00 L 361.42 321.00 L 365.44 313.00 L 371.00 307.44 L 376.00 304.47 L 388.00 301.46 L 497.00 301.50 L 497.00 235.61 L 358.00 235.66 L 356.00 236.57 L 348.00 236.73 L 337.00 238.94 L 317.00 245.89 L 300.00 255.70 L 291.00 262.78 L 281.58 272.00 L 268.86 288.00 L 260.70 303.00 L 256.77 313.00 L 252.91 327.00 L 252.59 332.00 L 251.88 333.00 L 251.57 343.00 L 250.79 344.00 L 250.83 537.00 L 252.91 545.00 L 254.83 549.00 L 262.00 557.22 L 267.00 560.32 L 272.00 562.21 L 282.00 563.11 Z M 572.00 301.28 L 578.00 299.20 L 584.00 295.41 L 591.13 288.00 L 595.13 280.00 L 596.35 275.00 L 596.21 262.00 L 593.04 253.00 L 589.16 247.00 L 581.00 239.87 L 574.00 236.76 L 569.00 235.68 L 514.00 235.70 L 513.59 301.00 L 572.00 301.28 Z M 739.00 301.38 L 739.00 235.71 L 684.00 235.73 L 683.00 236.56 L 679.00 236.83 L 672.00 239.87 L 668.00 242.67 L 662.78 248.00 L 658.72 255.00 L 656.87 261.00 L 656.66 276.00 L 658.96 283.00 L 661.75 288.00 L 665.93 293.00 L 670.00 296.31 L 677.00 300.03 L 682.00 301.37 L 739.00 301.38 Z M 976.00 563.17 L 986.00 560.24 L 993.21 555.00 L 999.27 546.00 L 1001.42 537.00 L 1001.20 337.00 L 1000.43 336.00 L 999.16 325.00 L 995.03 311.00 L 990.05 299.00 L 983.16 287.00 L 971.33 272.00 L 962.00 262.86 L 953.00 255.77 L 934.00 244.97 L 923.00 240.86 L 911.00 237.69 L 897.00 236.55 L 895.00 235.66 L 756.00 235.62 L 756.00 301.50 L 865.00 301.45 L 875.00 303.47 L 881.00 306.43 L 885.00 309.44 L 889.56 315.00 L 891.58 319.00 L 892.59 324.00 L 891.57 332.00 L 886.55 340.00 L 819.00 410.57 L 816.08 410.00 L 800.00 393.79 L 798.00 393.75 L 796.65 395.00 L 796.57 448.00 L 797.81 452.00 L 799.78 455.00 L 804.00 458.13 L 808.00 459.28 L 857.00 459.14 L 859.02 456.00 L 858.03 454.00 L 842.43 438.00 L 842.41 433.00 L 897.46 374.00 L 914.00 357.43 L 922.00 354.41 L 925.00 354.42 L 931.00 356.42 L 934.00 358.43 L 939.54 365.00 L 943.56 374.00 L 945.53 383.00 L 944.97 384.00 L 945.53 390.00 L 945.66 541.00 L 947.79 547.00 L 950.81 552.00 L 957.00 558.10 L 966.00 562.24 L 976.00 563.17 Z M 812.00 765.04 L 819.00 763.20 L 825.00 760.27 L 833.38 753.00 L 839.33 744.00 L 842.33 734.00 L 842.34 519.00 L 840.26 511.00 L 837.26 505.00 L 834.33 501.00 L 827.00 493.74 L 818.00 488.96 L 808.00 486.70 L 445.00 486.70 L 435.00 488.83 L 427.00 492.83 L 422.00 496.78 L 416.72 503.00 L 412.84 510.00 L 410.61 518.00 L 410.53 585.00 L 410.00 586.00 L 410.53 587.00 L 410.00 706.00 L 410.57 734.00 L 411.94 740.00 L 414.97 747.00 L 417.65 751.00 L 426.00 759.03 L 434.00 763.13 L 444.00 765.38 L 812.00 765.04 Z M 612.72 733.00 L 611.00 733.68 L 453.00 733.56 L 446.00 730.56 L 438.46 723.00 L 435.44 714.00 L 435.44 709.00 L 436.46 705.00 L 439.46 699.00 L 442.14 696.00 L 448.00 691.44 L 457.00 688.47 L 479.00 689.05 L 611.00 688.46 L 612.78 690.00 L 612.72 733.00 Z M 800.75 733.00 L 796.00 733.71 L 641.00 733.65 L 640.25 732.00 L 640.25 690.00 L 642.00 688.47 L 653.00 689.08 L 800.00 689.44 L 807.00 692.47 L 812.54 698.00 L 816.56 706.00 L 816.92 711.00 L 816.55 717.00 L 812.55 725.00 L 808.00 729.57 L 803.00 732.54 L 800.75 733.00 Z M 497.00 1009.47 L 497.00 944.70 L 383.00 944.55 L 374.00 941.54 L 371.00 939.60 L 364.43 933.00 L 361.42 926.00 L 361.41 920.00 L 364.45 912.00 L 434.22 840.00 L 437.00 839.45 L 453.00 855.39 L 456.37 855.00 L 456.47 804.00 L 456.34 802.00 L 454.38 798.00 L 451.00 794.69 L 445.00 792.63 L 396.00 792.64 L 394.52 794.00 L 394.60 797.00 L 411.00 814.20 L 411.55 817.00 L 371.54 859.00 L 340.00 890.61 L 333.00 893.58 L 329.00 893.62 L 324.00 892.60 L 320.00 890.56 L 314.46 885.00 L 310.46 878.00 L 307.46 864.00 L 307.46 715.00 L 306.24 708.00 L 303.30 702.00 L 298.00 695.85 L 292.00 691.95 L 286.00 689.78 L 273.00 689.80 L 267.00 691.88 L 262.00 694.94 L 254.94 703.00 L 252.92 707.00 L 250.89 715.00 L 250.84 902.00 L 251.58 903.00 L 251.78 911.00 L 252.59 912.00 L 253.84 921.00 L 258.84 937.00 L 264.87 950.00 L 273.87 964.00 L 286.00 978.01 L 302.00 991.06 L 312.00 997.03 L 323.00 1002.22 L 339.00 1007.20 L 350.00 1008.42 L 351.00 1009.25 L 358.00 1009.45 L 497.00 1009.47 Z M 902.00 1009.21 L 903.00 1008.44 L 909.00 1008.11 L 917.00 1006.23 L 936.00 999.18 L 953.00 989.19 L 963.00 981.14 L 977.23 966.00 L 986.08 953.00 L 993.10 939.00 L 999.13 920.00 L 1001.42 902.00 L 1001.28 712.00 L 998.31 704.00 L 993.19 697.00 L 986.00 691.92 L 980.00 689.86 L 967.00 689.86 L 958.00 693.79 L 953.00 697.90 L 949.75 702.00 L 945.84 711.00 L 944.98 716.00 L 945.53 717.00 L 945.54 865.00 L 942.55 878.00 L 938.57 885.00 L 933.00 890.58 L 926.00 893.59 L 921.00 893.59 L 917.00 892.57 L 912.00 889.56 L 842.41 817.00 L 842.36 813.00 L 858.13 797.00 L 859.00 795.00 L 857.00 792.60 L 806.00 792.82 L 802.00 794.67 L 799.56 797.00 L 796.59 803.00 L 796.66 854.00 L 799.00 855.32 L 801.00 854.36 L 814.00 840.44 L 817.00 839.09 L 819.99 840.00 L 888.57 911.00 L 891.59 917.00 L 891.75 920.00 L 892.57 921.00 L 891.58 928.00 L 887.55 935.00 L 885.00 937.55 L 879.00 941.54 L 870.00 944.55 L 756.00 944.75 L 755.50 946.00 L 756.00 1009.48 L 902.00 1009.21 Z M 572.00 1009.18 L 580.00 1006.08 L 585.00 1002.40 L 590.24 997.00 L 595.25 987.00 L 596.31 983.00 L 596.29 971.00 L 594.22 964.00 L 589.35 956.00 L 581.00 948.81 L 574.00 945.81 L 569.00 944.82 L 514.00 944.96 L 513.63 1009.00 L 572.00 1009.18 Z M 739.00 1009.39 L 739.00 944.89 L 684.00 944.84 L 679.00 945.90 L 672.00 948.93 L 666.00 953.60 L 660.75 960.00 L 656.66 971.00 L 656.79 984.00 L 658.65 990.00 L 661.78 996.00 L 666.00 1001.15 L 671.00 1005.00 L 675.00 1007.14 L 682.00 1009.33 L 739.00 1009.39 Z" fill="url(#dark-restore-main)" fill-rule="evenodd"/>
  <path d="M 549.00 614.25 L 550.00 613.21 L 552.00 613.25 L 553.00 612.20 L 555.00 612.24 L 557.00 610.20 L 558.00 610.26 L 565.21 603.00 L 565.22 602.00 L 567.22 599.00 L 567.23 597.00 L 568.15 596.00 L 568.20 592.00 L 569.08 591.00 L 569.00 589.00 L 568.19 588.00 L 569.09 587.00 L 568.23 585.00 L 568.21 582.00 L 567.20 581.00 L 567.18 579.00 L 566.23 578.00 L 566.25 577.00 L 564.22 575.00 L 564.27 574.00 L 558.00 567.77 L 557.00 567.79 L 556.00 566.76 L 555.00 566.80 L 550.00 563.93 L 538.00 563.77 L 537.00 564.81 L 535.00 564.73 L 534.00 565.80 L 532.00 565.85 L 530.00 567.81 L 529.00 567.75 L 522.92 574.00 L 519.92 580.00 L 519.80 583.00 L 518.81 584.00 L 518.77 595.00 L 519.78 596.00 L 519.79 598.00 L 521.76 601.00 L 521.74 602.00 L 523.80 604.00 L 523.74 605.00 L 529.00 610.26 L 530.00 610.18 L 532.00 612.15 L 534.00 612.19 L 535.00 613.26 L 537.00 613.20 L 538.00 614.19 L 549.00 614.25 Z M 724.00 602.07 L 725.00 601.21 L 727.00 601.12 L 731.23 598.00 L 731.18 597.00 L 733.23 595.00 L 733.22 592.00 L 734.25 591.00 L 734.19 587.00 L 733.24 586.00 L 733.26 584.00 L 732.20 583.00 L 732.26 582.00 L 728.00 577.75 L 727.00 577.82 L 726.00 576.75 L 724.00 576.79 L 723.00 575.79 L 604.00 575.74 L 603.00 576.81 L 600.00 576.77 L 598.00 578.78 L 597.00 578.77 L 594.80 581.00 L 593.80 584.00 L 592.75 585.00 L 592.82 594.00 L 593.80 595.00 L 593.74 596.00 L 598.00 600.24 L 599.00 600.20 L 600.00 601.23 L 603.00 601.20 L 604.00 602.17 L 724.00 602.07 Z M 640.00 733.26 L 640.24 690.00 L 641.23 689.00 L 639.00 689.83 L 618.00 689.83 L 617.00 688.94 L 614.00 688.86 L 613.00 689.78 L 612.00 688.77 L 612.78 690.00 L 612.74 733.00 L 640.00 733.26 Z M 648.00 734.18 L 641.82 734.00 L 648.00 734.18 Z" fill="url(#dark-restore-accent)" fill-rule="evenodd"/>
</svg>
