<?xml version="1.0" encoding="UTF-8"?>
<svg xmlns="http://www.w3.org/2000/svg" viewBox="0 0 1254 1254" shape-rendering="geometricPrecision" width="128" height="128">
  <title>Directive Drawer Collapse icon, dark variant</title>
  <defs>
    <linearGradient id="dark-drawer-collapse-main" x1="0" y1="0.5" x2="1" y2="0.5" gradientTransform="rotate(-135.2131 .5 .5)"><stop offset="0%" stop-color="#20232b"/><stop offset="20%" stop-color="#1f232a"/><stop offset="40%" stop-color="#1f232a"/><stop offset="60%" stop-color="#20232b"/><stop offset="80%" stop-color="#1f232a"/><stop offset="100%" stop-color="#20232b"/></linearGradient>
    <linearGradient id="dark-drawer-collapse-accent" x1="0" y1="0.5" x2="1" y2="0.5" gradientTransform="rotate(73.7637 .5 .5)"><stop offset="0%" stop-color="#474a5e"/><stop offset="20%" stop-color="#494d62"/><stop offset="40%" stop-color="#4a4d61"/><stop offset="60%" stop-color="#494c60"/><stop offset="80%" stop-color="#4b4e63"/><stop offset="100%" stop-color="#4b4e62"/></linearGradient>
  </defs>
  <path d="M 389.00 384.31 L 389.25 283.00 L 387.29 272.00 L 382.36 260.00 L 379.21 255.00 L 373.03 248.00 L 368.00 243.81 L 360.00 238.98 L 352.00 235.85 L 341.00 233.77 L 331.00 233.77 L 330.00 234.54 L 320.00 235.78 L 310.00 239.87 L 299.00 247.77 L 291.97 256.00 L 286.92 265.00 L 282.72 280.00 L 282.57 384.00 L 389.00 384.31 Z M 662.00 501.27 L 663.02 276.00 L 662.00 274.62 L 644.00 274.67 L 642.00 275.57 L 636.00 275.73 L 629.00 277.72 L 619.00 282.69 L 612.00 287.98 L 605.69 295.00 L 601.95 301.00 L 598.72 308.00 L 596.66 315.00 L 595.54 325.00 L 595.50 500.00 L 596.00 501.23 L 662.00 501.27 Z M 941.00 955.03 L 952.00 953.12 L 960.00 950.07 L 971.00 942.40 L 976.13 937.00 L 982.08 928.00 L 986.06 917.00 L 987.36 909.00 L 986.43 855.00 L 987.35 321.00 L 984.03 306.00 L 978.03 295.00 L 971.00 286.99 L 964.00 281.91 L 958.00 278.71 L 945.00 274.89 L 679.00 274.66 L 677.98 276.00 L 678.56 277.00 L 677.90 285.00 L 677.89 926.00 L 677.97 952.00 L 678.56 953.00 L 677.97 954.00 L 679.00 955.05 L 697.00 954.46 L 766.00 955.04 L 828.00 955.00 L 829.00 954.47 L 835.00 955.00 L 836.00 954.46 L 839.00 955.00 L 935.00 955.00 L 938.00 954.46 L 941.00 955.03 Z M 389.00 833.26 L 389.42 401.00 L 283.00 400.57 L 282.65 833.00 L 389.00 833.26 Z M 552.00 449.25 L 553.00 448.36 L 556.00 448.09 L 559.00 446.20 L 561.13 444.00 L 563.16 440.00 L 563.05 430.00 L 559.33 425.00 L 555.00 421.89 L 548.00 421.65 L 547.00 420.99 L 537.00 421.00 L 536.00 421.64 L 465.00 421.75 L 458.84 426.00 L 456.97 429.00 L 456.67 432.00 L 455.83 433.00 L 455.86 438.00 L 457.78 443.00 L 462.00 447.27 L 467.00 449.18 L 552.00 449.25 Z M 553.00 512.03 L 559.00 509.19 L 561.13 507.00 L 563.29 503.00 L 564.11 497.00 L 563.06 492.00 L 561.28 489.00 L 558.00 485.81 L 553.00 483.69 L 447.00 483.69 L 442.00 485.78 L 438.70 489.00 L 435.85 496.00 L 436.65 503.00 L 438.75 507.00 L 441.00 509.30 L 447.00 512.21 L 553.00 512.03 Z M 662.00 955.11 L 663.00 954.00 L 662.48 953.00 L 663.00 733.00 L 662.48 530.00 L 663.03 522.00 L 662.48 519.00 L 663.03 518.00 L 662.00 516.74 L 596.00 516.72 L 595.67 911.00 L 598.95 923.00 L 602.89 931.00 L 610.76 941.00 L 617.00 946.16 L 626.00 951.08 L 636.00 954.20 L 643.00 955.04 L 661.00 954.44 L 662.00 955.11 Z M 496.00 689.01 L 499.34 686.00 L 500.19 684.00 L 500.47 655.00 L 504.00 650.46 L 509.00 648.47 L 562.00 648.43 L 569.00 646.31 L 573.25 643.00 L 576.13 639.00 L 578.07 633.00 L 578.04 602.00 L 576.02 595.00 L 573.08 591.00 L 569.00 587.95 L 562.00 585.61 L 508.00 585.53 L 505.00 584.54 L 500.48 579.00 L 500.23 552.00 L 499.22 549.00 L 497.00 546.75 L 495.00 545.83 L 492.00 545.78 L 485.00 550.82 L 422.56 614.00 L 421.54 618.00 L 422.55 621.00 L 434.98 634.00 L 488.00 687.20 L 491.00 689.31 L 496.00 689.01 Z M 553.00 752.16 L 558.00 750.05 L 561.13 747.00 L 563.29 743.00 L 564.14 736.00 L 563.10 732.00 L 560.28 728.00 L 556.00 725.00 L 552.00 723.82 L 448.00 723.79 L 443.00 725.64 L 439.78 728.00 L 437.59 731.00 L 435.94 736.00 L 435.98 740.00 L 437.98 746.00 L 442.00 750.22 L 447.00 752.30 L 553.00 752.16 Z M 555.00 813.13 L 560.00 809.31 L 563.13 805.00 L 563.22 795.00 L 562.06 792.00 L 559.00 788.75 L 556.00 786.90 L 553.00 786.68 L 552.00 785.79 L 468.00 785.79 L 461.00 788.77 L 457.90 792.00 L 455.89 797.00 L 456.00 803.00 L 457.76 807.00 L 460.00 810.00 L 465.00 813.17 L 555.00 813.13 Z M 346.00 1002.03 L 353.00 1000.27 L 360.00 997.33 L 372.00 989.18 L 381.29 978.00 L 387.11 965.00 L 389.35 953.00 L 389.08 849.00 L 283.00 848.84 L 282.68 957.00 L 286.90 972.00 L 290.76 979.00 L 296.92 987.00 L 303.00 992.28 L 311.00 997.27 L 325.00 1002.16 L 346.00 1002.03 Z" fill="url(#dark-drawer-collapse-main)" fill-rule="evenodd"/>
  <path d="M 699.00 275.20 L 678.79 275.00 L 699.00 275.20 Z M 707.00 275.22 L 707.00 274.78 L 700.78 275.00 L 707.00 275.22 Z M 890.00 275.24 L 890.00 274.76 L 881.78 275.00 L 890.00 275.24 Z M 940.00 275.26 L 940.00 274.74 L 931.72 275.00 L 940.00 275.26 Z M 905.00 453.16 L 909.00 451.27 L 915.30 445.00 L 915.28 444.00 L 917.27 441.00 L 917.29 438.00 L 918.19 437.00 L 918.18 433.00 L 917.29 431.00 L 917.31 429.00 L 916.27 428.00 L 916.16 426.00 L 914.26 424.00 L 914.29 423.00 L 908.00 417.76 L 901.00 415.72 L 898.00 415.87 L 897.00 416.71 L 894.00 416.69 L 893.00 417.72 L 891.00 417.78 L 889.00 419.73 L 888.00 419.70 L 884.72 423.00 L 884.72 424.00 L 882.84 426.00 L 882.71 428.00 L 881.69 429.00 L 881.70 432.00 L 880.76 433.00 L 880.81 437.00 L 881.69 438.00 L 881.73 441.00 L 883.71 444.00 L 883.69 445.00 L 885.73 447.00 L 885.81 448.00 L 890.00 451.30 L 891.00 451.26 L 892.00 452.31 L 894.00 452.27 L 895.00 453.28 L 905.00 453.16 Z M 552.00 449.24 L 553.00 448.27 L 556.00 448.09 L 558.00 446.26 L 559.00 446.20 L 561.13 444.00 L 563.16 440.00 L 563.05 430.00 L 560.31 426.00 L 557.00 422.88 L 555.00 421.89 L 548.00 421.73 L 547.00 420.99 L 537.00 421.00 L 536.00 421.75 L 465.00 421.76 L 461.00 423.89 L 458.85 426.00 L 456.97 429.00 L 456.70 432.00 L 455.83 433.00 L 455.86 438.00 L 457.79 443.00 L 462.00 447.27 L 463.00 447.05 L 464.00 448.27 L 466.00 448.22 L 467.00 449.17 L 552.00 449.24 Z M 836.00 449.25 L 837.00 448.29 L 839.00 448.29 L 840.00 447.29 L 841.00 447.31 L 844.00 445.28 L 847.23 441.00 L 847.29 439.00 L 848.31 437.00 L 848.31 432.00 L 847.27 431.00 L 847.30 429.00 L 846.26 428.00 L 846.31 427.00 L 842.00 422.70 L 841.00 422.73 L 838.00 420.71 L 735.00 420.75 L 732.00 422.71 L 731.00 422.69 L 726.69 427.00 L 726.71 428.00 L 724.79 431.00 L 724.70 438.00 L 726.81 443.00 L 730.00 446.29 L 737.00 449.14 L 836.00 449.25 Z M 925.00 516.06 L 928.00 515.01 L 930.00 513.28 L 931.00 513.30 L 934.23 510.00 L 934.29 509.00 L 935.31 508.00 L 935.29 507.00 L 936.28 506.00 L 936.31 495.00 L 934.28 490.00 L 932.00 487.69 L 928.00 484.71 L 925.00 483.74 L 737.00 483.69 L 732.00 485.69 L 730.00 487.73 L 728.91 488.00 L 728.73 489.00 L 726.69 491.00 L 726.72 492.00 L 725.69 493.00 L 725.74 495.00 L 724.76 496.00 L 724.77 504.00 L 725.71 505.00 L 725.70 507.00 L 726.71 508.00 L 726.70 509.00 L 730.00 513.18 L 731.00 513.27 L 733.00 515.12 L 737.00 516.25 L 925.00 516.06 Z M 631.00 501.20 L 621.80 501.00 L 631.00 501.20 Z M 356.00 630.05 L 360.00 628.27 L 364.23 623.00 L 364.30 621.00 L 365.24 620.00 L 365.30 615.00 L 364.29 614.00 L 364.31 612.00 L 363.30 611.00 L 363.29 610.00 L 359.00 605.71 L 358.00 605.74 L 357.00 604.70 L 355.00 604.73 L 354.00 603.80 L 347.00 603.97 L 346.00 604.71 L 339.00 604.72 L 338.00 603.94 L 336.00 603.82 L 313.00 603.96 L 312.00 604.71 L 310.00 604.70 L 305.00 607.73 L 301.78 612.00 L 301.70 614.00 L 300.83 615.00 L 300.80 620.00 L 301.71 621.00 L 301.77 623.00 L 302.75 625.00 L 306.00 628.30 L 307.00 628.26 L 310.00 630.24 L 356.00 630.05 Z M 555.00 813.12 L 557.00 812.11 L 560.31 809.00 L 563.12 805.00 L 563.22 795.00 L 562.05 792.00 L 559.00 788.76 L 558.00 788.76 L 556.00 786.90 L 553.00 786.69 L 552.00 785.79 L 468.00 785.79 L 467.00 786.75 L 464.00 786.95 L 462.00 788.69 L 461.00 788.78 L 457.91 792.00 L 455.89 797.00 L 456.00 803.00 L 457.76 807.00 L 460.00 810.00 L 465.00 813.16 L 555.00 813.12 Z" fill="url(#dark-drawer-collapse-accent)" fill-rule="evenodd"/>
</svg>
