<?xml version="1.0" encoding="UTF-8"?>
<svg xmlns="http://www.w3.org/2000/svg" viewBox="0 0 1254 1254" shape-rendering="geometricPrecision" width="128" height="128">
  <title>Directive Settings icon, dark variant</title>
  <defs>
    <linearGradient id="dark-settings-main" x1="0" y1="0.5" x2="1" y2="0.5" gradientTransform="rotate(105.8797 .5 .5)"><stop offset="0%" stop-color="#262a32"/><stop offset="20%" stop-color="#252932"/><stop offset="40%" stop-color="#262932"/><stop offset="60%" stop-color="#252931"/><stop offset="80%" stop-color="#262932"/><stop offset="100%" stop-color="#252932"/></linearGradient>
    <linearGradient id="dark-settings-accent" x1="0" y1="0.5" x2="1" y2="0.5" gradientTransform="rotate(110.9834 .5 .5)"><stop offset="0%" stop-color="#545974"/><stop offset="20%" stop-color="#565a76"/><stop offset="40%" stop-color="#555a74"/><stop offset="60%" stop-color="#565b76"/><stop offset="80%" stop-color="#565b76"/><stop offset="100%" stop-color="#575c76"/></linearGradient>
  </defs>
  <path d="M 897.00 433.01 L 905.00 431.25 L 914.00 425.33 L 917.15 422.00 L 920.25 417.00 L 922.20 412.00 L 922.45 409.00 L 924.00 406.44 L 970.45 406.00 L 970.00 347.50 L 924.00 347.54 L 920.38 337.00 L 915.45 330.00 L 909.00 324.66 L 903.00 321.90 L 898.00 320.82 L 710.00 320.70 L 703.00 320.84 L 699.00 321.75 L 689.00 326.79 L 681.75 335.00 L 678.87 342.00 L 678.58 346.00 L 677.00 347.54 L 650.50 348.00 L 650.54 406.00 L 678.00 406.41 L 679.75 414.00 L 682.81 420.00 L 688.00 426.01 L 697.00 431.30 L 706.00 433.06 L 897.00 433.01 Z M 638.00 406.29 L 638.37 348.00 L 638.00 346.90 L 637.00 346.70 L 210.00 346.69 L 204.00 347.90 L 200.00 349.72 L 190.86 357.00 L 185.71 366.00 L 183.94 375.00 L 184.75 385.00 L 186.86 391.00 L 189.84 396.00 L 198.00 403.12 L 206.00 406.32 L 638.00 406.29 Z M 1044.00 406.08 L 1050.00 404.06 L 1057.00 399.23 L 1063.10 391.00 L 1065.33 385.00 L 1066.25 379.00 L 1065.27 369.00 L 1061.28 360.00 L 1057.00 354.90 L 1050.00 349.89 L 1043.00 347.69 L 983.50 348.00 L 984.00 406.50 L 1044.00 406.08 Z M 895.00 865.00 L 905.00 863.01 L 913.00 858.25 L 919.18 851.00 L 922.00 845.00 L 922.47 840.00 L 924.00 838.44 L 970.44 838.00 L 970.00 779.64 L 924.00 779.68 L 922.46 778.00 L 922.10 774.00 L 920.19 769.00 L 916.18 763.00 L 910.00 757.81 L 904.00 754.82 L 900.00 753.76 L 762.00 753.53 L 760.45 750.00 L 760.14 744.00 L 758.22 738.00 L 754.18 730.00 L 751.20 726.00 L 744.00 718.90 L 738.00 714.88 L 731.00 711.80 L 724.00 709.89 L 517.00 709.56 L 510.00 707.56 L 505.00 704.58 L 497.46 697.00 L 494.46 692.00 L 492.47 685.00 L 492.25 649.00 L 493.00 647.44 L 572.00 647.03 L 578.00 645.03 L 583.00 642.10 L 589.25 636.00 L 593.23 629.00 L 595.00 620.38 L 626.21 620.00 L 626.00 561.63 L 596.00 561.53 L 594.42 560.00 L 594.20 557.00 L 592.01 551.00 L 586.00 542.75 L 579.00 537.78 L 569.00 534.72 L 395.00 534.63 L 374.00 534.80 L 364.00 538.00 L 360.00 540.63 L 353.83 547.00 L 350.67 553.00 L 349.53 559.00 L 348.00 561.54 L 309.58 562.00 L 310.00 620.28 L 348.00 620.35 L 351.83 632.00 L 356.96 639.00 L 364.00 644.35 L 372.00 647.22 L 466.00 647.44 L 466.96 649.00 L 466.98 683.00 L 467.87 691.00 L 470.77 701.00 L 475.99 711.00 L 481.59 718.00 L 488.00 724.14 L 500.00 731.22 L 509.00 734.11 L 518.00 735.31 L 721.00 735.45 L 726.00 737.45 L 730.00 740.44 L 735.56 749.00 L 735.92 752.00 L 735.00 753.54 L 704.00 753.57 L 698.00 754.70 L 690.00 758.73 L 682.77 766.00 L 679.73 772.00 L 678.00 779.65 L 650.72 780.00 L 650.55 838.00 L 677.00 838.45 L 678.59 840.00 L 679.87 847.00 L 683.82 854.00 L 689.00 859.18 L 694.00 862.20 L 699.00 864.14 L 705.00 865.08 L 863.00 865.11 L 890.00 864.46 L 895.00 865.00 Z M 297.00 620.03 L 297.00 561.72 L 208.00 561.83 L 201.00 564.60 L 196.00 567.83 L 190.65 574.00 L 187.66 580.00 L 186.72 583.00 L 185.90 593.00 L 186.80 599.00 L 188.62 604.00 L 191.66 609.00 L 197.00 614.39 L 201.00 617.15 L 206.00 619.18 L 212.00 620.31 L 297.00 620.03 Z M 1042.00 620.04 L 1051.00 617.03 L 1059.25 610.00 L 1064.22 601.00 L 1065.46 593.00 L 1065.25 584.00 L 1063.10 578.00 L 1060.17 573.00 L 1055.00 567.63 L 1051.00 564.75 L 1043.00 561.71 L 638.57 562.00 L 639.00 620.28 L 1042.00 620.04 Z M 637.00 839.16 L 638.37 838.00 L 638.38 781.00 L 638.00 779.80 L 637.00 779.64 L 211.00 779.72 L 201.00 782.68 L 193.89 788.00 L 188.81 795.00 L 185.63 806.00 L 185.64 813.00 L 186.87 819.00 L 190.71 827.00 L 197.00 833.40 L 201.00 836.02 L 207.00 838.29 L 212.00 839.04 L 637.00 839.16 Z M 1042.00 838.16 L 1050.00 835.33 L 1056.00 831.24 L 1060.35 826.00 L 1064.02 818.00 L 1065.17 811.00 L 1064.30 802.00 L 1061.23 794.00 L 1057.42 789.00 L 1050.00 782.94 L 1040.00 779.76 L 984.00 779.63 L 982.99 838.00 L 1042.00 838.16 Z" fill="url(#dark-settings-main)" fill-rule="evenodd"/>
  <path d="M 832.00 321.21 L 825.00 320.77 L 703.76 321.00 L 832.00 321.21 Z M 843.00 321.18 L 833.82 321.00 L 843.00 321.18 Z M 882.00 321.24 L 882.00 320.76 L 845.78 321.00 L 882.00 321.24 Z M 896.00 321.24 L 896.00 320.76 L 884.75 321.00 L 896.00 321.24 Z M 257.00 347.15 L 248.89 347.00 L 257.00 347.15 Z M 266.00 347.02 L 258.88 347.00 L 266.00 347.02 Z M 298.00 347.17 L 288.90 347.00 L 298.00 347.17 Z M 322.00 347.11 L 299.81 347.00 L 322.00 347.11 Z M 363.00 347.20 L 341.81 347.00 L 363.00 347.20 Z M 382.00 347.21 L 382.00 346.79 L 366.78 347.00 L 382.00 347.21 Z M 404.00 347.22 L 404.00 346.78 L 384.81 347.00 L 404.00 347.22 Z M 473.00 347.22 L 473.00 346.78 L 434.82 347.00 L 473.00 347.22 Z M 524.00 347.12 L 476.79 347.00 L 524.00 347.12 Z M 576.00 347.12 L 525.90 347.00 L 576.00 347.12 Z M 595.00 347.08 L 578.88 347.00 L 595.00 347.08 Z M 610.00 347.10 L 600.92 347.00 L 610.00 347.10 Z M 638.00 347.09 L 630.79 347.00 L 638.00 347.09 Z M 770.00 394.27 L 771.00 393.24 L 774.00 393.11 L 776.00 391.22 L 777.00 391.27 L 781.19 387.00 L 782.26 385.00 L 782.25 383.00 L 783.28 382.00 L 783.17 372.00 L 779.21 365.00 L 775.00 361.85 L 773.00 361.77 L 772.00 360.72 L 766.00 360.76 L 765.00 359.99 L 764.00 360.77 L 761.00 360.75 L 758.00 362.78 L 757.00 362.73 L 751.85 368.00 L 749.74 374.00 L 749.96 382.00 L 752.78 387.00 L 752.77 388.00 L 756.00 391.21 L 759.00 392.22 L 760.00 393.26 L 762.00 393.23 L 763.00 394.28 L 770.00 394.27 Z M 871.00 385.20 L 872.00 384.24 L 873.00 384.26 L 875.27 382.00 L 875.23 381.00 L 876.27 380.00 L 876.28 374.00 L 875.23 373.00 L 875.28 372.00 L 873.00 369.85 L 871.00 369.79 L 870.00 368.74 L 809.00 368.76 L 808.00 369.77 L 806.00 369.73 L 801.79 374.00 L 801.72 380.00 L 804.00 383.27 L 807.00 385.27 L 871.00 385.20 Z M 442.00 607.17 L 445.00 605.23 L 446.00 605.28 L 450.27 601.00 L 452.23 598.00 L 452.24 596.00 L 453.27 595.00 L 453.27 587.00 L 451.28 582.00 L 448.00 577.79 L 447.00 577.78 L 445.00 575.75 L 444.00 575.76 L 443.00 574.79 L 441.00 574.77 L 439.00 573.74 L 434.00 573.85 L 433.00 574.78 L 431.00 574.72 L 430.00 575.78 L 427.00 576.86 L 423.72 580.00 L 421.72 583.00 L 420.89 585.00 L 420.76 588.00 L 419.74 590.00 L 420.84 597.00 L 423.73 602.00 L 429.00 606.27 L 432.00 607.27 L 442.00 607.17 Z M 539.00 599.24 L 540.00 598.24 L 541.00 598.28 L 544.27 595.00 L 544.24 594.00 L 545.24 593.00 L 545.28 591.00 L 545.22 589.00 L 544.25 588.00 L 544.28 587.00 L 541.00 583.72 L 540.00 583.77 L 539.00 582.74 L 477.00 582.78 L 476.00 583.76 L 475.00 583.73 L 471.72 587.00 L 470.73 590.00 L 470.82 593.00 L 471.75 594.00 L 471.72 595.00 L 475.00 598.26 L 476.00 598.22 L 477.00 599.27 L 539.00 599.24 Z M 291.00 620.08 L 279.97 620.00 L 291.00 620.08 Z M 679.00 620.15 L 673.00 620.00 L 679.00 620.15 Z M 562.00 735.00 L 549.98 735.00 L 562.00 735.00 Z M 649.00 735.06 L 639.00 735.00 L 649.00 735.06 Z M 677.00 735.02 L 666.00 735.00 L 677.00 735.02 Z M 770.00 826.10 L 777.00 823.10 L 780.26 820.00 L 780.25 819.00 L 782.17 817.00 L 784.24 810.00 L 784.09 808.00 L 783.25 807.00 L 783.26 804.00 L 781.25 801.00 L 781.28 800.00 L 776.00 794.72 L 775.00 794.78 L 772.00 792.74 L 769.00 792.78 L 768.00 791.91 L 766.00 792.79 L 762.00 792.73 L 761.00 793.76 L 759.00 793.73 L 758.00 794.76 L 757.00 794.82 L 751.97 800.00 L 751.78 802.00 L 749.89 805.00 L 749.74 813.00 L 751.72 818.00 L 753.76 820.00 L 753.82 821.00 L 758.00 824.23 L 760.00 825.17 L 763.00 825.23 L 764.00 826.27 L 770.00 826.10 Z M 870.00 817.07 L 873.00 815.23 L 874.00 815.27 L 875.27 814.00 L 875.21 813.00 L 876.26 812.00 L 876.28 806.00 L 874.00 802.72 L 873.00 802.77 L 870.00 800.73 L 808.00 800.74 L 805.00 802.78 L 804.00 802.73 L 801.73 806.00 L 801.72 812.00 L 802.76 813.00 L 802.74 814.00 L 805.00 816.17 L 807.00 816.22 L 808.00 817.25 L 870.00 817.07 Z M 341.00 839.07 L 334.91 839.00 L 341.00 839.07 Z" fill="url(#dark-settings-accent)" fill-rule="evenodd"/>
</svg>
