<?xml version="1.0" encoding="UTF-8"?>
<svg xmlns="http://www.w3.org/2000/svg" viewBox="0 0 1254 1254" shape-rendering="geometricPrecision" width="128" height="128">
  <title>Directive Log icon, dark variant</title>
  <defs>
    <linearGradient id="dark-log-main" x1="0" y1="0.5" x2="1" y2="0.5" gradientTransform="rotate(10.4369 .5 .5)"><stop offset="0%" stop-color="#262d31"/><stop offset="20%" stop-color="#262d32"/><stop offset="40%" stop-color="#262d32"/><stop offset="60%" stop-color="#262e32"/><stop offset="80%" stop-color="#272e32"/><stop offset="100%" stop-color="#262e32"/></linearGradient>
    <linearGradient id="dark-log-accent" x1="0" y1="0.5" x2="1" y2="0.5" gradientTransform="rotate(49.8012 .5 .5)"><stop offset="0%" stop-color="#525474"/><stop offset="20%" stop-color="#525475"/><stop offset="40%" stop-color="#525372"/><stop offset="60%" stop-color="#525473"/><stop offset="80%" stop-color="#535676"/><stop offset="100%" stop-color="#535676"/></linearGradient>
  </defs>
  <path d="M 375.00 467.42 L 375.22 273.00 L 371.04 262.00 L 368.27 258.00 L 362.00 251.75 L 355.00 247.76 L 349.00 245.82 L 334.00 245.80 L 324.00 249.69 L 316.94 255.00 L 312.92 260.00 L 309.67 266.00 L 307.81 271.00 L 306.81 277.00 L 306.80 467.00 L 375.00 467.42 Z M 516.00 438.23 L 517.24 437.00 L 517.23 324.00 L 468.00 323.80 L 454.00 327.78 L 443.00 333.76 L 433.87 342.00 L 427.73 350.00 L 422.81 360.00 L 419.78 370.00 L 418.80 381.00 L 419.87 392.00 L 422.85 402.00 L 428.74 413.00 L 431.69 417.00 L 441.00 426.31 L 451.00 432.40 L 461.00 436.30 L 473.00 438.19 L 516.00 438.23 Z M 936.00 438.01 L 945.00 436.26 L 955.00 432.31 L 962.00 428.17 L 970.30 421.00 L 976.13 414.00 L 981.17 405.00 L 984.26 397.00 L 986.32 385.00 L 986.28 376.00 L 985.16 368.00 L 982.18 359.00 L 977.10 349.00 L 972.35 343.00 L 964.00 334.97 L 952.00 327.91 L 943.00 324.79 L 933.00 323.57 L 532.57 324.00 L 533.00 438.20 L 936.00 438.01 Z M 375.00 614.28 L 375.28 484.00 L 308.00 483.74 L 306.95 485.00 L 307.54 486.00 L 307.54 496.00 L 307.54 579.00 L 306.99 582.00 L 307.54 593.00 L 306.95 602.00 L 307.55 612.00 L 307.00 613.00 L 308.00 614.27 L 375.00 614.28 Z M 516.00 614.31 L 517.21 613.00 L 517.26 518.00 L 516.00 516.97 L 515.00 517.54 L 464.00 517.69 L 453.00 520.70 L 442.00 526.80 L 433.77 535.00 L 429.70 541.00 L 425.91 549.00 L 423.88 557.00 L 423.63 572.00 L 424.70 578.00 L 427.97 587.00 L 432.79 595.00 L 441.00 603.36 L 445.00 606.28 L 455.00 611.28 L 461.00 613.12 L 469.00 614.24 L 516.00 614.31 Z M 810.00 614.13 L 820.00 612.11 L 827.00 609.33 L 834.00 605.14 L 840.40 599.00 L 845.30 593.00 L 849.19 586.00 L 852.13 577.00 L 853.18 570.00 L 853.26 562.00 L 852.21 555.00 L 850.17 548.00 L 846.30 540.00 L 841.18 533.00 L 837.00 528.88 L 830.00 523.88 L 822.00 519.94 L 814.00 517.76 L 809.00 517.54 L 532.51 518.00 L 533.00 614.28 L 810.00 614.13 Z M 375.00 750.40 L 375.46 633.00 L 376.04 632.00 L 375.00 630.57 L 308.00 630.58 L 307.00 644.00 L 307.54 728.00 L 306.99 737.00 L 307.54 742.00 L 306.97 747.00 L 307.54 748.00 L 306.97 750.00 L 375.00 750.40 Z M 517.00 762.16 L 517.20 685.00 L 516.00 683.98 L 515.00 684.57 L 455.00 684.83 L 448.00 686.90 L 442.00 689.92 L 436.00 694.71 L 429.72 702.00 L 425.79 710.00 L 423.76 717.00 L 423.81 730.00 L 424.56 731.00 L 424.89 735.00 L 428.87 744.00 L 431.65 748.00 L 440.00 756.13 L 448.00 760.24 L 455.00 762.27 L 517.00 762.16 Z M 537.00 763.00 L 538.00 762.45 L 692.00 762.43 L 702.00 761.08 L 707.00 759.04 L 713.00 755.26 L 720.27 748.00 L 724.06 742.00 L 727.19 734.00 L 728.14 729.00 L 728.28 720.00 L 727.02 713.00 L 723.17 704.00 L 716.00 694.85 L 708.00 688.98 L 697.00 684.82 L 533.00 684.55 L 532.52 762.00 L 533.00 763.07 L 535.00 762.45 L 537.00 763.00 Z M 446.00 929.44 L 441.44 908.00 L 441.46 889.00 L 442.46 882.00 L 445.03 873.00 L 411.00 872.56 L 401.00 869.57 L 391.00 863.56 L 385.42 858.00 L 382.41 854.00 L 378.42 846.00 L 376.42 840.00 L 375.45 832.00 L 375.48 768.00 L 374.00 766.99 L 373.00 767.54 L 366.00 766.92 L 356.00 767.53 L 324.00 766.98 L 311.00 767.53 L 310.00 767.00 L 309.00 767.54 L 308.00 766.89 L 306.90 768.00 L 307.56 769.00 L 306.99 825.00 L 308.73 849.00 L 311.81 861.00 L 315.93 872.00 L 321.87 883.00 L 328.72 893.00 L 336.00 901.03 L 344.00 908.23 L 351.00 913.24 L 363.00 920.00 L 376.00 925.03 L 384.00 927.20 L 398.00 929.27 L 446.00 929.44 Z M 557.00 983.15 L 567.00 981.09 L 576.00 978.18 L 590.00 971.05 L 605.00 959.02 L 614.25 948.00 L 622.35 934.00 L 627.11 921.00 L 630.10 903.00 L 629.19 885.00 L 624.30 867.00 L 617.24 853.00 L 606.33 839.00 L 592.00 826.86 L 577.00 818.94 L 564.00 814.71 L 548.00 812.64 L 531.00 813.70 L 516.00 817.75 L 503.00 823.81 L 489.00 833.90 L 476.99 847.00 L 467.67 863.00 L 461.99 880.00 L 459.95 895.00 L 460.87 911.00 L 464.92 927.00 L 470.75 940.00 L 479.74 953.00 L 493.00 966.11 L 507.00 975.09 L 523.00 981.13 L 535.00 983.26 L 557.00 983.15 Z" fill="url(#dark-log-main)" fill-rule="evenodd"/>
  <path d="M 307.00 343.13 L 307.00 326.84 L 307.00 343.13 Z M 307.00 362.10 L 307.00 353.87 L 307.00 362.10 Z M 307.00 382.08 L 307.00 363.87 L 307.00 382.08 Z M 821.00 395.15 L 824.00 393.26 L 825.00 393.27 L 830.24 388.00 L 830.24 386.00 L 831.27 385.00 L 831.27 377.00 L 830.26 376.00 L 830.29 374.00 L 829.07 372.00 L 824.00 367.71 L 818.00 365.81 L 816.00 365.92 L 815.00 366.77 L 812.00 366.75 L 811.00 367.75 L 810.00 367.71 L 808.00 369.76 L 807.00 369.89 L 806.76 371.00 L 804.71 373.00 L 804.74 374.00 L 803.72 375.00 L 803.73 377.00 L 802.80 378.00 L 802.74 384.00 L 803.76 385.00 L 803.71 387.00 L 804.76 388.00 L 804.79 389.00 L 809.00 393.24 L 810.00 393.27 L 811.00 394.27 L 813.00 394.25 L 814.00 395.28 L 821.00 395.15 Z M 930.00 389.24 L 931.00 388.26 L 932.00 388.27 L 935.24 385.00 L 935.24 383.00 L 936.20 382.00 L 936.22 381.00 L 935.25 379.00 L 935.26 377.00 L 932.00 373.72 L 931.00 373.76 L 930.00 372.72 L 855.00 372.73 L 854.00 372.85 L 849.71 377.00 L 849.73 378.00 L 848.79 379.00 L 848.75 383.00 L 849.75 384.00 L 850.83 387.00 L 854.00 388.24 L 855.00 389.28 L 930.00 389.24 Z M 307.00 428.03 L 307.00 420.95 L 307.00 428.03 Z M 307.00 465.25 L 307.00 457.97 L 307.00 465.25 Z M 738.00 574.15 L 742.00 572.18 L 744.28 568.00 L 744.28 563.00 L 743.24 562.00 L 743.28 561.00 L 741.00 558.71 L 740.00 558.76 L 739.00 557.77 L 692.00 557.72 L 691.00 558.76 L 689.00 558.95 L 688.00 559.72 L 685.72 563.00 L 685.73 569.00 L 686.76 570.00 L 686.72 571.00 L 689.00 573.25 L 691.00 574.11 L 738.00 574.15 Z M 810.00 574.16 L 814.00 572.27 L 816.26 570.00 L 817.26 567.00 L 816.29 562.00 L 813.00 558.71 L 812.00 558.74 L 811.00 557.80 L 764.00 557.77 L 763.00 558.75 L 762.00 558.75 L 759.71 561.00 L 759.76 562.00 L 757.85 565.00 L 758.75 570.00 L 762.00 573.28 L 763.00 573.24 L 764.00 574.22 L 810.00 574.16 Z M 691.00 737.24 L 692.00 736.25 L 695.00 735.28 L 699.28 731.00 L 699.26 730.00 L 700.25 729.00 L 700.26 727.00 L 701.15 726.00 L 701.26 721.00 L 700.24 720.00 L 700.27 718.00 L 699.26 717.00 L 699.24 716.00 L 694.00 710.79 L 691.00 709.72 L 682.00 709.99 L 680.00 710.82 L 674.74 716.00 L 674.74 717.00 L 673.71 718.00 L 673.75 720.00 L 672.72 721.00 L 672.73 727.00 L 673.75 728.00 L 673.95 730.00 L 674.72 731.00 L 680.00 736.16 L 682.00 736.24 L 683.00 737.22 L 691.00 737.24 Z M 525.00 921.15 L 526.00 920.24 L 528.00 920.28 L 529.00 919.24 L 531.00 919.16 L 533.00 917.24 L 534.00 917.26 L 540.19 911.00 L 541.25 908.00 L 542.27 907.00 L 542.25 905.00 L 543.25 904.00 L 543.25 893.00 L 542.25 892.00 L 542.28 890.00 L 541.25 889.00 L 539.25 884.00 L 534.00 878.75 L 531.00 877.76 L 528.00 875.75 L 524.00 875.74 L 523.00 874.73 L 516.00 874.76 L 515.00 875.75 L 512.00 875.72 L 511.00 876.76 L 506.00 878.80 L 500.75 884.00 L 500.76 885.00 L 497.95 889.00 L 497.75 892.00 L 496.74 893.00 L 496.75 904.00 L 497.74 905.00 L 497.72 907.00 L 498.76 908.00 L 499.72 911.00 L 507.00 918.28 L 508.00 918.24 L 511.00 920.27 L 514.00 920.24 L 515.00 921.17 L 525.00 921.15 Z M 594.00 906.27 L 595.00 905.24 L 596.00 905.27 L 598.27 903.00 L 598.25 902.00 L 599.29 901.00 L 599.29 896.00 L 596.00 891.72 L 595.00 891.75 L 594.00 890.72 L 556.00 890.76 L 553.00 893.00 L 550.90 897.00 L 550.96 900.00 L 552.88 904.00 L 556.00 905.23 L 557.00 906.28 L 594.00 906.27 Z" fill="url(#dark-log-accent)" fill-rule="evenodd"/>
</svg>
