<?xml version="1.0" encoding="UTF-8"?>
<svg xmlns="http://www.w3.org/2000/svg" viewBox="0 0 1254 1254" shape-rendering="geometricPrecision" width="128" height="128">
  <title>Directive Campaign icon, dark variant</title>
  <defs>
    <linearGradient id="dark-campaign-main" x1="0" y1="0.5" x2="1" y2="0.5" gradientTransform="rotate(-127.7035 .5 .5)"><stop offset="0%" stop-color="#21252e"/><stop offset="20%" stop-color="#20242e"/><stop offset="40%" stop-color="#21252e"/><stop offset="60%" stop-color="#21252e"/><stop offset="80%" stop-color="#21252e"/><stop offset="100%" stop-color="#21252f"/></linearGradient>
    <linearGradient id="dark-campaign-accent" x1="0" y1="0.5" x2="1" y2="0.5" gradientTransform="rotate(4.7653 .5 .5)"><stop offset="0%" stop-color="#5d5c82"/><stop offset="20%" stop-color="#5d5c83"/><stop offset="40%" stop-color="#5d5d84"/><stop offset="60%" stop-color="#5f5f86"/><stop offset="80%" stop-color="#5f5f85"/><stop offset="100%" stop-color="#605f86"/></linearGradient>
  </defs>
  <path d="M 785.00 254.28 L 785.30 228.00 L 784.00 226.84 L 775.00 227.55 L 767.00 226.95 L 721.00 227.00 L 720.00 227.54 L 718.00 227.00 L 693.00 227.54 L 666.00 227.00 L 662.00 227.66 L 658.00 229.80 L 654.92 233.00 L 652.73 239.00 L 652.95 244.00 L 654.61 248.00 L 659.00 252.35 L 664.00 254.31 L 785.00 254.28 Z M 805.00 254.22 L 811.00 251.26 L 814.36 247.00 L 815.25 245.00 L 815.43 240.00 L 814.31 235.00 L 811.00 230.65 L 806.00 227.70 L 794.00 226.91 L 792.66 228.00 L 792.65 254.00 L 805.00 254.22 Z M 948.00 394.08 L 962.00 391.09 L 973.00 387.11 L 986.00 380.32 L 997.00 372.11 L 1007.20 362.00 L 1015.10 351.00 L 1020.10 341.00 L 1024.03 329.00 L 1025.42 320.00 L 1025.24 303.00 L 1023.25 293.00 L 1019.30 282.00 L 1012.07 269.00 L 1002.09 257.00 L 993.00 249.00 L 984.00 242.79 L 975.00 237.87 L 965.00 233.88 L 948.00 229.83 L 941.00 229.55 L 939.00 228.79 L 928.00 228.78 L 910.00 231.73 L 898.00 235.72 L 883.00 244.00 L 878.00 247.72 L 868.58 257.00 L 860.55 267.00 L 849.00 278.56 L 842.00 282.54 L 832.00 285.55 L 795.00 285.56 L 791.00 284.57 L 784.00 280.56 L 761.00 263.59 L 719.69 264.00 L 740.54 286.00 L 743.57 291.00 L 743.81 294.00 L 743.52 297.00 L 741.57 300.00 L 739.00 301.62 L 737.00 302.55 L 720.00 302.95 L 717.00 304.83 L 714.90 308.00 L 714.74 314.00 L 715.66 316.00 L 719.00 319.04 L 723.00 320.02 L 738.00 320.41 L 741.00 322.27 L 743.56 326.00 L 743.55 331.00 L 740.53 336.00 L 720.00 356.14 L 724.00 357.01 L 751.00 357.00 L 752.00 356.44 L 760.00 357.13 L 770.00 351.07 L 787.00 338.45 L 794.00 335.43 L 832.00 335.45 L 839.00 337.43 L 843.00 339.44 L 853.00 346.43 L 857.55 351.00 L 866.73 364.00 L 876.00 373.37 L 883.00 379.11 L 893.00 385.00 L 905.00 390.28 L 921.00 394.05 L 948.00 394.08 Z M 614.00 322.14 L 619.14 318.00 L 620.10 316.00 L 620.20 311.00 L 618.00 306.77 L 616.00 304.94 L 613.00 303.82 L 491.00 303.75 L 487.00 304.81 L 482.89 309.00 L 482.77 310.00 L 482.87 317.00 L 485.00 320.08 L 489.00 322.18 L 614.00 322.14 Z M 578.00 360.27 L 583.05 357.00 L 584.28 355.00 L 585.17 350.00 L 584.06 346.00 L 582.41 344.00 L 580.00 341.86 L 576.00 340.63 L 442.00 340.70 L 439.00 341.70 L 435.54 345.00 L 433.70 350.00 L 433.90 353.00 L 435.83 357.00 L 438.00 359.06 L 442.00 360.39 L 578.00 360.27 Z M 784.00 392.20 L 785.23 391.00 L 785.30 366.00 L 785.06 365.00 L 784.00 364.67 L 666.00 364.75 L 661.00 365.87 L 658.00 367.62 L 654.71 371.00 L 652.70 377.00 L 652.79 381.00 L 654.81 386.00 L 658.00 389.28 L 665.00 392.10 L 784.00 392.20 Z M 803.00 392.04 L 809.00 390.02 L 813.28 386.00 L 815.38 381.00 L 815.31 375.00 L 814.24 372.00 L 812.00 369.00 L 807.00 365.74 L 803.00 364.81 L 793.00 364.86 L 792.67 391.00 L 794.00 392.05 L 803.00 392.04 Z M 815.00 807.03 L 839.00 805.18 L 855.00 802.25 L 873.00 797.29 L 889.00 791.28 L 906.00 783.23 L 921.00 774.22 L 931.00 767.10 L 953.11 747.00 L 971.05 725.00 L 978.11 714.00 L 986.10 699.00 L 992.26 684.00 L 996.02 672.00 L 1000.14 654.00 L 1002.22 638.00 L 1002.08 605.00 L 1000.02 590.00 L 997.16 577.00 L 992.27 561.00 L 987.03 548.00 L 975.28 526.00 L 959.33 505.00 L 939.00 484.84 L 926.00 474.72 L 909.00 463.85 L 889.00 453.89 L 873.00 447.86 L 855.00 442.93 L 830.00 438.90 L 794.00 438.83 L 773.00 441.84 L 753.00 446.83 L 736.00 452.84 L 715.00 462.75 L 700.00 471.87 L 684.00 483.89 L 671.00 495.63 L 656.80 511.00 L 644.98 527.00 L 632.00 548.75 L 628.00 552.53 L 624.00 554.50 L 619.00 555.53 L 575.00 555.51 L 573.00 554.89 L 542.00 554.52 L 534.00 550.52 L 512.00 528.90 L 505.00 524.71 L 498.00 522.68 L 327.67 522.00 L 331.76 528.00 L 337.00 533.34 L 348.00 540.34 L 360.00 544.08 L 372.00 544.44 L 382.00 546.46 L 391.00 550.43 L 397.00 554.43 L 403.55 560.00 L 412.54 572.00 L 415.55 578.00 L 419.00 590.33 L 542.00 592.45 L 544.00 593.08 L 601.00 593.44 L 610.00 594.26 L 661.00 594.45 L 685.00 595.43 L 694.00 600.45 L 699.60 607.00 L 702.58 613.00 L 703.57 617.00 L 703.68 623.00 L 702.56 631.00 L 698.55 638.00 L 693.00 643.56 L 684.00 647.56 L 663.00 648.55 L 661.00 648.00 L 660.00 648.55 L 599.00 648.78 L 597.00 649.56 L 544.00 649.88 L 542.00 650.55 L 419.00 651.93 L 415.54 665.00 L 410.52 674.00 L 404.00 681.59 L 396.00 688.58 L 388.00 693.55 L 376.00 697.56 L 359.00 698.83 L 349.00 701.77 L 341.00 705.99 L 336.00 709.90 L 327.75 719.00 L 328.00 720.25 L 496.00 720.31 L 502.00 719.08 L 510.00 715.26 L 514.00 712.19 L 534.00 692.46 L 540.00 689.47 L 547.00 688.39 L 622.00 688.47 L 627.00 690.46 L 631.56 694.00 L 636.80 704.00 L 648.72 723.00 L 656.92 734.00 L 666.64 745.00 L 686.00 763.05 L 709.00 779.19 L 735.00 792.22 L 763.00 801.25 L 783.00 805.21 L 790.00 805.45 L 791.00 806.16 L 815.00 807.03 Z M 256.00 511.41 L 256.00 448.73 L 196.00 448.75 L 190.00 449.72 L 184.00 451.95 L 178.00 455.72 L 172.89 461.00 L 169.85 466.00 L 167.86 471.00 L 166.72 477.00 L 166.65 483.00 L 167.73 489.00 L 171.71 498.00 L 175.00 502.00 L 182.00 507.32 L 189.00 510.16 L 195.00 511.29 L 256.00 511.41 Z M 585.00 512.17 L 596.00 508.25 L 604.30 501.00 L 609.12 493.00 L 611.20 483.00 L 610.15 473.00 L 606.11 464.00 L 598.00 455.77 L 593.00 452.91 L 587.00 450.89 L 557.00 449.97 L 326.00 449.56 L 325.00 448.96 L 312.00 448.85 L 269.00 448.79 L 268.00 448.83 L 267.56 450.00 L 267.55 509.00 L 266.99 510.00 L 268.00 511.42 L 585.00 512.17 Z M 474.00 642.00 L 475.00 641.45 L 582.00 641.34 L 582.24 640.00 L 578.43 635.00 L 576.44 630.00 L 575.46 626.00 L 575.44 617.00 L 578.42 608.00 L 583.02 602.00 L 520.00 601.54 L 518.00 600.89 L 507.00 600.72 L 433.00 600.54 L 432.00 599.97 L 417.00 599.80 L 412.00 600.75 L 406.00 603.76 L 400.87 610.00 L 398.57 619.00 L 398.76 626.00 L 399.92 630.00 L 404.59 637.00 L 411.00 641.11 L 417.00 642.38 L 474.00 642.00 Z M 256.00 790.19 L 256.00 728.72 L 194.00 728.86 L 186.00 730.84 L 180.00 733.75 L 173.89 739.00 L 169.89 745.00 L 166.81 755.00 L 166.73 762.00 L 167.76 768.00 L 171.78 777.00 L 178.00 783.40 L 182.00 786.21 L 189.00 789.06 L 196.00 790.22 L 256.00 790.19 Z M 583.00 790.03 L 593.00 787.29 L 597.00 785.25 L 602.20 781.00 L 606.28 776.00 L 608.37 772.00 L 610.20 767.00 L 611.02 761.00 L 609.28 749.00 L 604.14 740.00 L 597.00 733.81 L 587.00 729.89 L 287.00 728.78 L 268.00 728.89 L 267.53 730.00 L 268.00 790.22 L 583.00 790.03 Z M 941.00 1007.04 L 954.00 1005.19 L 968.00 1001.18 L 983.00 994.15 L 992.00 988.07 L 1004.19 977.00 L 1012.21 967.00 L 1019.30 954.00 L 1023.26 943.00 L 1025.26 933.00 L 1025.33 915.00 L 1023.19 904.00 L 1020.30 895.00 L 1014.26 883.00 L 1008.13 874.00 L 995.00 860.70 L 984.00 852.81 L 968.00 844.95 L 958.00 841.92 L 947.00 839.79 L 923.00 839.69 L 908.00 842.80 L 893.00 848.79 L 879.00 857.84 L 867.72 869.00 L 859.00 880.65 L 849.00 890.56 L 840.00 895.56 L 834.00 897.57 L 793.00 897.58 L 788.00 895.58 L 761.00 876.55 L 719.69 877.00 L 742.00 900.17 L 743.75 905.00 L 743.50 909.00 L 739.00 913.56 L 737.00 914.55 L 720.00 914.97 L 716.94 917.00 L 715.00 920.00 L 714.72 926.00 L 715.63 928.00 L 719.00 931.18 L 723.00 932.16 L 738.00 932.45 L 741.00 934.35 L 743.54 938.00 L 743.55 943.00 L 742.58 945.00 L 720.00 969.29 L 761.00 969.31 L 783.00 953.46 L 789.00 949.45 L 792.00 948.42 L 835.00 948.45 L 849.00 955.45 L 860.54 967.00 L 865.86 975.00 L 873.00 983.07 L 880.00 989.11 L 889.00 995.22 L 901.00 1001.13 L 914.00 1005.10 L 928.00 1007.14 L 941.00 1007.04 Z M 785.00 868.14 L 785.21 842.00 L 785.05 841.00 L 784.00 840.66 L 665.00 840.81 L 661.00 841.92 L 657.00 844.65 L 653.81 849.00 L 652.77 853.00 L 652.86 857.00 L 654.76 862.00 L 659.00 866.19 L 665.00 868.28 L 785.00 868.14 Z M 804.00 868.13 L 809.00 866.31 L 814.13 861.00 L 815.28 858.00 L 815.23 851.00 L 813.36 847.00 L 810.00 843.65 L 807.00 841.92 L 803.00 840.82 L 793.00 840.88 L 792.79 868.00 L 804.00 868.13 Z M 614.00 898.11 L 619.14 894.00 L 620.23 889.00 L 619.17 884.00 L 614.00 879.79 L 489.00 879.79 L 485.00 881.85 L 482.77 886.00 L 482.90 893.00 L 485.00 896.10 L 489.00 898.18 L 614.00 898.11 Z M 577.00 936.14 L 580.00 935.10 L 583.35 932.00 L 585.18 926.00 L 583.08 920.00 L 580.00 917.62 L 577.00 916.63 L 442.00 916.65 L 438.00 917.94 L 435.72 920.00 L 433.74 925.00 L 434.65 931.00 L 439.00 935.24 L 443.00 936.29 L 577.00 936.14 Z M 785.00 1004.24 L 785.28 978.00 L 784.00 977.50 L 664.00 977.68 L 660.00 978.95 L 655.97 982.00 L 653.91 985.00 L 652.75 989.00 L 652.87 994.00 L 654.85 999.00 L 658.00 1002.25 L 662.00 1004.34 L 785.00 1004.24 Z M 806.00 1004.31 L 809.00 1003.06 L 812.38 1000.00 L 815.25 995.00 L 815.36 988.00 L 814.31 985.00 L 811.00 980.93 L 805.00 977.90 L 793.00 977.74 L 792.72 1004.00 L 806.00 1004.31 Z" fill="url(#dark-campaign-main)" fill-rule="evenodd"/>
  <path d="M 793.00 241.03 L 793.00 232.92 L 793.00 241.03 Z M 925.00 324.07 L 927.00 323.25 L 932.17 318.00 L 932.17 316.00 L 933.17 315.00 L 933.24 311.00 L 932.19 310.00 L 932.27 308.00 L 931.21 307.00 L 931.27 306.00 L 928.00 302.73 L 925.00 301.80 L 924.00 300.74 L 918.00 300.78 L 917.00 301.80 L 914.00 302.88 L 910.76 307.00 L 910.82 308.00 L 909.74 309.00 L 909.74 316.00 L 911.83 319.00 L 911.74 320.00 L 914.00 322.26 L 915.00 322.18 L 918.00 324.26 L 925.00 324.07 Z M 614.00 322.14 L 616.00 321.15 L 619.14 318.00 L 620.10 316.00 L 620.20 311.00 L 619.14 308.00 L 618.00 306.77 L 616.00 304.94 L 613.00 303.82 L 491.00 303.75 L 487.00 304.81 L 482.89 309.00 L 482.77 310.00 L 482.87 317.00 L 485.00 320.08 L 489.00 322.18 L 614.00 322.14 Z M 988.00 318.14 L 990.26 316.00 L 990.20 315.00 L 991.26 314.00 L 991.26 311.00 L 990.19 310.00 L 990.00 308.79 L 987.00 306.77 L 947.00 306.73 L 942.73 310.00 L 942.81 316.00 L 945.00 318.18 L 988.00 318.14 Z M 783.00 365.08 L 664.85 365.00 L 783.00 365.08 Z M 804.00 365.02 L 794.77 365.00 L 804.00 365.02 Z M 375.00 522.22 L 375.00 521.78 L 362.95 522.00 L 375.00 522.22 Z M 385.00 522.19 L 377.79 522.00 L 385.00 522.19 Z M 398.00 522.18 L 386.80 522.00 L 398.00 522.18 Z M 432.00 600.03 L 424.91 600.00 L 432.00 600.03 Z M 829.00 642.27 L 830.00 641.15 L 833.00 641.27 L 834.00 640.18 L 837.00 639.25 L 838.00 638.18 L 839.00 638.26 L 843.26 634.00 L 843.18 633.00 L 845.22 631.00 L 846.09 629.00 L 846.17 626.00 L 847.27 625.00 L 847.26 617.00 L 846.19 616.00 L 846.19 613.00 L 845.21 612.00 L 845.26 611.00 L 843.19 609.00 L 843.26 608.00 L 839.00 603.74 L 838.00 603.83 L 836.00 601.79 L 834.00 601.82 L 833.00 600.75 L 831.00 600.83 L 830.00 599.75 L 823.00 599.73 L 821.00 600.83 L 819.00 600.73 L 818.00 601.83 L 815.00 602.74 L 809.75 607.00 L 809.86 608.00 L 807.73 610.00 L 807.82 611.00 L 805.73 614.00 L 805.83 616.00 L 804.73 618.00 L 804.74 624.00 L 805.83 626.00 L 805.73 628.00 L 806.82 629.00 L 807.75 632.00 L 809.84 634.00 L 809.75 635.00 L 811.00 636.25 L 812.00 636.17 L 815.00 639.26 L 818.00 640.16 L 819.00 641.25 L 822.00 641.14 L 823.00 642.24 L 829.00 642.27 Z M 957.00 630.20 L 959.00 629.12 L 962.18 626.00 L 962.22 624.00 L 963.27 623.00 L 963.27 619.00 L 962.21 618.00 L 962.27 616.00 L 958.00 611.73 L 956.00 611.80 L 955.00 610.74 L 871.00 610.74 L 870.00 611.84 L 868.00 611.74 L 863.75 616.00 L 863.78 618.00 L 862.77 619.00 L 862.75 623.00 L 863.79 624.00 L 863.80 626.00 L 867.00 629.26 L 868.00 629.16 L 869.00 630.26 L 957.00 630.20 Z M 337.00 720.02 L 329.78 720.00 L 337.00 720.02 Z M 216.00 729.22 L 216.00 728.78 L 208.79 729.00 L 216.00 729.22 Z M 229.00 729.22 L 229.00 728.78 L 221.78 729.00 L 229.00 729.22 Z M 255.00 729.23 L 255.00 728.77 L 245.79 729.00 L 255.00 729.23 Z M 303.00 729.19 L 284.79 729.00 L 303.00 729.19 Z M 320.00 729.20 L 309.80 729.00 L 320.00 729.20 Z M 280.00 790.22 L 280.00 789.78 L 267.79 790.00 L 280.00 790.22 Z M 722.00 841.18 L 664.00 841.00 L 722.00 841.18 Z M 781.00 841.12 L 723.79 841.00 L 781.00 841.12 Z M 793.00 851.04 L 793.00 844.92 L 793.00 851.04 Z M 614.00 898.11 L 616.00 897.15 L 619.14 894.00 L 620.06 892.00 L 620.23 889.00 L 620.04 886.00 L 619.17 884.00 L 616.00 880.77 L 614.00 879.79 L 489.00 879.79 L 485.00 881.85 L 482.77 886.00 L 482.90 893.00 L 485.00 896.10 L 489.00 898.18 L 614.00 898.11 Z M 924.00 936.26 L 925.00 935.18 L 927.00 935.10 L 931.25 931.00 L 931.17 930.00 L 933.03 927.00 L 933.22 923.00 L 932.18 922.00 L 932.27 920.00 L 931.20 919.00 L 931.27 918.00 L 927.00 913.80 L 925.00 913.81 L 924.00 912.74 L 918.00 912.74 L 915.00 914.83 L 914.00 914.73 L 911.74 917.00 L 910.83 920.00 L 909.74 921.00 L 909.75 928.00 L 910.84 929.00 L 911.76 932.00 L 914.00 934.20 L 915.00 934.18 L 918.00 936.19 L 924.00 936.26 Z M 987.00 930.26 L 990.24 928.00 L 990.19 927.00 L 991.21 926.00 L 991.27 924.00 L 990.27 921.00 L 987.00 918.75 L 946.00 918.76 L 942.74 922.00 L 942.74 927.00 L 946.00 930.26 L 987.00 930.26 Z M 450.00 936.03 L 441.82 936.00 L 450.00 936.03 Z M 546.00 936.03 L 532.00 936.00 L 546.00 936.03 Z M 577.00 936.14 L 565.00 936.00 L 577.00 936.14 Z M 793.00 989.10 L 793.00 982.77 L 793.00 989.10 Z" fill="url(#dark-campaign-accent)" fill-rule="evenodd"/>
</svg>
