<?xml version="1.0" encoding="UTF-8"?>
<svg xmlns="http://www.w3.org/2000/svg" viewBox="0 0 1254 1254" shape-rendering="geometricPrecision" width="128" height="128">
  <title>Directive Ship icon, dark variant</title>
  <defs>
    <linearGradient id="dark-ship-main" x1="0" y1="0.5" x2="1" y2="0.5" gradientTransform="rotate(-159.6697 .5 .5)"><stop offset="0%" stop-color="#1a1e29"/><stop offset="20%" stop-color="#1a1e29"/><stop offset="40%" stop-color="#1a1e29"/><stop offset="60%" stop-color="#1a1e29"/><stop offset="80%" stop-color="#1a1f29"/><stop offset="100%" stop-color="#1a1e29"/></linearGradient>
    <linearGradient id="dark-ship-accent" x1="0" y1="0.5" x2="1" y2="0.5" gradientTransform="rotate(0.4497 .5 .5)"><stop offset="0%" stop-color="#5f6177"/><stop offset="20%" stop-color="#5f6177"/><stop offset="40%" stop-color="#616386"/><stop offset="60%" stop-color="#5f6183"/><stop offset="80%" stop-color="#5f6181"/><stop offset="100%" stop-color="#5f6181"/></linearGradient>
  </defs>
  <path d="M 710.00 514.23 L 727.00 498.49 L 732.00 496.49 L 836.00 496.35 L 840.06 490.00 L 847.30 475.00 L 858.31 445.00 L 864.20 420.00 L 867.30 391.00 L 867.39 373.00 L 866.31 356.00 L 862.30 331.00 L 853.26 300.00 L 847.29 285.00 L 840.43 271.00 L 828.11 250.00 L 815.13 232.00 L 800.16 215.00 L 782.00 197.91 L 762.00 182.73 L 741.00 169.79 L 716.00 157.79 L 693.00 149.78 L 673.00 144.83 L 653.00 141.76 L 631.00 140.53 L 610.00 140.87 L 581.00 144.77 L 557.00 150.73 L 537.00 157.84 L 512.00 169.72 L 495.00 179.86 L 477.00 192.91 L 461.00 206.77 L 443.69 225.00 L 428.90 244.00 L 416.91 263.00 L 405.68 285.00 L 397.90 305.00 L 391.73 326.00 L 387.80 345.00 L 385.62 365.00 L 385.74 397.00 L 387.74 415.00 L 391.86 435.00 L 397.74 455.00 L 404.71 473.00 L 415.69 495.00 L 417.00 496.33 L 419.00 496.36 L 521.00 496.50 L 526.70 499.00 L 544.00 514.41 L 710.00 514.23 Z M 436.00 995.17 L 550.00 902.50 L 563.00 895.50 L 572.00 892.48 L 581.00 890.50 L 589.00 890.31 L 673.00 890.50 L 689.00 894.49 L 701.00 900.50 L 708.00 905.47 L 811.00 989.21 L 818.00 994.42 L 819.05 994.00 L 819.11 906.00 L 818.31 904.00 L 741.44 824.00 L 737.45 817.00 L 733.46 806.00 L 729.00 759.00 L 728.06 753.00 L 726.17 748.00 L 723.29 743.00 L 717.00 735.95 L 708.00 729.96 L 694.45 723.00 L 688.50 642.00 L 691.48 629.00 L 698.49 617.00 L 702.00 613.48 L 710.00 607.46 L 726.00 600.39 L 747.00 589.22 L 761.00 580.20 L 778.00 567.19 L 796.38 550.00 L 810.14 535.00 L 825.23 515.00 L 825.00 513.52 L 736.00 513.58 L 730.00 517.99 L 719.00 528.53 L 712.00 531.53 L 635.00 531.69 L 634.52 644.00 L 631.00 648.58 L 627.00 649.78 L 622.00 648.59 L 618.46 644.00 L 618.00 531.82 L 540.00 531.53 L 534.00 528.55 L 518.00 513.62 L 427.56 514.00 L 435.75 526.00 L 450.92 544.00 L 465.00 558.21 L 479.00 570.26 L 492.00 580.00 L 506.00 589.13 L 531.00 602.25 L 542.00 606.46 L 551.00 612.47 L 557.52 620.00 L 562.52 629.00 L 564.52 637.00 L 564.88 643.00 L 562.51 687.00 L 561.75 690.00 L 559.57 723.00 L 538.00 734.97 L 531.84 741.00 L 528.00 747.00 L 524.81 756.00 L 520.53 802.00 L 519.53 808.00 L 516.54 816.00 L 512.54 823.00 L 503.53 833.00 L 434.65 905.00 L 434.57 995.00 L 436.00 995.17 Z M 413.00 758.05 L 414.45 757.00 L 414.41 703.00 L 413.06 696.00 L 410.06 689.00 L 407.36 685.00 L 401.00 678.70 L 395.00 674.90 L 389.00 672.72 L 383.00 671.67 L 375.00 671.98 L 368.00 673.78 L 362.00 676.73 L 352.94 685.00 L 348.84 692.00 L 346.76 698.00 L 345.76 705.00 L 345.72 757.00 L 347.00 758.21 L 413.00 758.05 Z M 906.00 758.21 L 907.02 757.00 L 906.48 756.00 L 907.00 704.00 L 905.19 695.00 L 901.23 687.00 L 896.00 680.82 L 891.00 676.88 L 882.00 672.81 L 877.00 671.75 L 868.00 671.85 L 863.00 672.97 L 856.00 675.86 L 849.00 680.99 L 843.92 687.00 L 840.71 693.00 L 838.75 699.00 L 837.99 721.00 L 838.52 756.00 L 837.96 757.00 L 839.00 758.08 L 906.00 758.21 Z M 384.00 1114.11 L 394.00 1111.38 L 403.00 1105.46 L 410.21 1097.00 L 413.25 1090.00 L 414.33 1085.00 L 414.48 776.00 L 414.00 774.92 L 413.00 774.86 L 347.00 774.83 L 345.73 776.00 L 345.87 1083.00 L 346.72 1088.00 L 349.72 1096.00 L 352.83 1101.00 L 359.00 1107.12 L 364.00 1110.34 L 371.00 1113.16 L 378.00 1114.28 L 384.00 1114.11 Z M 876.00 1114.08 L 887.00 1111.29 L 896.00 1105.20 L 902.39 1097.00 L 905.14 1091.00 L 906.37 1086.00 L 906.48 777.00 L 907.04 776.00 L 906.00 774.81 L 839.00 774.75 L 837.87 776.00 L 838.51 782.00 L 837.97 835.00 L 838.51 881.00 L 837.93 890.00 L 838.68 1087.00 L 839.76 1091.00 L 843.72 1099.00 L 847.86 1104.00 L 853.00 1108.29 L 863.00 1113.08 L 869.00 1114.20 L 876.00 1114.08 Z" fill="url(#dark-ship-main)" fill-rule="evenodd"/>
  <path d="M 627.00 305.11 L 628.00 304.17 L 631.00 304.26 L 632.00 303.20 L 633.00 303.27 L 636.27 300.00 L 636.18 299.00 L 638.20 296.00 L 638.27 206.00 L 637.19 205.00 L 637.15 203.00 L 632.00 197.73 L 630.00 197.86 L 629.00 196.73 L 623.00 196.76 L 618.00 199.72 L 614.72 205.00 L 614.74 296.00 L 615.81 297.00 L 615.81 299.00 L 620.00 303.27 L 621.00 303.18 L 622.00 304.28 L 625.00 304.16 L 626.00 305.16 L 627.00 305.11 Z M 802.00 217.03 L 791.00 205.93 L 802.00 217.03 Z M 630.00 391.20 L 631.00 390.19 L 635.00 390.14 L 638.00 388.17 L 640.00 388.10 L 642.00 386.17 L 643.00 386.28 L 650.25 379.00 L 650.16 378.00 L 652.27 376.00 L 652.17 375.00 L 654.21 372.00 L 654.18 370.00 L 655.28 368.00 L 655.18 363.00 L 656.04 362.00 L 656.16 360.00 L 655.17 359.00 L 655.28 354.00 L 654.17 353.00 L 654.26 351.00 L 653.15 350.00 L 653.18 348.00 L 650.18 344.00 L 650.13 343.00 L 644.00 336.73 L 637.00 332.73 L 635.00 332.81 L 634.00 331.73 L 631.00 331.84 L 630.00 330.74 L 622.00 330.79 L 621.00 331.84 L 618.00 331.79 L 615.00 333.83 L 613.00 333.80 L 611.00 335.86 L 610.00 335.73 L 607.00 338.84 L 604.95 340.00 L 604.84 341.00 L 601.74 344.00 L 601.86 345.00 L 599.85 347.00 L 599.86 349.00 L 597.89 352.00 L 597.84 355.00 L 596.83 356.00 L 596.75 365.00 L 597.82 367.00 L 597.73 370.00 L 598.82 371.00 L 598.80 373.00 L 600.80 376.00 L 600.77 377.00 L 608.00 385.26 L 609.00 385.16 L 611.00 387.27 L 612.00 387.17 L 615.00 389.27 L 617.00 389.17 L 618.00 390.27 L 621.00 390.17 L 622.00 391.23 L 630.00 391.20 Z M 867.00 394.11 L 867.00 387.96 L 867.00 394.11 Z M 560.00 532.05 L 543.83 532.00 L 560.00 532.05 Z M 579.00 532.02 L 568.95 532.00 L 579.00 532.02 Z M 646.00 532.08 L 634.82 532.00 L 646.00 532.08 Z M 675.00 532.04 L 663.95 532.00 L 675.00 532.04 Z M 630.00 802.28 L 635.25 799.00 L 635.17 798.00 L 637.28 796.00 L 637.17 794.00 L 638.26 793.00 L 638.27 705.00 L 637.18 704.00 L 637.28 702.00 L 634.00 697.73 L 631.00 696.84 L 630.00 695.74 L 622.00 695.81 L 621.00 696.79 L 620.00 696.80 L 616.76 700.00 L 615.84 703.00 L 614.75 704.00 L 614.72 794.00 L 616.82 797.00 L 616.72 798.00 L 619.00 800.28 L 620.00 800.17 L 623.00 802.27 L 630.00 802.28 Z M 352.00 758.08 L 347.00 757.79 L 345.77 757.00 L 347.00 758.21 L 352.00 758.08 Z M 901.00 758.10 L 893.88 758.00 L 901.00 758.10 Z M 363.00 775.16 L 347.90 775.00 L 363.00 775.16 Z M 413.00 775.14 L 368.88 775.00 L 413.00 775.14 Z M 838.00 776.13 L 840.00 775.19 L 905.14 775.00 L 839.00 774.76 L 838.00 776.13 Z M 346.00 853.23 L 346.00 846.76 L 346.00 853.23 Z M 657.00 890.01 L 628.99 890.00 L 657.00 890.01 Z M 346.00 973.23 L 346.00 962.77 L 346.00 973.23 Z M 346.00 1033.23 L 346.00 1026.77 L 346.00 1033.23 Z" fill="url(#dark-ship-accent)" fill-rule="evenodd"/>
</svg>
