<?xml version="1.0" encoding="UTF-8"?>
<svg xmlns="http://www.w3.org/2000/svg" viewBox="0 0 1254 1254" shape-rendering="geometricPrecision" width="128" height="128">
  <title>Directive Crew icon, dark variant</title>
  <defs>
    <linearGradient id="dark-crew-main" x1="0" y1="0.5" x2="1" y2="0.5" gradientTransform="rotate(-45.7959 .5 .5)"><stop offset="0%" stop-color="#242831"/><stop offset="20%" stop-color="#232730"/><stop offset="40%" stop-color="#232830"/><stop offset="60%" stop-color="#242831"/><stop offset="80%" stop-color="#242831"/><stop offset="100%" stop-color="#242831"/></linearGradient>
    <linearGradient id="dark-crew-accent" x1="0" y1="0.5" x2="1" y2="0.5" gradientTransform="rotate(-78.0329 .5 .5)"><stop offset="0%" stop-color="#4a4d6f"/><stop offset="20%" stop-color="#4c5072"/><stop offset="40%" stop-color="#4d5163"/><stop offset="60%" stop-color="#4d5159"/><stop offset="80%" stop-color="#4d5159"/><stop offset="100%" stop-color="#4d5159"/></linearGradient>
  </defs>
  <path d="M 636.00 520.04 L 650.00 517.14 L 666.00 510.21 L 678.00 502.08 L 688.19 492.00 L 697.21 479.00 L 704.11 463.00 L 707.09 449.00 L 707.24 430.00 L 704.20 414.00 L 697.32 398.00 L 689.18 386.00 L 678.00 374.73 L 665.00 365.97 L 653.00 360.77 L 642.00 357.86 L 635.00 356.89 L 621.00 356.75 L 604.00 359.97 L 590.00 365.67 L 576.00 374.81 L 564.81 386.00 L 556.71 398.00 L 549.83 414.00 L 546.81 429.00 L 546.87 449.00 L 550.69 465.00 L 556.84 479.00 L 565.95 492.00 L 576.00 502.16 L 591.00 512.02 L 604.00 517.16 L 618.00 520.14 L 636.00 520.04 Z M 379.00 549.13 L 391.00 546.14 L 403.00 540.25 L 412.00 533.40 L 422.05 522.00 L 428.14 511.00 L 432.09 498.00 L 433.30 487.00 L 432.25 473.00 L 429.06 461.00 L 424.17 451.00 L 416.01 440.00 L 407.00 431.91 L 394.00 424.70 L 385.00 421.74 L 371.00 419.90 L 358.00 420.85 L 347.00 423.90 L 335.00 429.80 L 326.00 436.70 L 317.71 446.00 L 310.70 458.00 L 306.88 469.00 L 305.00 482.00 L 305.86 496.00 L 308.73 507.00 L 314.92 520.00 L 321.89 529.00 L 332.00 538.18 L 345.00 545.20 L 354.00 548.07 L 362.00 549.34 L 379.00 549.13 Z M 895.00 549.00 L 909.00 545.01 L 920.00 539.18 L 928.00 532.45 L 937.27 522.00 L 944.19 509.00 L 947.06 499.00 L 948.39 488.00 L 948.19 477.00 L 947.22 471.00 L 943.04 458.00 L 936.13 446.00 L 929.00 437.89 L 919.00 429.88 L 909.00 424.72 L 896.00 420.82 L 883.00 419.86 L 873.00 420.89 L 860.00 424.80 L 849.00 430.69 L 839.00 439.00 L 831.71 448.00 L 825.74 459.00 L 821.89 471.00 L 820.63 482.00 L 820.66 490.00 L 821.76 498.00 L 825.88 511.00 L 831.76 522.00 L 839.00 530.41 L 849.00 539.16 L 860.00 545.05 L 869.00 548.03 L 877.00 549.31 L 895.00 549.00 Z M 775.00 676.38 L 775.37 600.00 L 774.10 590.00 L 771.03 579.00 L 764.12 565.00 L 759.17 558.00 L 753.00 551.64 L 746.00 545.71 L 740.00 541.84 L 726.00 535.82 L 718.00 533.89 L 709.00 532.91 L 686.00 532.96 L 683.00 533.79 L 680.62 537.00 L 680.56 547.00 L 679.57 552.00 L 674.56 563.00 L 668.00 570.54 L 661.00 575.54 L 649.00 579.52 L 605.00 579.54 L 598.00 577.54 L 592.00 574.54 L 588.41 572.00 L 580.43 564.00 L 576.41 557.00 L 574.44 551.00 L 573.46 545.00 L 573.30 536.00 L 571.00 533.68 L 568.00 532.97 L 545.00 532.92 L 536.00 533.84 L 525.00 536.89 L 518.00 539.81 L 511.00 543.81 L 503.00 549.74 L 495.89 557.00 L 489.99 565.00 L 482.75 580.00 L 479.84 591.00 L 478.70 600.00 L 479.00 676.32 L 511.00 674.10 L 512.00 673.48 L 564.00 670.48 L 595.00 670.21 L 597.00 669.48 L 605.00 670.01 L 651.00 669.47 L 730.00 672.47 L 732.00 673.22 L 743.00 673.48 L 775.00 676.38 Z M 250.00 719.10 L 261.00 715.46 L 292.00 707.47 L 353.00 694.47 L 411.00 684.48 L 451.00 679.34 L 451.30 586.00 L 450.05 581.00 L 447.23 576.00 L 444.00 572.86 L 438.00 569.78 L 433.00 568.86 L 421.00 568.81 L 417.88 571.00 L 416.57 577.00 L 413.54 583.00 L 408.00 589.50 L 404.00 592.54 L 398.00 595.54 L 390.00 597.52 L 349.00 597.53 L 341.00 595.53 L 334.00 591.54 L 326.42 584.00 L 323.42 579.00 L 321.25 571.00 L 318.00 568.99 L 301.00 568.90 L 293.00 569.87 L 283.00 572.79 L 272.00 578.89 L 263.77 586.00 L 256.84 595.00 L 252.82 603.00 L 249.79 613.00 L 248.66 622.00 L 248.57 718.00 L 249.00 719.24 L 250.00 719.10 Z M 1005.00 719.05 L 1005.26 623.00 L 1004.23 614.00 L 1001.25 604.00 L 996.15 594.00 L 992.39 589.00 L 983.00 579.91 L 973.00 573.86 L 960.00 569.74 L 952.00 568.86 L 935.00 568.97 L 932.64 571.00 L 930.56 579.00 L 927.58 584.00 L 920.00 591.53 L 913.00 595.53 L 905.00 597.52 L 864.00 597.53 L 856.00 595.54 L 850.00 592.53 L 846.11 589.00 L 840.45 583.00 L 837.43 577.00 L 836.17 571.00 L 833.00 568.95 L 820.00 568.90 L 816.00 569.77 L 810.00 572.77 L 805.97 577.00 L 803.79 581.00 L 802.65 586.00 L 803.00 679.34 L 857.00 686.47 L 908.00 695.48 L 958.00 706.47 L 1005.00 719.05 Z M 864.00 856.32 L 868.30 854.00 L 871.06 849.00 L 883.46 800.00 L 900.18 741.00 L 900.38 735.00 L 899.25 732.00 L 894.00 727.69 L 854.00 720.87 L 819.00 715.95 L 783.00 711.84 L 774.00 711.55 L 773.00 710.89 L 750.00 709.54 L 748.00 708.81 L 675.00 704.99 L 589.00 704.74 L 508.00 708.80 L 472.00 711.86 L 462.00 713.54 L 437.00 715.88 L 364.00 726.83 L 358.00 728.67 L 353.69 734.00 L 353.70 741.00 L 371.52 805.00 L 382.94 850.00 L 384.62 853.00 L 389.00 856.17 L 397.00 856.34 L 400.00 855.46 L 409.00 855.17 L 410.00 854.46 L 439.00 852.30 L 442.00 851.46 L 475.00 849.31 L 480.00 847.25 L 482.31 845.00 L 484.35 841.00 L 484.33 833.00 L 466.45 780.00 L 466.47 775.00 L 468.48 768.00 L 474.19 761.00 L 477.00 758.44 L 481.00 756.45 L 484.00 755.44 L 494.00 754.46 L 561.00 750.47 L 584.00 750.13 L 586.00 749.46 L 645.00 749.37 L 716.00 751.46 L 717.00 752.09 L 732.00 752.46 L 770.00 755.44 L 775.00 757.40 L 777.64 759.00 L 784.54 766.00 L 787.54 773.00 L 787.54 781.00 L 769.77 833.00 L 769.67 841.00 L 771.72 845.00 L 776.00 848.25 L 779.00 849.33 L 789.00 849.47 L 790.00 850.13 L 801.00 850.46 L 803.00 851.24 L 854.00 855.46 L 857.00 856.35 L 864.00 856.32 Z M 248.00 876.08 L 302.00 867.46 L 353.00 861.41 L 357.00 859.03 L 359.00 856.00 L 359.14 849.00 L 357.44 845.00 L 350.12 816.00 L 343.44 794.00 L 341.20 783.00 L 337.43 772.00 L 330.18 743.00 L 328.20 739.00 L 325.00 736.63 L 319.00 735.84 L 285.00 743.86 L 237.00 756.86 L 218.00 762.85 L 210.00 766.82 L 203.00 771.81 L 195.74 779.00 L 189.72 788.00 L 185.79 797.00 L 183.89 804.00 L 182.67 820.00 L 183.84 830.00 L 185.67 837.00 L 191.70 850.00 L 196.71 857.00 L 203.00 863.34 L 211.00 869.20 L 217.00 872.31 L 222.00 874.20 L 232.00 876.36 L 248.00 876.08 Z M 1024.00 876.05 L 1037.00 872.29 L 1043.00 869.20 L 1050.00 864.11 L 1059.36 854.00 L 1066.28 842.00 L 1070.25 829.00 L 1071.29 813.00 L 1070.46 811.00 L 1070.17 805.00 L 1067.23 795.00 L 1060.19 782.00 L 1055.27 776.00 L 1048.00 769.70 L 1040.00 764.75 L 1033.00 761.83 L 992.00 749.87 L 952.00 739.80 L 934.00 735.78 L 928.00 736.97 L 924.75 740.00 L 923.84 742.00 L 916.55 771.00 L 895.87 845.00 L 894.56 852.00 L 894.83 856.00 L 895.85 858.00 L 900.00 861.21 L 905.00 862.16 L 951.00 867.47 L 1000.00 875.28 L 1005.00 875.46 L 1007.00 876.34 L 1024.00 876.05 Z M 567.00 824.05 L 574.00 822.14 L 581.20 816.00 L 584.06 810.00 L 584.21 800.00 L 581.03 793.00 L 575.00 787.85 L 570.00 785.92 L 561.00 785.87 L 553.00 789.78 L 548.77 795.00 L 546.79 800.00 L 546.88 810.00 L 549.76 816.00 L 555.00 821.06 L 560.00 823.20 L 567.00 824.05 Z M 695.00 819.08 L 700.00 817.08 L 704.00 813.00 L 706.09 808.00 L 706.29 803.00 L 705.03 798.00 L 702.30 794.00 L 699.00 791.68 L 694.00 789.88 L 614.00 789.86 L 609.00 791.70 L 606.00 793.75 L 602.87 798.00 L 601.86 801.00 L 601.78 808.00 L 603.77 813.00 L 608.00 817.14 L 613.00 819.13 L 695.00 819.08 Z" fill="url(#dark-crew-main)" fill-rule="evenodd"/>
  <path d="M 479.00 634.23 L 479.00 617.83 L 479.00 634.23 Z M 479.00 648.21 L 479.00 636.77 L 479.00 648.21 Z M 479.00 674.25 L 479.00 664.82 L 479.00 674.25 Z M 567.00 824.05 L 568.00 823.30 L 571.00 823.23 L 572.00 822.31 L 574.00 822.14 L 576.00 820.31 L 577.00 820.21 L 581.20 816.00 L 584.06 810.00 L 584.21 800.00 L 581.03 793.00 L 578.00 789.86 L 575.00 787.85 L 570.00 785.92 L 561.00 785.87 L 560.00 786.76 L 558.00 786.80 L 554.00 789.76 L 553.00 789.78 L 548.77 795.00 L 548.77 796.00 L 547.82 797.00 L 547.74 799.00 L 546.79 800.00 L 546.92 804.00 L 547.71 805.00 L 546.96 806.00 L 546.88 810.00 L 548.71 813.00 L 548.69 814.00 L 549.82 815.00 L 549.77 816.00 L 555.00 821.06 L 559.00 822.31 L 560.00 823.20 L 567.00 824.05 Z M 695.00 819.07 L 700.00 817.07 L 704.00 813.00 L 706.09 808.00 L 706.29 803.00 L 705.03 798.00 L 702.29 794.00 L 699.00 791.69 L 694.00 789.88 L 614.00 789.86 L 613.00 790.70 L 611.00 790.74 L 609.00 791.70 L 606.00 793.75 L 604.80 795.00 L 604.88 796.00 L 602.88 798.00 L 602.85 800.00 L 601.86 801.00 L 601.78 808.00 L 601.95 809.00 L 603.00 809.04 L 603.70 810.00 L 602.71 811.00 L 604.72 812.00 L 603.77 813.00 L 608.00 817.14 L 613.00 819.13 L 695.00 819.07 Z M 551.73 793.00 L 551.00 793.70 L 550.04 793.00 L 551.00 792.21 L 551.73 793.00 Z M 704.00 813.00 L 703.00 813.75 L 702.29 813.00 L 703.00 812.30 L 704.00 813.00 Z" fill="url(#dark-crew-accent)" fill-rule="evenodd"/>
</svg>
