<?xml version="1.0" encoding="UTF-8"?>
<svg xmlns="http://www.w3.org/2000/svg" viewBox="0 0 1254 1254" shape-rendering="geometricPrecision" width="128" height="128">
  <title>Directive Mission icon, dark variant</title>
  <defs>
    <linearGradient id="dark-mission-main" x1="0" y1="0.5" x2="1" y2="0.5" gradientTransform="rotate(21.0805 .5 .5)"><stop offset="0%" stop-color="#1a1e26"/><stop offset="20%" stop-color="#1a1e25"/><stop offset="40%" stop-color="#191d25"/><stop offset="60%" stop-color="#1a1e26"/><stop offset="80%" stop-color="#1a1e25"/><stop offset="100%" stop-color="#1a1e25"/></linearGradient>
    <linearGradient id="dark-mission-accent" x1="0" y1="0.5" x2="1" y2="0.5" gradientTransform="rotate(90.6706 .5 .5)"><stop offset="0%" stop-color="#595a79"/><stop offset="20%" stop-color="#595a79"/><stop offset="40%" stop-color="#595a79"/><stop offset="60%" stop-color="#5a5b7a"/><stop offset="80%" stop-color="#5b5c7b"/><stop offset="100%" stop-color="#5a5a79"/></linearGradient>
  </defs>
  <path d="M 860.00 690.11 L 862.00 689.29 L 865.46 686.00 L 867.29 682.00 L 867.50 673.00 L 868.18 672.00 L 874.50 603.00 L 881.00 549.41 L 889.00 546.10 L 899.00 539.19 L 907.16 531.00 L 916.00 518.45 L 1054.00 497.20 L 1059.00 494.00 L 1060.40 492.00 L 1061.40 489.00 L 1061.44 485.00 L 1060.41 481.00 L 1058.32 478.00 L 1055.00 475.68 L 1052.00 474.79 L 1047.00 474.55 L 1034.00 471.93 L 1028.00 471.53 L 1015.00 468.89 L 996.00 466.54 L 990.00 464.95 L 977.00 463.54 L 964.00 460.85 L 916.00 453.56 L 907.29 441.00 L 899.00 432.70 L 892.00 427.63 L 883.00 423.54 L 881.00 421.90 L 867.43 274.00 L 866.28 271.00 L 863.00 267.64 L 857.00 265.94 L 851.00 267.65 L 847.59 271.00 L 845.87 276.00 L 845.52 286.00 L 844.81 288.00 L 841.53 330.00 L 840.78 332.00 L 839.53 352.00 L 836.71 377.00 L 836.53 386.00 L 835.90 387.00 L 835.53 397.00 L 834.75 399.00 L 834.53 408.00 L 832.76 422.00 L 823.00 426.79 L 816.00 431.63 L 808.99 438.00 L 803.83 444.00 L 799.00 451.99 L 797.00 453.52 L 791.00 453.91 L 759.00 459.92 L 698.00 472.80 L 693.00 474.87 L 690.86 477.00 L 688.77 484.00 L 694.66 504.00 L 696.80 507.00 L 699.00 508.42 L 704.00 509.45 L 713.00 508.48 L 789.00 518.22 L 797.00 518.50 L 799.50 520.00 L 805.78 530.00 L 816.00 540.26 L 823.00 545.17 L 833.00 550.16 L 838.52 602.00 L 839.79 621.00 L 841.53 632.00 L 841.76 640.00 L 842.53 642.00 L 844.81 672.00 L 845.53 673.00 L 845.72 682.00 L 846.84 685.00 L 851.00 689.20 L 855.00 690.42 L 860.00 690.11 Z M 656.00 419.08 L 661.00 416.00 L 663.20 413.00 L 664.24 410.00 L 664.20 404.00 L 662.08 399.00 L 660.00 396.86 L 657.00 394.95 L 653.00 393.93 L 555.00 393.97 L 549.00 395.84 L 545.76 399.00 L 543.82 403.00 L 543.75 410.00 L 544.78 413.00 L 548.00 417.08 L 552.00 419.18 L 656.00 419.08 Z M 599.00 476.35 L 603.00 474.22 L 606.15 471.00 L 608.19 466.00 L 608.32 463.00 L 607.13 458.00 L 605.16 455.00 L 601.00 451.75 L 598.00 450.66 L 478.00 450.62 L 473.00 452.66 L 468.77 457.00 L 467.65 460.00 L 467.64 467.00 L 468.75 470.00 L 474.00 475.24 L 477.00 476.38 L 599.00 476.35 Z M 381.00 864.14 L 400.00 860.21 L 419.00 854.25 L 438.00 846.06 L 451.00 839.09 L 466.00 829.32 L 482.00 816.26 L 494.23 804.00 L 505.24 791.00 L 516.24 775.00 L 524.20 761.00 L 535.20 735.00 L 543.02 706.00 L 545.03 694.00 L 546.47 676.00 L 551.46 652.00 L 556.45 636.00 L 560.46 626.00 L 570.45 606.00 L 587.46 581.00 L 604.33 563.00 L 617.00 551.47 L 640.00 535.46 L 666.00 522.47 L 676.00 519.10 L 679.36 516.00 L 681.13 512.00 L 681.27 508.00 L 676.18 490.00 L 674.22 486.00 L 672.00 483.94 L 665.00 481.96 L 647.00 487.93 L 625.00 497.66 L 603.00 509.97 L 586.00 521.90 L 574.00 531.84 L 554.68 551.00 L 543.89 564.00 L 526.79 590.00 L 517.77 608.00 L 512.86 620.00 L 507.89 635.00 L 502.94 654.00 L 499.87 672.00 L 499.52 681.00 L 497.53 694.00 L 493.53 710.00 L 487.54 727.00 L 477.55 747.00 L 472.53 755.00 L 462.53 768.00 L 445.00 785.50 L 427.00 798.50 L 406.00 809.50 L 396.00 813.50 L 382.00 817.52 L 370.00 819.83 L 365.57 824.00 L 364.52 828.00 L 364.70 858.00 L 365.58 860.00 L 370.00 864.11 L 381.00 864.14 Z M 742.00 745.00 L 747.00 742.20 L 750.18 738.00 L 751.23 735.00 L 751.25 730.00 L 749.25 725.00 L 746.00 721.62 L 743.00 719.80 L 739.00 718.89 L 605.00 718.94 L 601.00 719.99 L 596.66 723.00 L 593.95 727.00 L 592.99 732.00 L 593.69 737.00 L 596.94 742.00 L 600.00 744.13 L 604.00 745.31 L 742.00 745.00 Z M 766.00 802.19 L 769.00 801.00 L 773.13 797.00 L 775.11 792.00 L 775.08 788.00 L 773.17 783.00 L 770.28 780.00 L 767.00 777.77 L 764.00 776.90 L 662.00 776.97 L 655.00 780.00 L 652.99 782.00 L 650.87 786.00 L 650.78 793.00 L 651.79 796.00 L 655.00 800.03 L 659.00 802.08 L 766.00 802.19 Z M 243.00 905.14 L 258.00 902.11 L 267.00 898.21 L 275.00 893.26 L 282.28 887.00 L 289.08 879.00 L 293.36 872.00 L 296.00 865.43 L 341.00 865.28 L 346.00 863.18 L 348.16 861.00 L 350.10 856.00 L 350.07 830.00 L 348.39 825.00 L 345.00 821.62 L 342.00 820.54 L 297.00 820.50 L 295.48 819.00 L 294.02 815.00 L 289.19 807.00 L 280.00 796.86 L 275.00 792.83 L 266.00 787.60 L 252.00 782.72 L 246.00 781.70 L 236.00 781.51 L 224.00 782.75 L 212.00 786.75 L 200.00 793.76 L 192.76 800.00 L 186.91 807.00 L 181.57 816.00 L 177.95 825.00 L 175.70 836.00 L 175.58 849.00 L 176.75 857.00 L 178.81 864.00 L 182.76 873.00 L 188.80 882.00 L 197.00 890.40 L 202.00 894.30 L 213.00 900.22 L 222.00 903.30 L 232.00 905.11 L 243.00 905.14 Z" fill="url(#dark-mission-main)" fill-rule="evenodd"/>
  <path d="M 656.00 419.08 L 661.00 416.00 L 663.20 413.00 L 664.24 410.00 L 664.20 404.00 L 662.08 399.00 L 660.00 396.86 L 659.00 396.76 L 657.00 394.95 L 654.00 394.71 L 653.00 393.93 L 555.00 393.97 L 554.00 394.72 L 551.00 394.84 L 549.00 395.84 L 545.76 399.00 L 543.82 403.00 L 543.75 410.00 L 544.78 413.00 L 548.00 417.08 L 552.00 419.18 L 656.00 419.08 Z M 864.00 513.24 L 865.00 512.21 L 867.00 512.29 L 870.00 510.19 L 873.00 509.29 L 880.29 502.00 L 880.19 501.00 L 882.08 499.00 L 882.21 497.00 L 883.29 496.00 L 883.22 494.00 L 884.25 493.00 L 884.29 479.00 L 883.21 478.00 L 883.29 476.00 L 880.21 471.00 L 880.29 470.00 L 878.20 468.00 L 878.23 467.00 L 872.00 461.72 L 871.00 461.76 L 869.00 459.99 L 867.00 459.76 L 866.00 458.71 L 864.00 458.78 L 863.00 457.87 L 851.00 457.80 L 850.00 458.77 L 848.00 458.71 L 847.00 459.75 L 846.00 459.74 L 845.00 460.76 L 840.00 462.87 L 835.72 467.00 L 835.80 468.00 L 831.81 473.00 L 831.78 475.00 L 829.71 478.00 L 829.80 482.00 L 828.73 483.00 L 828.77 489.00 L 829.75 490.00 L 829.77 494.00 L 830.78 495.00 L 830.84 497.00 L 832.79 500.00 L 832.72 501.00 L 835.81 504.00 L 835.74 505.00 L 837.00 506.27 L 838.00 507.21 L 839.00 507.18 L 841.00 509.27 L 842.00 509.18 L 847.00 512.28 L 849.00 512.21 L 850.00 513.27 L 864.00 513.24 Z M 975.00 493.28 L 976.00 492.22 L 977.00 492.29 L 979.28 490.00 L 979.23 488.00 L 980.27 487.00 L 980.28 486.00 L 979.26 483.00 L 978.22 482.00 L 978.28 481.00 L 975.00 478.71 L 918.00 478.77 L 913.72 483.00 L 913.72 489.00 L 914.79 490.00 L 915.00 491.27 L 918.00 493.27 L 975.00 493.28 Z M 766.00 802.19 L 767.00 801.26 L 769.00 801.00 L 773.13 797.00 L 775.11 792.00 L 775.08 788.00 L 773.17 783.00 L 770.28 780.00 L 767.00 777.77 L 765.00 777.70 L 764.00 776.90 L 662.00 776.97 L 655.00 780.00 L 652.99 782.00 L 650.87 786.00 L 650.78 793.00 L 651.79 796.00 L 655.00 800.03 L 659.00 802.08 L 766.00 802.19 Z" fill="url(#dark-mission-accent)" fill-rule="evenodd"/>
</svg>
